<svg width="24" height="25" viewBox="0 0 24 25" fill="none" xmlns="http://www.w3.org/2000/svg">
<path fill-rule="evenodd" clip-rule="evenodd" d="M12 21.0571C13.1819 21.0571 14.3522 20.8243 15.4442 20.372C16.5361 19.9198 17.5282 19.2568 18.364 18.4211C19.1997 17.5854 19.8626 16.5932 20.3149 15.5013C20.7672 14.4093 21 13.239 21 12.0571C21 10.8752 20.7672 9.70491 20.3149 8.61298C19.8626 7.52105 19.1997 6.52889 18.364 5.69317C17.5282 4.85744 16.5361 4.19451 15.4442 3.74221C14.3522 3.28992 13.1819 3.05713 12 3.05713C9.61305 3.05713 7.32387 4.00534 5.63604 5.69317C3.94821 7.381 3 9.67018 3 12.0571C3 14.4441 3.94821 16.7333 5.63604 18.4211C7.32387 20.1089 9.61305 21.0571 12 21.0571ZM11.768 15.6971L16.128 10.4652C16.4814 10.041 16.4241 9.41058 16 9.0571V9.0571C15.5758 8.70364 14.9455 8.76092 14.592 9.18503L10.932 13.5761L9.41392 12.0574C9.02352 11.6668 8.3904 11.6667 7.99992 12.0572V12.0572C7.6095 12.4476 7.6095 13.0806 7.99992 13.471L10.293 15.7641V15.7641C10.7087 16.1798 11.3916 16.1487 11.768 15.6971V15.6971Z" fill="#76923B"/>
</svg>
