<svg width="24" height="25" viewBox="0 0 24 25" fill="none" xmlns="http://www.w3.org/2000/svg">
<g clip-path="url(#clip0_98_68)">
<path fill-rule="evenodd" clip-rule="evenodd" d="M4.44124 10.0443C4.28368 10.1494 4.24149 10.3738 4.24149 11.1067C4.24149 11.5263 4.2674 11.9377 4.29907 12.0209C4.38343 12.2425 4.62131 12.3356 4.81976 12.2246C4.97145 12.1397 4.97668 12.1183 5.00523 11.4644L5.03461 10.7916L5.68084 10.7623C6.03628 10.7461 6.36174 10.7106 6.40416 10.6832C6.60555 10.5533 6.59833 10.1821 6.39171 10.0443C6.35616 10.0205 5.91731 10.0012 5.41647 10.0012C4.91564 10.0012 4.47678 10.0205 4.44124 10.0443ZM14.3463 10.1167C14.0866 10.3762 14.331 10.7623 14.7549 10.7623H14.9926V14.1953V17.6283H10.0334H5.07438L5.05446 16.9775C5.03596 16.3704 5.02497 16.3189 4.89143 16.211C4.79256 16.1311 4.70173 16.1067 4.59769 16.1321C4.29713 16.2056 4.27228 16.2799 4.25166 17.167C4.22998 18.0969 4.27986 18.3136 4.52801 18.3675C4.61273 18.386 4.71513 18.4112 4.75555 18.4236C4.80848 18.4399 4.82898 18.6269 4.82898 19.0936C4.82898 19.9332 4.86271 19.9757 5.52933 19.9757H5.99462L6.0324 20.1474C6.09843 20.4478 6.49593 20.9295 6.85694 21.1464C7.15885 21.3278 7.24774 21.3513 7.71667 21.3737C8.20958 21.3972 8.26128 21.388 8.61489 21.2141C9.04563 21.0024 9.30947 20.7297 9.51257 20.2865L9.65504 19.9757H12.8432H16.0314L16.0992 20.2017C16.2006 20.5397 16.5231 20.9192 16.9021 21.1464C17.2047 21.3277 17.294 21.3513 17.7627 21.3737C18.2557 21.3972 18.3073 21.388 18.661 21.2141C19.0917 21.0024 19.3555 20.7297 19.5586 20.2865L19.7011 19.9757H20.2763C20.7693 19.9757 20.8737 19.9584 21.0064 19.8541L21.1612 19.7325V17.1932C21.1612 14.0897 21.2423 14.3796 20.1668 13.6378L19.4436 13.139L18.8189 11.6658C18.4754 10.8556 18.1581 10.1491 18.1138 10.096C18.0422 10.0102 17.8336 9.99936 16.2485 9.99936C14.5421 9.99936 14.4586 10.0045 14.3463 10.1167ZM18.0716 11.8626C18.9084 13.8475 18.768 13.626 19.4954 14.1097C20.5023 14.7793 20.3975 14.5363 20.3975 16.2008V17.6283H18.0761H15.7546L15.7702 15.7358L15.7857 13.8432L16.7903 13.8139C17.901 13.7814 17.9888 13.7535 17.9888 13.4324C17.9888 13.1113 17.901 13.0834 16.7903 13.051L15.7857 13.0216L15.7697 11.8919L15.7538 10.7623H16.6807H17.6077L18.0716 11.8626ZM2.94902 13.1683C2.79186 13.3253 2.80091 13.4952 2.97575 13.6698L3.11992 13.8139H5.53397H7.94803L8.0922 13.6698C8.17151 13.5906 8.23642 13.4964 8.23642 13.4606C8.23642 13.3701 8.11476 13.1479 8.03668 13.0958C8.00113 13.0721 6.86834 13.0524 5.51928 13.0518C3.14424 13.051 3.06281 13.0546 2.94902 13.1683ZM3.72386 14.6964C3.56288 14.8462 3.56095 14.9868 3.71704 15.185L3.83877 15.3396H5.50236C7.00223 15.3396 7.17765 15.3296 7.28481 15.2369C7.4691 15.0778 7.49149 14.9098 7.35196 14.7327L7.22917 14.5767H5.54079C3.92284 14.5767 3.84705 14.5817 3.72386 14.6964ZM6.22856 18.4353C6.21752 18.4595 6.14567 18.6443 6.06894 18.846C5.94263 19.1783 5.91361 19.2128 5.7611 19.2128H5.59272V18.802V18.3912H5.92072C6.10113 18.3912 6.23966 18.411 6.22856 18.4353ZM16.285 18.4229C16.285 18.4404 16.2359 18.5526 16.1759 18.6723C16.1158 18.7921 16.0492 18.9627 16.0279 19.0514L15.9891 19.2128H12.8456H9.70221L9.65192 19.0808C9.60592 18.9601 9.41986 18.5407 9.36552 18.4353C9.35307 18.411 10.9049 18.3912 12.814 18.3912C14.7231 18.3912 16.285 18.4055 16.285 18.4229ZM20.3855 18.7874L20.3681 19.1835L20.0598 19.2012C19.7852 19.217 19.7453 19.2042 19.6948 19.0838C19.6014 18.8615 19.4359 18.4824 19.4116 18.4353C19.3991 18.411 19.617 18.3912 19.8959 18.3912H20.4028L20.3855 18.7874ZM8.39293 18.5992C9.31482 19.1389 8.91433 20.6213 7.84662 20.6213C7.33257 20.6213 7.04088 20.4509 6.82075 20.0221C6.54816 19.4912 6.8184 18.7297 7.35525 18.5158C7.64459 18.4006 8.11875 18.4387 8.39293 18.5992ZM18.4248 18.5909C18.7558 18.7846 18.9544 19.1489 18.9451 19.545C18.9372 19.8814 18.8723 20.041 18.6425 20.289C18.416 20.5335 18.2091 20.6213 17.8595 20.6211C17.4768 20.6211 17.2045 20.4899 16.9648 20.1903C16.8009 19.9854 16.7844 19.9261 16.7844 19.5402C16.7844 19.1633 16.8033 19.0909 16.9528 18.8952C17.2058 18.5638 17.431 18.4504 17.8367 18.4502C18.0977 18.45 18.2439 18.485 18.4248 18.5909Z" fill="black"/>
<path fill-rule="evenodd" clip-rule="evenodd" d="M10.522 11.4863C11.0094 11.4863 11.4919 11.3903 11.9421 11.2038C12.3924 11.0173 12.8015 10.7439 13.146 10.3994C13.4906 10.0548 13.764 9.64568 13.9505 9.19546C14.137 8.74523 14.2329 8.26268 14.2329 7.77536C14.2329 7.28804 14.137 6.80549 13.9505 6.35526C13.764 5.90504 13.4906 5.49595 13.146 5.15136C12.8015 4.80678 12.3924 4.53343 11.9421 4.34694C11.4919 4.16045 11.0094 4.06447 10.522 4.06447C9.53786 4.06447 8.59398 4.45544 7.89805 5.15136C7.20213 5.84729 6.81116 6.79117 6.81116 7.77536C6.81116 8.75955 7.20213 9.70343 7.89805 10.3994C8.59398 11.0953 9.53786 11.4863 10.522 11.4863ZM10.4264 9.27621L12.2241 7.11896C12.3698 6.94406 12.3462 6.68413 12.1713 6.53838V6.53838C11.9964 6.39265 11.7365 6.41626 11.5908 6.59113L10.0817 8.40168L9.45575 7.77546C9.29478 7.61442 9.03374 7.61439 8.87273 7.77539V7.77539C8.71175 7.93637 8.71175 8.19737 8.87273 8.35835L9.81822 9.30383V9.30383C9.9896 9.47522 10.2712 9.46239 10.4264 9.27621V9.27621Z" fill="#76923B"/>
</g>
<defs>
<clipPath id="clip0_98_68">
<rect width="19" height="20" fill="white" transform="translate(2.5 2.61292)"/>
</clipPath>
</defs>
</svg>
