<svg width="25" height="25" viewBox="0 0 25 25" fill="none" xmlns="http://www.w3.org/2000/svg">
<g clip-path="url(#clip0_98_18)">
<path d="M20.0109 13.2645C21.0883 11.0979 18.8982 9.59542 16.0348 8.85857C16.2503 8.34171 16.3127 7.66513 15.7052 7.01913C14.9262 6.19234 15.4439 4.98792 15.4439 4.98792C15.4439 4.98792 13.8087 6.58006 14.8412 7.6779C15.222 8.08254 15.4203 8.4379 15.5151 8.73507C14.7246 8.56319 13.9242 8.44676 13.1191 8.38654C13.3596 7.6966 13.3829 6.83002 12.6252 6.00026C11.588 4.86293 12.2787 3.20667 12.2787 3.20667C12.2787 3.20667 10.0982 5.39582 11.4749 6.90513C11.9775 7.45554 12.2422 7.94004 12.3704 8.34617C11.5171 8.31915 10.6959 8.35863 9.96631 8.4664C10.0532 8.02257 9.98065 7.51224 9.51687 7.01943C8.73781 6.19263 9.25587 4.98792 9.25587 4.98792C9.25587 4.98792 7.6204 6.58006 8.65315 7.6779C8.97659 8.02168 9.16615 8.32865 9.275 8.59613C9.15162 8.62463 9.03237 8.65561 8.91725 8.68906C5.36169 8.33785 3.81087 9.11329 4.51934 10.6345C3.28297 11.9395 3.74759 13.429 5.29475 14.5687C6.10194 18.078 6.30978 21.0192 12.3893 21.0192C17.814 21.0192 18.5636 18.6768 19.2355 15.679C21.2515 15.2553 20.822 14.2353 20.0109 13.2645ZM19.5083 12.9139C18.833 14.4339 15.9024 15.578 12.3893 15.578C8.87647 15.578 5.94584 14.4339 5.27028 12.9139C5.25594 12.8688 5.24215 12.8219 5.22837 12.7761C5.55012 11.9146 6.59581 11.1671 8.0645 10.6665C7.7194 11.0186 7.64769 11.5444 8.55584 11.7288C8.81572 11.7816 9.52925 11.5987 9.21734 10.6642C9.17375 10.5335 9.10259 10.446 9.01512 10.3931C10.0242 10.1494 11.1698 10.009 12.3893 10.009C12.526 10.009 12.6601 10.014 12.7948 10.0173C12.0912 10.2809 11.5171 11.0931 12.954 11.3327C13.2713 11.3856 14.1423 11.2027 13.7615 10.2681C13.7282 10.1849 13.6749 10.1122 13.6068 10.0574C14.9532 10.1619 16.1729 10.4356 17.159 10.8301C16.2919 10.7791 15.33 11.3431 16.8704 12.1373C17.2009 12.3077 18.205 12.4641 18.0669 11.4322C18.0568 11.3577 18.0318 11.2862 17.9937 11.2226C18.7821 11.6611 19.3319 12.1928 19.5499 12.7761L19.5083 12.9139Z" fill="#76923B"/>
<path d="M10.5165 13.5501C11.4257 13.5501 12.0321 12.6823 12.5071 12.3427C13.1709 11.8677 14.8398 11.6825 13.37 11.645C11.9759 11.6097 10.2546 12.8043 9.1043 12.7221C7.19967 12.5855 9.15042 13.5501 10.5165 13.5501ZM12.4813 15.323C12.8025 15.3883 13.6853 15.1621 13.2991 14.0064C12.8629 12.6987 10.2223 14.8641 12.4813 15.323ZM7.48176 12.4626C7.17492 12.0055 6.72998 11.4257 6.54576 11.7276C6.29405 12.1405 6.21473 12.9715 6.39755 13.0083C7.8308 13.2983 7.73039 12.8328 7.48176 12.4626ZM15.8138 12.6479C16.0723 12.31 15.5562 11.4969 15.2249 11.6391C14.7062 11.8618 14.4073 11.711 14.1795 12.0488C13.6459 12.84 15.4625 13.1066 15.8138 12.6479ZM15.6524 13.616C15.2805 13.4429 15.3683 14.0227 14.819 13.5575C14.4258 13.2244 13.5798 14.0646 14.1378 14.6352C14.7588 15.2702 14.9242 14.6666 15.1852 14.7174C15.7156 14.8204 16.6277 14.0702 15.6524 13.616ZM9.46992 13.8143C9.27614 13.613 9.01626 13.8559 8.86945 14.1522C8.72405 14.0768 8.60564 14.0592 8.60564 14.0592C8.49454 13.725 8.16408 13.4958 8.16408 13.4958C8.16408 13.4958 8.19417 13.8434 8.23776 14.0129C7.8727 13.8761 7.86145 13.1873 7.86145 13.1873C7.86145 13.1873 7.61648 13.342 7.6387 13.6047C7.2368 13.2624 6.89451 13.4224 6.89451 13.4224C6.89451 13.4224 7.40442 13.7253 7.47473 13.9295C7.18842 13.953 7.02136 14.0575 6.92405 14.3006C6.92433 14.3027 7.48992 14.0165 7.90842 14.2231C7.74333 14.3656 7.82545 14.7216 7.82545 14.7216C8.21498 14.2858 8.52605 14.3324 8.77495 14.4104C8.74486 14.5437 8.74683 14.6655 8.80026 14.7394C9.23198 15.3385 10.7358 15.2037 11.1397 14.7608C11.6288 14.2249 10.2698 14.6453 9.46992 13.8143Z" fill="#76923B"/>
<path d="M10.5322 11.5578C10.4042 11.8291 10.4034 12.0339 10.5513 12.2471C10.5533 12.2477 10.611 11.5886 10.9937 11.3155C11.025 11.5382 11.3563 11.6462 11.3563 11.6462C11.0913 10.6559 11.8648 10.6042 11.8611 10.2488C11.4511 10.2854 11.2182 10.6 11.2182 10.6C10.8894 10.5291 10.5331 10.7105 10.5331 10.7105C10.5331 10.7105 10.8315 10.8616 10.9915 10.9094C10.6928 11.1697 10.1269 10.8263 10.1269 10.8263C10.1269 10.8263 10.1269 11.1279 10.3519 11.2422C9.86734 11.4307 9.82178 11.8226 9.82178 11.8226C9.82178 11.8226 10.3297 11.5165 10.5322 11.5578ZM17.7184 12.9103C17.8349 12.677 17.665 12.4344 17.665 12.4344C17.665 12.4344 17.4037 13.0659 17.017 13.0442C17.1188 12.9053 17.2735 12.5965 17.2735 12.5965C17.2735 12.5965 16.8848 12.6746 16.6604 12.9379C16.6604 12.9379 16.2959 12.8314 15.946 13.0594C16.1434 13.3473 16.7942 12.9029 17.1393 13.8654C17.1393 13.8654 17.3447 13.5706 17.2442 13.372C17.7061 13.3509 18.124 13.8443 18.1254 13.8425C18.1237 13.5783 18.0078 13.4144 17.7516 13.2767C17.8911 13.1167 18.4722 13.0439 18.4722 13.0439C18.4722 13.0439 18.2146 12.7574 17.7184 12.9103Z" fill="#76923B"/>
</g>
<defs>
<clipPath id="clip0_98_18">
<rect width="18" height="19" fill="white" transform="translate(3.24976 2.61292)"/>
</clipPath>
</defs>
</svg>
