<svg width="24" height="25" viewBox="0 0 24 25" fill="none" xmlns="http://www.w3.org/2000/svg">
<g clip-path="url(#clip0_98_38)">
<path fill-rule="evenodd" clip-rule="evenodd" d="M12.5783 17.7754C12.5844 18.0471 12.5052 18.3143 12.3508 18.5429C12.1965 18.7716 11.9739 18.9512 11.7116 19.0591C11.4494 19.1669 11.1592 19.1979 10.8783 19.1481C10.5974 19.0984 10.3384 18.9702 10.1345 18.7799C9.93061 18.5895 9.79099 18.3457 9.7335 18.0796C9.676 17.8134 9.70325 17.537 9.81174 17.2856C9.92024 17.0343 10.1051 16.8194 10.3426 16.6684C10.5802 16.5174 10.8597 16.4371 11.1454 16.4379C11.3319 16.4363 11.5168 16.4695 11.6897 16.5359C11.8627 16.6022 12.0201 16.7003 12.1532 16.8245C12.2863 16.9487 12.3923 17.0966 12.4652 17.2597C12.5382 17.4229 12.5766 17.5981 12.5783 17.7754Z" fill="#37BF44"/>
<path fill-rule="evenodd" clip-rule="evenodd" d="M12.5784 15.6171H19.848V11.2087H12.5784V15.6171Z" fill="#CAE0FF"/>
<path d="M21.3948 6.86291L18.9541 4.65458C18.972 4.61515 18.981 4.57254 18.9804 4.52958V2.92958C18.9804 2.88764 18.9716 2.84612 18.9546 2.80743C18.9376 2.76873 18.9127 2.73364 18.8813 2.70418C18.8499 2.67472 18.8127 2.65148 18.7718 2.63581C18.7308 2.62014 18.6871 2.61236 18.643 2.61291H16.1979C16.1538 2.61236 16.11 2.62014 16.0691 2.63581C16.0282 2.65148 15.9909 2.67472 15.9595 2.70418C15.9281 2.73364 15.9032 2.76873 15.8862 2.80743C15.8692 2.84612 15.8604 2.88764 15.8604 2.92958V4.52958C15.8598 4.57254 15.8688 4.61515 15.8867 4.65458L13.4548 6.86291C13.4218 6.89232 13.3955 6.92781 13.3774 6.96721C13.3593 7.00661 13.3499 7.04909 13.3496 7.09208V11.0238H14.02V7.22958L16.6492 4.85041H18.2004L20.8295 7.22958V21.9754H17.3459V22.6129H21.1626C21.2067 22.6135 21.2504 22.6057 21.2914 22.59C21.3323 22.5743 21.3695 22.5511 21.4009 22.5216C21.4323 22.4922 21.4572 22.4571 21.4742 22.4184C21.4912 22.3797 21.5 22.3382 21.5 22.2962V7.09208C21.4997 7.04909 21.4903 7.00661 21.4722 6.96721C21.4541 6.92781 21.4278 6.89232 21.3948 6.86291ZM16.5221 3.25041H18.3012V4.21291H16.5221V3.25041Z" fill="#0E2238"/>
<path d="M16.4334 15.5448L14.9141 12.6068V11.4504C14.9145 11.4178 14.9082 11.3854 14.8954 11.3552C14.8825 11.3249 14.8635 11.2974 14.8395 11.2742C14.8154 11.251 14.7867 11.2326 14.755 11.22C14.7234 11.2074 14.6895 11.2009 14.6552 11.2009L5.64118 11.2009C5.6066 11.2005 5.57229 11.2067 5.54026 11.219C5.50822 11.2314 5.47912 11.2498 5.45467 11.273C5.43023 11.2963 5.41092 11.3239 5.3979 11.3544C5.38488 11.3849 5.37841 11.4175 5.37887 11.4504V12.6165L3.96171 15.5513C3.9466 15.5828 3.93848 15.617 3.93787 15.6517V22.3667C3.93787 22.432 3.96514 22.4946 4.0137 22.5408C4.06225 22.587 4.1281 22.6129 4.19677 22.6129L16.2018 22.6129C16.2704 22.6129 16.3363 22.587 16.3849 22.5408C16.4334 22.4946 16.4607 22.432 16.4607 22.3667V15.655C16.4604 15.6192 16.4523 15.5839 16.4368 15.5513L16.4334 15.5448ZM7.18438 15.4055L6.03294 12.9178L14.4951 12.9178L15.7828 15.4055L7.18438 15.4055ZM5.89327 11.6965L14.3963 11.6966V12.4222L5.89327 12.4221V11.6965ZM5.64118 13.2741L6.6291 15.4055H4.61919L5.64118 13.2741ZM4.45908 15.9011H6.75514V22.1173H4.45908V15.9011ZM15.9395 22.1173L7.27635 22.1173V15.9011L15.9395 15.9011V22.1173Z" fill="#0E2238"/>
<path fill-rule="evenodd" clip-rule="evenodd" d="M7.1291 10.6373C7.60152 10.6373 8.06933 10.5443 8.50579 10.3635C8.94226 10.1827 9.33884 9.91769 9.6729 9.58364C10.007 9.24958 10.2719 8.853 10.4527 8.41653C10.6335 7.98006 10.7266 7.51226 10.7266 7.03983C10.7266 6.56741 10.6335 6.0996 10.4527 5.66314C10.2719 5.22667 10.007 4.83009 9.6729 4.49603C9.33884 4.16197 8.94226 3.89698 8.50579 3.71619C8.06933 3.5354 7.60152 3.44235 7.1291 3.44235C6.17499 3.44235 5.25995 3.82137 4.58529 4.49603C3.91064 5.17069 3.53162 6.08572 3.53162 7.03983C3.53162 7.99394 3.91064 8.90898 4.58529 9.58364C5.25995 10.2583 6.17499 10.6373 7.1291 10.6373ZM7.03636 8.49481L8.77913 6.40349C8.92042 6.23394 8.89751 5.98195 8.72796 5.84066V5.84066C8.55842 5.69938 8.30645 5.72227 8.16515 5.8918L6.7022 7.64701L6.09539 7.03993C5.93934 6.88381 5.68627 6.88378 5.53018 7.03986V7.03986C5.37413 7.19592 5.37413 7.44895 5.53019 7.60501L6.44677 8.5216V8.5216C6.61292 8.68774 6.88592 8.6753 7.03636 8.49481V8.49481Z" fill="#76923B"/>
</g>
<defs>
<clipPath id="clip0_98_38">
<rect width="19" height="20" fill="white" transform="translate(2.5 2.61292)"/>
</clipPath>
</defs>
</svg>
