<svg width="80" height="80" viewBox="0 0 80 80" fill="none" xmlns="http://www.w3.org/2000/svg">
<path d="M73.705 21.56L48.705 7.81C48.3358 7.60692 47.9213 7.50043 47.5 7.50043C47.0786 7.50043 46.6641 7.60692 46.295 7.81L21.295 21.56C20.903 21.7758 20.5761 22.0929 20.3485 22.4781C20.1208 22.8633 20.0007 23.3025 20.0007 23.75C20.0007 24.1975 20.1208 24.6367 20.3485 25.0219C20.5761 25.4071 20.903 25.7242 21.295 25.94L45 38.9775V65.775L37.41 61.6L35 65.9775L46.295 72.19C46.6641 72.3931 47.0786 72.4996 47.5 72.4996C47.9213 72.4996 48.3358 72.3931 48.705 72.19L73.705 58.44C74.0971 58.2243 74.4241 57.9073 74.6519 57.5221C74.8797 57.1368 74.9999 56.6975 75 56.25V23.75C74.9999 23.3025 74.8797 22.8632 74.6519 22.4779C74.4241 22.0927 74.0971 21.7757 73.705 21.56ZM47.5 12.855L67.3125 23.75L47.5 34.645L27.6875 23.75L47.5 12.855ZM70 54.7725L50 65.7725V38.975L70 27.975V54.7725Z" fill="#D9D9D9"/>
<path d="M25 40H5V35H25V40ZM30 60H10V55H30V60ZM35 50H15V45H35V50Z" fill="#D9D9D9"/>
</svg>
