<svg width="101" height="146" viewBox="0 0 101 146" fill="none" xmlns="http://www.w3.org/2000/svg">
<path d="M18.9112 144.323C18.6554 144.31 18.4231 144.229 18.2172 144.081C17.6465 143.61 17.2909 142.962 17.1505 142.135C17.1053 141.855 17.0772 141.571 17.0648 141.286C17.0398 140.938 17.0273 140.614 17.0273 140.313C17.0273 140.045 17.0383 139.776 17.0585 139.507C17.0866 139.209 17.1365 138.914 17.2067 138.621C17.2644 138.336 17.347 138.06 17.4546 137.79C17.6044 137.43 17.8055 137.11 18.0628 136.83C18.2983 136.549 18.5634 136.301 18.8566 136.086C19.0999 135.896 19.3681 135.757 19.6629 135.671C19.8032 135.642 19.9607 135.628 20.1338 135.628C20.2742 135.628 20.4145 135.639 20.5549 135.659H20.5736C21.1849 135.712 21.6106 135.863 21.8508 136.111C21.9756 136.273 22.0364 136.456 22.0364 136.663V136.725C22.0364 137.023 21.9303 137.318 21.7198 137.612C21.6668 137.69 21.5826 137.798 21.4719 137.934C21.1989 138.294 20.8886 138.607 20.5424 138.875C20.4099 138.974 20.2835 139.053 20.1635 139.111L20.1447 139.123C20.0792 139.156 20.0231 139.173 19.9779 139.173C19.8999 139.173 19.8266 139.153 19.7611 139.111C19.6332 139.036 19.5209 138.941 19.4274 138.825L19.3276 138.719L19.3151 138.713C19.2948 138.698 19.2761 138.679 19.259 138.657H19.2527C19.1981 138.604 19.1716 138.559 19.1716 138.521L19.1779 138.484C19.2278 138.369 19.3104 138.253 19.4258 138.136L19.5054 138.049C19.7736 137.781 20.0278 137.589 20.2679 137.474C20.3085 137.446 20.3506 137.43 20.3927 137.43C20.413 137.43 20.4364 137.435 20.4613 137.442L20.6843 137.611L20.6906 137.684C20.7561 137.726 20.8013 137.75 20.8278 137.759C20.8356 137.697 20.8403 137.633 20.8403 137.567C20.8403 137.344 20.7561 137.167 20.5861 137.034C20.4208 136.919 20.2383 136.839 20.0403 136.799C19.7346 136.753 19.4289 136.728 19.1233 136.724C18.9907 136.724 18.8582 136.735 18.7256 136.755L18.7131 136.774C18.5899 137.051 18.4901 137.333 18.4153 137.623C18.3248 137.934 18.2578 138.245 18.2172 138.559C18.1845 138.952 18.1673 139.343 18.1673 139.736C18.1673 139.946 18.172 140.158 18.1798 140.369C18.1798 140.629 18.2172 140.954 18.2905 141.342C18.3607 141.66 18.4792 141.958 18.6445 142.234C18.7724 142.453 18.933 142.65 19.128 142.826C19.3213 143.002 19.5459 143.125 19.797 143.194C19.875 143.202 19.9545 143.206 20.0325 143.206C20.296 143.206 20.5486 143.153 20.7888 143.046C20.9338 142.851 21.0477 142.544 21.1303 142.123C21.1553 142.053 21.2161 141.969 21.3159 141.869C21.3237 141.864 21.3299 141.859 21.3346 141.85C21.5498 141.643 21.7214 141.52 21.8492 141.477C21.8695 141.47 21.8882 141.465 21.9054 141.465C21.9303 141.465 21.9428 141.473 21.9428 141.49L21.9366 141.515V141.738C21.9366 141.875 21.9225 142.006 21.8929 142.135C21.8025 142.396 21.6637 142.63 21.4781 142.835C20.937 143.481 20.3553 143.917 19.7362 144.15C19.7284 144.15 19.7221 144.151 19.7174 144.156C19.457 144.268 19.1888 144.324 18.9112 144.324V144.323Z" fill="#501E06"/>
<path d="M23.1265 143.554H23.0829C23.0454 143.554 23.0267 143.54 23.0267 143.511V143.197C23.0267 143.166 23.0392 143.136 23.0642 143.107L23.1141 143.026C23.1187 142.973 23.125 142.921 23.1328 142.871L23.1577 142.63C23.1733 142.362 23.1858 142.093 23.1952 141.824C23.2451 140.076 23.27 138.607 23.27 137.418L23.2638 136.555C23.2466 135.977 23.2108 135.4 23.1531 134.826V134.808C23.1531 134.73 23.2108 134.632 23.3262 134.516C23.624 134.211 23.9219 133.992 24.2182 133.86C24.2556 133.84 24.2899 133.829 24.3227 133.829C24.3476 133.829 24.3741 133.835 24.4038 133.847C24.4287 134.087 24.4412 134.329 24.4412 134.572L24.4349 134.851C24.4069 135.343 24.3726 136.297 24.3367 137.714L24.3305 137.851C24.3133 138.442 24.3024 139.034 24.293 139.63C24.2977 139.625 24.3008 139.624 24.3024 139.624C24.3039 139.624 24.3055 139.622 24.3055 139.618C24.5659 139.387 24.8326 139.165 25.104 138.955C25.2661 138.835 25.4221 138.71 25.5749 138.578C25.9009 138.277 26.2486 137.998 26.6167 137.74L26.6291 137.734C26.7695 137.634 26.9176 137.552 27.0751 137.486L27.0814 137.48C27.1547 137.447 27.2326 137.43 27.3106 137.43H27.3356C27.4806 137.45 27.5586 137.589 27.5711 137.845L27.5773 137.876C27.6225 138.256 27.6459 138.715 27.6459 139.251C27.6459 139.462 27.6412 139.675 27.6334 139.89C27.6085 140.291 27.5944 140.692 27.5898 141.092C27.5898 141.465 27.6397 141.741 27.7395 141.923C27.805 142.044 27.9173 142.112 28.0732 142.128H28.0857C28.1309 142.128 28.1543 142.145 28.1543 142.178C28.1543 142.19 28.1496 142.206 28.1387 142.224C28.1278 142.243 28.1184 142.263 28.1106 142.284C28.0405 142.399 27.9282 142.525 27.7753 142.663C27.5804 142.845 27.3683 143.001 27.1375 143.133C27.0003 143.216 26.8833 143.258 26.7835 143.258C26.7009 143.258 26.6089 143.25 26.5106 143.233C26.3032 143.193 26.1909 142.981 26.1706 142.6C26.1628 142.468 26.1582 142.338 26.1582 142.21C26.1582 142.025 26.166 141.841 26.1831 141.658C26.1831 141.58 26.1956 141.392 26.2205 141.094C26.2361 140.888 26.2517 140.679 26.2642 140.467C26.272 140.199 26.2767 139.934 26.2767 139.675C26.2767 139.39 26.2751 139.175 26.2704 139.03C26.2658 139.014 26.2642 138.995 26.2642 138.974C26.2564 138.849 26.2471 138.771 26.2393 138.738C26.2346 138.651 26.2143 138.573 26.1769 138.503C26.0443 138.635 25.8385 138.808 25.5562 139.024L25.3831 139.161C25.1149 139.356 24.9153 139.516 24.7874 139.644C24.725 139.706 24.6501 139.805 24.5644 139.942C24.4396 140.173 24.3788 140.436 24.3788 140.729V141.269C24.3835 141.301 24.385 141.401 24.385 141.566C24.3897 141.704 24.3913 141.902 24.3913 142.162L24.41 142.168C24.41 142.326 24.4053 142.436 24.3975 142.503V142.516C24.3975 142.578 24.3523 142.655 24.2603 142.745C24.2197 142.795 24.1418 142.871 24.031 142.974C24.031 142.979 24.0295 142.981 24.0248 142.981C23.7644 143.224 23.5008 143.406 23.231 143.526C23.1936 143.547 23.1593 143.557 23.1265 143.557V143.554Z" fill="#501E06"/>
<path d="M29.6466 144.025C29.5811 144.025 29.5187 144.017 29.461 144.003C29.4033 143.989 29.3472 143.972 29.2942 143.95C29.2411 143.928 29.1944 143.9 29.1569 143.863C29.0072 143.698 28.9215 143.501 28.8965 143.274C28.8513 142.96 28.8279 142.641 28.8279 142.319C28.8279 141.526 28.8544 140.818 28.909 140.194C28.9215 140.087 28.9293 139.978 28.9339 139.865C28.9339 139.82 28.9199 139.781 28.8903 139.747C28.8326 139.755 28.7951 139.764 28.7795 139.772L28.7 139.747L28.6938 139.741C28.6033 139.749 28.5113 139.753 28.4209 139.753L28.2353 139.747L28.1791 139.741C28.1261 139.738 28.0996 139.719 28.0996 139.685C28.0996 139.644 28.1246 139.588 28.1729 139.518C28.2727 139.39 28.3803 139.275 28.4957 139.17C28.7062 138.972 28.9386 138.802 29.1897 138.662C29.2895 138.596 29.3971 138.553 29.5125 138.531L29.6622 138.537C29.748 138.545 29.8353 138.55 29.9226 138.55H30.01C30.0801 138.521 30.155 138.498 30.233 138.481C30.2626 138.473 30.3016 138.468 30.3515 138.468C30.392 138.468 30.4279 138.483 30.4575 138.509C30.4856 138.536 30.5028 138.571 30.5074 138.613C30.5121 138.657 30.5137 138.699 30.5137 138.741C30.509 138.762 30.5074 138.83 30.5074 138.946C30.4778 139.223 30.4575 139.501 30.4451 139.783L30.4388 139.901C30.4139 140.405 30.3998 140.908 30.3952 141.414C30.3952 141.632 30.4092 141.85 30.4388 142.064V142.095C30.4669 142.327 30.5246 142.508 30.6119 142.641C30.7227 142.778 30.8614 142.845 31.0267 142.845C31.1141 142.845 31.1936 142.832 31.2685 142.807L31.3558 142.776L31.4603 142.751C31.5102 142.751 31.5351 142.772 31.5351 142.814L31.5289 142.845C31.4837 142.943 31.4197 143.034 31.3371 143.112C31.1546 143.306 30.9519 143.475 30.7289 143.62C30.6135 143.707 30.4887 143.779 30.3562 143.836L30.3125 143.849C30.1519 143.919 29.9866 143.971 29.8166 144.005C29.7589 144.017 29.7028 144.024 29.6497 144.024L29.6466 144.025ZM29.5234 137.65C29.3737 137.633 29.2443 137.581 29.132 137.496C29.1273 137.475 29.1257 137.449 29.1257 137.415L29.132 137.408C29.0415 137.321 28.9589 137.229 28.884 137.129C28.8544 137.1 28.8404 137.073 28.8404 137.048C28.8404 137.028 28.8482 137 28.8653 136.964C28.8809 136.93 28.909 136.891 28.9448 136.849C28.9823 136.808 29.0103 136.774 29.0322 136.75C29.04 136.746 29.0447 136.743 29.0447 136.738C29.1694 136.605 29.3004 136.485 29.4408 136.378C29.631 136.217 29.84 136.086 30.0677 135.986C30.1051 135.961 30.1441 135.949 30.1862 135.949C30.2143 135.949 30.2439 135.955 30.2735 135.968C30.3889 136.113 30.4716 136.222 30.5215 136.295L30.5839 136.289C30.601 136.294 30.6166 136.301 30.6338 136.314H30.64C30.6681 136.343 30.7008 136.367 30.7382 136.386C30.7757 136.404 30.8147 136.421 30.8568 136.439H30.8692C30.9145 136.439 30.9379 136.456 30.9379 136.488C30.9379 136.518 30.9113 136.576 30.8568 136.661C30.7616 136.786 30.654 136.902 30.534 137.009C30.3234 137.204 30.0942 137.371 29.8462 137.511C29.7464 137.577 29.6388 137.622 29.5234 137.648V137.65Z" fill="#501E06"/>
<path d="M40.8032 144.435H40.7845C40.7564 144.435 40.7408 144.423 40.7408 144.398L40.7533 144.144C40.7611 144.069 40.7657 143.994 40.7657 143.921C40.7533 143.858 40.747 143.805 40.747 143.76C40.7174 143.484 40.7002 143.207 40.6909 142.929L40.6846 142.681C40.7174 142.578 40.7361 142.502 40.7408 142.452C40.7408 141.969 40.733 141.51 40.7158 141.075C40.7034 140.877 40.6971 140.676 40.6971 140.474C40.5973 140.539 40.4928 140.589 40.3805 140.623C40.2402 140.64 40.1014 140.651 39.9657 140.661C39.9361 140.661 39.9111 140.662 39.8878 140.667C39.8644 140.672 39.8363 140.673 39.8035 140.673C39.7755 140.673 39.7505 140.667 39.7318 140.654C39.7131 140.642 39.6959 140.633 39.6788 140.623C39.225 140.648 38.7696 140.681 38.3158 140.721C38.2955 140.726 38.2753 140.728 38.2534 140.728C38.2487 140.806 38.2456 140.887 38.2409 140.969L38.2347 141.1C38.2191 141.551 38.191 141.998 38.1552 142.446L38.1614 142.458C38.1942 142.491 38.2113 142.532 38.2113 142.581L38.1926 142.804C38.1879 142.924 38.1676 143.04 38.1302 143.152C38.0476 143.322 37.9353 143.47 37.7965 143.598C37.4784 143.908 37.2039 144.108 36.9715 144.2L36.9091 144.219H36.8842C36.8592 144.219 36.8421 144.214 36.8343 144.206C36.8296 144.194 36.8281 144.18 36.8281 144.162V144.064C36.8281 143.994 36.8312 143.921 36.8405 143.847C36.8483 143.702 36.8577 143.617 36.8686 143.59C36.8795 143.564 36.8967 143.525 36.9216 143.476C36.9388 143.447 36.9481 143.419 36.9528 143.389L36.9778 143.216L37.0214 142.831C37.0635 142.385 37.0994 141.941 37.1337 141.498C37.1493 141.287 37.1649 141.074 37.1774 140.86C37.0869 140.873 36.9949 140.885 36.9045 140.898H36.8858C36.8405 140.898 36.8171 140.879 36.8171 140.841C36.8171 140.796 36.839 140.745 36.8858 140.687V140.681C36.9684 140.561 37.0635 140.447 37.1711 140.341L37.1961 140.316C37.1992 140.138 37.2023 139.959 37.2023 139.777C37.2023 139.471 37.1945 139.164 37.1774 138.857C37.1602 138.55 37.1337 138.239 37.0963 137.931C37.0589 137.67 36.9949 137.357 36.9045 136.989V136.958C36.9045 136.88 36.9481 136.797 37.0355 136.71L37.0542 136.685C37.3427 136.362 37.6218 136.136 37.8916 136.004C37.929 135.979 37.9634 135.966 37.9961 135.966C38.0211 135.966 38.046 135.971 38.071 135.979C38.1411 136.267 38.1926 136.562 38.2269 136.858C38.2472 137.123 38.2612 137.388 38.2706 137.658L38.2768 137.733C38.2893 138.163 38.2955 138.593 38.2955 139.028V139.351C38.2955 139.446 38.294 139.552 38.2893 139.667C38.9178 139.605 39.7193 139.543 40.694 139.482V139.315C40.7065 139.105 40.7127 138.894 40.7127 138.682C40.7127 138.352 40.6971 137.949 40.6628 137.474C40.6425 137.14 40.6285 136.805 40.6191 136.47C40.6566 136.375 40.7096 136.29 40.7798 136.216C40.9373 136.038 41.1119 135.874 41.3069 135.726C41.4519 135.611 41.586 135.531 41.7092 135.491L41.7716 135.472C41.8121 135.472 41.834 135.491 41.834 135.528L41.8277 135.559C41.8324 135.877 41.8355 136.198 41.8402 136.523C41.8449 136.847 41.8465 137.262 41.8465 137.765C41.8465 138.221 41.8418 138.55 41.834 138.757C41.834 139.187 41.8387 139.616 41.8465 140.046L41.8527 140.208L41.8589 140.463L41.8652 140.817C41.8652 141.093 41.8558 141.368 41.834 141.641C41.834 141.654 41.8402 141.666 41.8527 141.679C41.8558 141.694 41.862 141.711 41.8714 141.729C41.8808 141.746 41.8839 141.766 41.8839 141.791L41.8465 142.218L41.8153 142.82C41.8106 142.985 41.795 143.147 41.7654 143.31C41.7404 143.417 41.7155 143.539 41.6905 143.676C41.6656 143.754 41.586 143.86 41.4488 143.991C41.2507 144.189 41.0652 144.329 40.8921 144.412L40.8047 144.443L40.8032 144.435Z" fill="#501E06"/>
<path d="M46.4564 143.765C46.4283 143.765 46.3987 143.758 46.3706 143.746C46.2927 143.693 46.2365 143.621 46.2022 143.536C46.1165 143.316 46.0728 142.99 46.0728 142.556V142.34C45.9028 142.53 45.7172 142.709 45.5145 142.879C45.081 143.242 44.6568 143.472 44.2435 143.567C44.1655 143.587 44.086 143.598 44.008 143.598C43.8973 143.598 43.7882 143.578 43.6852 143.536C43.6026 143.503 43.5371 143.453 43.4872 143.386C43.4544 143.341 43.4248 143.294 43.4014 143.242C43.3063 143.062 43.2392 142.867 43.2034 142.659C43.1379 142.312 43.1051 141.964 43.1051 141.612C43.1051 141.198 43.1191 140.827 43.1488 140.497C43.1566 140.344 43.1737 140.191 43.1987 140.038L43.2111 139.971C43.2517 139.728 43.3266 139.516 43.4342 139.338C43.4872 139.223 43.5605 139.122 43.6509 139.034L43.8427 138.843C44.0611 138.64 44.3012 138.464 44.5617 138.316L44.5866 138.303C44.7394 138.217 44.8486 138.172 44.9157 138.172C44.9437 138.172 44.9671 138.18 44.9843 138.197L44.9905 138.247C44.9905 138.309 44.964 138.366 44.9094 138.414L44.9032 138.433C44.7784 138.693 44.6833 138.963 44.6178 139.245L44.6053 139.276C44.5554 139.466 44.5149 139.661 44.4806 139.859C44.3979 140.318 44.3558 140.703 44.3558 141.011C44.3558 141.272 44.401 141.546 44.493 141.836C44.5336 141.981 44.6038 142.128 44.7036 142.276C44.7363 142.338 44.7815 142.39 44.8377 142.432C44.8938 142.474 44.9546 142.508 45.0201 142.536C45.0778 142.544 45.1355 142.549 45.1932 142.549C45.2509 142.549 45.3071 142.544 45.3601 142.536C45.4927 142.383 45.6127 142.224 45.7203 142.059C45.9153 141.761 46.0572 141.516 46.1476 141.322L46.1601 141.223C46.235 140.427 46.3379 139.767 46.4705 139.246C46.5204 138.986 46.6623 138.752 46.8978 138.546C47.0709 138.389 47.258 138.253 47.456 138.138C47.5387 138.088 47.626 138.054 47.7165 138.033C47.7617 138.033 47.7835 138.047 47.7835 138.077C47.7835 138.085 47.782 138.099 47.7773 138.118C47.7726 138.136 47.7711 138.157 47.7711 138.177C47.7633 138.214 47.757 138.253 47.7523 138.295C47.7477 138.337 47.7461 138.383 47.7461 138.433C47.7414 138.462 47.7321 138.49 47.7149 138.52L47.6837 138.762L47.6713 138.88C47.6385 139.103 47.6151 139.326 47.6026 139.549C47.5652 140.082 47.5465 140.612 47.5465 141.141C47.559 141.872 47.6681 142.346 47.8755 142.56C47.8833 142.572 47.888 142.586 47.888 142.603C47.888 142.623 47.8771 142.655 47.8568 142.694C47.8366 142.733 47.8054 142.776 47.7648 142.825C47.7227 142.871 47.6931 142.906 47.6713 142.927C47.6713 142.932 47.6697 142.934 47.665 142.934C47.5371 143.074 47.3968 143.202 47.244 143.317C47.0459 143.487 46.826 143.624 46.5874 143.734C46.5469 143.758 46.5032 143.771 46.4564 143.771V143.765Z" fill="#501E06"/>
<path d="M51.5449 143.554C51.52 143.554 51.4934 143.548 51.4638 143.536C51.4467 143.333 51.4389 143.13 51.4389 142.928C51.4389 142.795 51.442 142.661 51.4513 142.524C51.4638 142.354 51.4747 141.888 51.4825 141.124C51.4825 140.888 51.4716 140.654 51.4513 140.424C51.4389 140.131 51.3827 139.869 51.2845 139.636C51.2517 139.566 51.2034 139.51 51.141 139.466C51.0786 139.423 51.0147 139.392 50.9492 139.371C50.8837 139.363 50.8166 139.359 50.7511 139.359C50.5359 139.359 50.2926 139.415 50.0197 139.526C49.842 139.934 49.7281 140.36 49.6798 140.803C49.6299 141.128 49.5956 141.456 49.5737 141.782L49.6299 141.8L49.6361 142.117C49.6361 142.254 49.6034 142.366 49.5379 142.458L49.5316 142.471C49.4365 142.595 49.3304 142.709 49.215 142.812C48.8969 143.098 48.6053 143.296 48.3417 143.408C48.2996 143.433 48.2591 143.445 48.217 143.445C48.1874 143.445 48.1593 143.439 48.1297 143.426L48.1234 143.308C48.1234 143.246 48.1281 143.186 48.1359 143.129V143.03C48.1359 142.923 48.1484 142.848 48.1733 142.808L48.2045 142.61C48.2373 142.424 48.2731 142.24 48.309 142.058C48.3168 141.789 48.3215 141.523 48.3215 141.258L48.3152 140.725C48.3152 140.519 48.3043 140.268 48.284 139.975C48.2638 139.719 48.2513 139.462 48.2466 139.206C48.2872 139.116 48.3464 139.033 48.4197 138.958L48.5819 138.804C48.925 138.493 49.2119 138.314 49.4443 138.264L49.4568 138.258C49.4973 138.258 49.5191 138.275 49.5191 138.308L49.5129 138.345C49.5129 138.436 49.5113 138.525 49.5067 138.612V139.516C49.5145 139.512 49.5207 139.505 49.5254 139.498C49.633 139.407 49.7422 139.318 49.8544 139.231C50.0525 139.073 50.2615 138.938 50.4798 138.822L50.5172 138.804C50.6654 138.721 50.8182 138.651 50.9757 138.593C51.3734 138.458 51.6697 138.389 51.8677 138.389C51.98 138.389 52.0424 138.395 52.0533 138.408C52.2186 138.428 52.3402 138.478 52.4198 138.556L52.4323 138.562C52.49 138.615 52.5367 138.681 52.5757 138.754L52.6506 138.927C52.7208 139.137 52.7613 139.354 52.7753 139.577C52.8206 140.213 52.8424 140.983 52.8424 141.889C52.8549 142.075 52.8611 142.284 52.8611 142.516C52.8112 142.619 52.7473 142.711 52.6693 142.789L52.4962 142.956C52.2108 143.216 51.9363 143.405 51.6712 143.52C51.6291 143.545 51.5886 143.557 51.5465 143.557L51.5449 143.554Z" fill="#501E06"/>
<path d="M59.3611 144.392H59.3361C59.3065 144.392 59.2924 144.379 59.2924 144.354L59.2987 144.323L59.2924 144.106C59.2924 143.888 59.3049 143.674 59.3299 143.469C59.3798 143.121 59.4094 142.756 59.4219 142.371C59.4219 142.083 59.4141 141.791 59.3969 141.496L59.3346 140.182C59.2924 139.385 59.1942 138.819 59.0367 138.484C58.9213 138.244 58.834 138.073 58.7763 137.97L58.77 137.92C58.77 137.859 58.8199 137.772 58.9182 137.659L58.9369 137.634C59.2301 137.296 59.5295 137.051 59.8351 136.903C59.8726 136.878 59.91 136.866 59.9459 136.866C59.9708 136.866 59.9958 136.871 60.0207 136.878L60.0332 136.903C60.1658 137.143 60.2578 137.405 60.3123 137.691C60.3747 138.009 60.4059 138.302 60.4059 138.571C60.4262 138.98 60.4496 139.577 60.4745 140.363L60.4808 140.648C60.4932 140.876 60.4995 141.105 60.4995 141.336C60.4995 141.567 60.4932 141.793 60.4808 142.023C60.4605 142.267 60.4324 142.508 60.3997 142.748C60.3825 142.868 60.37 142.99 60.3623 143.115C60.3545 143.26 60.3389 143.403 60.3186 143.548C60.2858 143.626 60.2406 143.699 60.1829 143.765C60.1533 143.79 60.1252 143.818 60.0956 143.851C60.1205 143.838 60.1455 143.826 60.1704 143.813C60.211 143.785 60.2531 143.77 60.2952 143.77C60.3201 143.77 60.3467 143.776 60.3747 143.788C60.4075 143.821 60.4808 143.872 60.5915 143.944L60.9751 143.621C61.2153 143.406 61.4648 143.2 61.7252 143.001C62.0059 142.795 62.2851 142.58 62.5627 142.357V142.276C62.5627 142.226 62.5611 142.179 62.5564 142.134C62.5518 142.089 62.5502 142.047 62.5502 142.009C62.5346 141.624 62.5252 141.238 62.5252 140.845C62.5252 140.626 62.5315 140.287 62.544 139.828C62.544 139.432 62.5564 139.103 62.5814 138.843L62.6001 138.57L62.6063 138.427C62.6141 138.316 62.6188 138.204 62.6188 138.093C62.6017 137.943 62.5424 137.818 62.4395 137.714C62.2664 137.549 61.981 137.374 61.5833 137.187C61.0344 136.902 60.5572 136.598 60.1517 136.276C60.0316 136.181 59.9038 136.093 59.7665 136.01C59.5841 136.266 59.3954 136.513 59.1973 136.754C59.032 136.944 58.848 137.114 58.6453 137.262C58.5377 137.349 58.4223 137.424 58.2975 137.485C58.2398 137.51 58.1961 137.522 58.1665 137.522C58.1244 137.522 58.1041 137.502 58.1041 137.46V137.441C58.1447 137.343 58.2008 137.256 58.271 137.181C58.6312 136.75 58.8496 136.476 58.9275 136.356V136.344C58.9275 136.298 58.9462 136.255 58.9837 136.213C59.0414 136.113 59.0944 136.015 59.1459 135.915C59.1958 135.815 59.2503 135.731 59.3127 135.661L59.3502 135.617C59.4032 135.552 59.4609 135.489 59.5233 135.431C59.648 135.304 59.7821 135.185 59.9272 135.078L59.9708 135.046C60.0613 134.981 60.1595 134.915 60.2656 134.855C60.37 134.792 60.4792 134.758 60.5915 134.75L60.6289 134.744C60.7989 134.749 60.9611 134.791 61.1155 134.875C61.2699 134.957 61.4165 135.046 61.5521 135.141L61.6208 135.191C62.0792 135.509 62.6251 135.815 63.2566 136.108C63.542 136.233 63.7588 136.376 63.9069 136.542C63.9849 136.637 64.0317 136.749 64.0442 136.877L64.0567 137.087L64.0442 137.298L64.0379 137.323L64.0317 137.491C63.9896 138.243 63.9678 138.86 63.9631 139.343V139.66C63.9631 140.103 63.9709 140.545 63.988 140.993C63.988 141.05 63.9896 141.094 63.9943 141.124C63.9974 141.152 64.0005 141.183 64.0005 141.216C64.0005 141.266 63.9943 141.314 63.9818 141.365C63.9069 141.548 63.8025 141.713 63.6652 141.861C63.3674 142.187 63.0446 142.488 62.6983 142.759C62.7061 142.756 62.7124 142.751 62.7171 142.747C62.7046 142.755 62.6937 142.762 62.6859 142.772C62.6578 142.797 62.6282 142.82 62.6001 142.84C62.6157 142.828 62.6328 142.815 62.65 142.803C62.2399 143.141 61.9124 143.395 61.6644 143.565L61.3666 143.788C61.1311 144.003 60.8239 144.262 60.4433 144.563L60.289 144.694C60.289 144.694 60.2812 144.694 60.2796 144.697L60.2702 144.707C60.1174 144.852 59.9505 144.979 59.7681 145.092L59.7369 145.11C59.5872 145.209 59.4702 145.259 59.3829 145.259C59.3049 145.246 59.2394 145.213 59.188 145.16C59.1365 145.107 59.0928 145.05 59.0554 144.987C59.0351 144.962 59.0242 144.936 59.0242 144.906C59.0242 144.856 59.0523 144.795 59.11 144.721C59.2129 144.593 59.3205 144.474 59.4328 144.367C59.4079 144.374 59.3829 144.384 59.3579 144.392H59.3611ZM62.6516 142.804C62.6672 142.792 62.6843 142.778 62.7015 142.761C62.6968 142.765 62.6937 142.77 62.689 142.773C62.6765 142.786 62.664 142.797 62.6516 142.804Z" fill="#501E06"/>
<path d="M68.4591 143.902C68.4342 143.902 68.4076 143.896 68.378 143.883C68.2798 143.833 68.2096 143.757 68.1706 143.654C68.1316 143.551 68.102 143.426 68.0802 143.281L68.0677 143.219C68.0396 143.037 68.0162 142.845 67.9991 142.642C67.6778 142.952 67.3254 143.233 66.9449 143.486C66.9246 143.494 66.9059 143.504 66.8887 143.517C66.7811 143.587 66.6688 143.651 66.5534 143.709L66.4739 143.752C66.4037 143.79 66.3304 143.821 66.2571 143.846H66.2509C66.1355 143.891 66.0388 143.913 65.9593 143.913C65.9094 143.913 65.861 143.904 65.8111 143.882C65.6489 143.791 65.5445 143.659 65.4945 143.486C65.3667 143.068 65.2856 142.641 65.2528 142.203L65.2404 142.072C65.1827 141.556 65.1031 141.043 65.0049 140.534C64.9752 140.394 64.9581 140.233 64.9487 140.051C64.9487 139.869 65.0501 139.677 65.2528 139.476C65.3901 139.335 65.5335 139.203 65.6864 139.078C65.7815 139.005 65.8657 138.93 65.9406 138.855C66.4661 138.331 66.9511 137.98 67.3971 137.807C67.4501 137.787 67.511 137.776 67.5765 137.776C67.6186 137.776 67.6575 137.792 67.695 137.823C67.7324 137.854 67.7636 137.892 67.7885 137.937C67.879 138.069 68.0006 138.203 68.155 138.341C68.1706 138.356 68.2143 138.391 68.286 138.439L68.311 138.458C68.3188 138.462 68.325 138.465 68.3297 138.47L68.3858 138.42C68.5184 138.288 68.6962 138.152 68.9192 138.012C69.0923 137.892 69.2638 137.811 69.4338 137.77C69.4868 137.77 69.5133 137.787 69.5133 137.82L69.5071 137.864C69.4494 138.149 69.3995 138.437 69.3574 138.732C69.2919 139.315 69.2544 140.09 69.2466 141.057C69.2544 141.362 69.2841 141.666 69.3324 141.967C69.3527 142.128 69.3839 142.288 69.426 142.45C69.4587 142.633 69.5398 142.793 69.6677 142.934C69.6755 142.942 69.6802 142.952 69.6802 142.965C69.6802 142.982 69.6724 143.006 69.6552 143.037C69.6381 143.068 69.6131 143.102 69.5773 143.14C69.5414 143.177 69.5164 143.205 69.4993 143.227L69.4868 143.233C69.3761 143.344 69.256 143.445 69.1266 143.537C68.9566 143.673 68.7694 143.785 68.562 143.871C68.5293 143.891 68.4934 143.902 68.4576 143.902H68.4591ZM67.9757 142.148V141.919C67.9757 141.766 67.9772 141.615 67.9819 141.467V141.398C67.9866 141.13 67.9882 140.633 67.9882 139.904C67.9882 139.764 67.9913 139.627 68.0006 139.494C67.8306 139.61 67.6607 139.703 67.486 139.773C67.4455 139.798 67.4033 139.811 67.3612 139.811C67.3363 139.811 67.3082 139.802 67.277 139.783C67.2458 139.764 67.1616 139.714 67.026 139.632C66.9714 139.632 66.9199 139.618 66.87 139.588L66.8513 139.575C66.7562 139.53 66.6283 139.415 66.4677 139.228C66.4302 139.178 66.3975 139.13 66.3679 139.078L66.3616 139.209C66.3694 139.304 66.3881 139.443 66.4178 139.624C66.4879 140.024 66.5441 140.425 66.5846 140.826L66.6345 141.303C66.6875 141.824 66.753 142.201 66.8263 142.436C66.8887 142.68 66.9932 142.839 67.1429 142.914L67.1616 142.92L67.2677 142.82C67.3878 142.712 67.5063 142.605 67.6232 142.494C67.7418 142.385 67.8509 142.274 67.9554 142.162C67.9632 142.154 67.9694 142.148 67.9741 142.143L67.9757 142.148Z" fill="#501E06"/>
<path d="M77.3104 144.379C76.8395 144.379 76.4215 144.309 76.0582 144.169C75.9553 144.131 75.8679 144.072 75.7977 143.989C75.7853 143.977 75.7744 143.963 75.7666 143.946C75.6683 143.83 75.5841 143.756 75.5186 143.723C75.5139 143.723 75.5092 143.72 75.4999 143.713C75.4905 143.707 75.4796 143.703 75.4625 143.698C75.4172 143.665 75.3705 143.642 75.3205 143.629C75.3159 143.625 75.3081 143.621 75.2956 143.62C75.2831 143.618 75.2644 143.612 75.2395 143.601C75.2145 143.59 75.202 143.554 75.202 143.492C75.202 143.464 75.2098 143.425 75.227 143.374C75.2925 143.233 75.3923 143.08 75.5248 142.915C75.6699 142.705 75.8227 142.497 75.9833 142.295C76.1034 142.147 76.2827 141.939 76.5229 141.674L76.6648 141.507C76.7677 141.337 76.8987 141.197 77.0562 141.086V141.08L77.2106 140.969C77.2683 140.937 77.312 140.92 77.3416 140.92C77.3666 140.92 77.3791 140.94 77.3791 140.982C77.3791 140.994 77.365 141.033 77.3354 141.1C77.3307 141.1 77.3292 141.102 77.3292 141.107C77.2917 141.172 77.2465 141.239 77.1919 141.305L76.7085 141.924C76.7007 141.941 76.6898 141.955 76.6773 141.967C76.5447 142.17 76.4091 142.369 76.2687 142.569C76.2687 142.582 76.264 142.591 76.2562 142.6C76.2765 142.63 76.3077 142.647 76.3498 142.656L76.3935 142.669L76.5182 142.725C76.526 142.733 76.5369 142.739 76.5494 142.744C76.6024 142.769 76.6508 142.801 76.6929 142.842C76.7631 142.907 76.8021 142.949 76.8114 142.967C76.9642 143.119 77.1623 143.213 77.4071 143.246C77.6301 143.278 77.8563 143.296 78.0824 143.296C78.4255 143.296 78.7374 143.257 79.0181 143.177L79.0493 143.165C79.1444 142.974 79.2083 142.8 79.2411 142.641C79.2738 142.482 79.291 142.327 79.291 142.179L79.2847 142.031L79.2785 142C79.2536 141.715 79.1647 141.467 79.0118 141.256C78.8263 140.993 78.597 140.775 78.3241 140.606C78.059 140.461 77.7876 140.333 77.5054 140.221L76.7178 139.919C76.5775 139.866 76.4387 139.803 76.303 139.733C76.2905 139.728 76.2796 139.722 76.2718 139.714C76.1892 139.674 76.1112 139.624 76.0364 139.565L76.0301 139.558C75.8196 139.413 75.7135 139.17 75.7135 138.827C75.7135 138.587 75.779 138.311 75.9116 137.996C76.0442 137.683 76.2126 137.388 76.42 137.117C76.7677 136.666 77.1763 136.28 77.6473 135.958C77.8828 135.793 78.137 135.684 78.4099 135.629C78.5377 135.609 78.6672 135.595 78.7997 135.586C78.9073 135.581 79.0368 135.58 79.1912 135.58C79.3456 135.58 79.4968 135.587 79.6497 135.601C79.8025 135.615 79.9506 135.647 80.0957 135.692C80.2812 135.754 80.4325 135.862 80.5479 136.015C80.6228 136.105 80.6602 136.211 80.6602 136.331V136.35C80.6602 136.473 80.6056 136.613 80.498 136.771L80.3561 136.987H80.3623L80.3124 137.05L80.1456 137.285C80.0582 137.388 79.9694 137.486 79.8789 137.577L79.9039 137.552C79.6231 137.862 79.3237 138.144 79.0056 138.402L78.8684 138.526C78.7202 138.674 78.5518 138.799 78.3662 138.897C78.3288 138.922 78.2945 138.935 78.2617 138.935C78.2368 138.935 78.2165 138.93 78.2025 138.919C78.1884 138.908 78.1806 138.897 78.1806 138.885C78.1806 138.84 78.204 138.785 78.2493 138.723C78.2945 138.66 78.3241 138.625 78.3366 138.612C78.452 138.467 78.6376 138.286 78.8949 138.066C79.0602 137.786 79.1522 137.549 79.174 137.354C79.1865 137.246 79.1927 137.157 79.1927 137.087C79.1927 137.034 79.1881 136.992 79.1803 136.963V136.931C79.1397 136.803 79.0664 136.696 78.9635 136.609L78.8263 136.621C78.6313 136.596 78.4348 136.584 78.2368 136.584C77.8641 136.584 77.5397 136.621 77.2637 136.694L77.2574 136.701C77.2325 136.726 77.1748 136.825 77.0843 136.998C76.9346 137.309 76.8613 137.63 76.8613 137.965V138.021C76.8987 138.252 77.0375 138.436 77.2761 138.573C77.4336 138.664 77.6644 138.763 77.9701 138.871L78.8387 139.175C78.9869 139.233 79.1335 139.296 79.2785 139.367C79.514 139.465 79.7245 139.602 79.9117 139.775C80.0271 139.886 80.1362 140.006 80.2391 140.135C80.4294 140.375 80.5292 140.722 80.537 141.177V141.269C80.537 141.467 80.4996 141.669 80.4247 141.877C80.3748 142.034 80.3109 142.184 80.2329 142.329C79.8851 142.953 79.4173 143.467 78.8263 143.872C78.5003 144.116 78.1416 144.278 77.7533 144.356C77.6036 144.373 77.457 144.381 77.3136 144.381L77.3104 144.379Z" fill="#501E06"/>
<path d="M84.8102 143.765C84.7821 143.765 84.7525 143.758 84.7244 143.746C84.6464 143.693 84.5903 143.621 84.556 143.536C84.4702 143.316 84.4266 142.99 84.4266 142.556V142.34C84.2566 142.53 84.071 142.709 83.8683 142.879C83.4347 143.242 83.0106 143.472 82.5973 143.567C82.5193 143.587 82.4398 143.598 82.3618 143.598C82.2511 143.598 82.1419 143.578 82.039 143.536C81.9563 143.503 81.8908 143.453 81.8409 143.386C81.8082 143.341 81.7786 143.294 81.7552 143.242C81.66 143.062 81.593 142.867 81.5571 142.659C81.4916 142.312 81.4589 141.964 81.4589 141.612C81.4589 141.198 81.4729 140.827 81.5025 140.497C81.5103 140.344 81.5275 140.191 81.5524 140.038L81.5649 139.971C81.6055 139.728 81.6803 139.516 81.7879 139.338C81.8409 139.223 81.9142 139.122 82.0047 139.034L82.1965 138.843C82.4148 138.64 82.655 138.464 82.9154 138.316L82.9404 138.303C83.0932 138.217 83.2024 138.172 83.2694 138.172C83.2975 138.172 83.3209 138.18 83.338 138.197L83.3443 138.247C83.3443 138.309 83.3178 138.366 83.2632 138.414L83.2569 138.433C83.1322 138.693 83.0371 138.963 82.9716 139.245L82.9591 139.276C82.9092 139.466 82.8686 139.661 82.8343 139.859C82.7517 140.318 82.7096 140.703 82.7096 141.011C82.7096 141.272 82.7548 141.546 82.8468 141.836C82.8873 141.981 82.9575 142.128 83.0573 142.276C83.0901 142.338 83.1353 142.39 83.1914 142.432C83.2476 142.474 83.3084 142.508 83.3739 142.536C83.4316 142.544 83.4893 142.549 83.547 142.549C83.6047 142.549 83.6608 142.544 83.7139 142.536C83.8464 142.383 83.9665 142.224 84.0741 142.059C84.269 141.761 84.411 141.516 84.5014 141.322L84.5139 141.223C84.5887 140.427 84.6917 139.767 84.8242 139.246C84.8741 138.986 85.016 138.752 85.2515 138.546C85.4246 138.389 85.6118 138.253 85.8098 138.138C85.8925 138.088 85.9798 138.054 86.0702 138.033C86.1155 138.033 86.1373 138.047 86.1373 138.077C86.1373 138.085 86.1357 138.099 86.1311 138.118C86.1264 138.136 86.1248 138.157 86.1248 138.177C86.117 138.214 86.1108 138.253 86.1061 138.295C86.1014 138.337 86.0999 138.383 86.0999 138.433C86.0952 138.462 86.0858 138.49 86.0687 138.52L86.0375 138.762L86.025 138.88C85.9923 139.103 85.9689 139.326 85.9564 139.549C85.919 140.082 85.9003 140.612 85.9003 141.141C85.9127 141.872 86.0219 142.346 86.2293 142.56C86.2371 142.572 86.2418 142.586 86.2418 142.603C86.2418 142.623 86.2309 142.655 86.2106 142.694C86.1903 142.733 86.1591 142.776 86.1186 142.825C86.0765 142.871 86.0468 142.906 86.025 142.927C86.025 142.932 86.0235 142.934 86.0188 142.934C85.8909 143.074 85.7506 143.202 85.5977 143.317C85.3997 143.487 85.1798 143.624 84.9412 143.734C84.9006 143.758 84.857 143.771 84.8102 143.771V143.765Z" fill="#501E06"/>
<path d="M15.4556 113.63C16.6283 114.081 17.3675 114.5 17.6716 114.888L17.3971 115.721H17.4892C18.7726 115.45 20.2447 115.116 21.9056 114.722C22.4171 114.977 22.7867 115.4 23.0144 115.988V116.354C23.0144 117.032 22.7399 117.375 22.1894 117.388H22.0974C21.1976 117.282 20.7064 117.229 20.6221 117.229L20.0639 117.236C19.1578 117.254 17.7168 117.74 15.7379 118.694L15.3636 118.52C15.3636 118.608 15.0891 118.858 14.5386 119.27C14.5386 119.148 14.509 119.086 14.4466 119.086C14.325 119.146 14.233 119.181 14.1721 119.185V119.086L14.2642 118.902H14.1721C13.8992 119.09 13.684 119.188 13.5218 119.193C13.5218 119.16 13.6435 119.004 13.8883 118.727C13.277 118.976 12.9713 119.779 12.9713 121.134C12.8326 122.673 12.6158 123.445 12.321 123.451C12.0263 123.457 11.0126 123.66 9.28006 124.059C8.74204 124.064 8.34438 123.579 8.08862 122.601C8.22118 122.601 8.34438 122.569 8.4551 122.502C7.71591 120.808 7.34631 119.742 7.34631 119.302C7.34631 118.641 7.96075 118.23 9.18806 118.069C9.18806 118.158 9.28007 118.25 9.46252 118.343C10.3015 118.326 10.9783 118.008 11.4961 117.386C11.7019 117.381 12.346 117.645 13.4298 118.178C13.9632 117.411 14.272 116.67 14.3546 115.953C14.2829 115.953 14.1269 115.712 13.8883 115.228C14.0599 115.224 14.5215 114.723 15.2716 113.728L15.454 113.629L15.4556 113.63ZM9.74791 120.088C9.86955 120.788 9.93193 121.279 9.93193 121.563V121.929L10.9393 121.912C10.9393 121.873 10.9097 121.474 10.8473 120.713L10.9393 120.072L10.7569 119.98L10.2064 119.988L9.74791 120.088ZM21.9056 124.111H22.0054V124.295H22.0974C22.3422 124.977 22.4639 125.375 22.4639 125.486H22.5559V125.211C22.4951 125.09 22.4639 124.998 22.4639 124.937C23.069 125.949 23.713 126.703 24.3976 127.202C24.3976 128.275 23.6616 128.933 22.1894 129.176C21.3941 129.187 19.9204 129.243 17.7636 129.343C15.1187 129.287 13.7963 128.944 13.7963 128.309C13.6747 128.032 13.6139 127.634 13.6139 127.118C13.6139 126.251 14.0443 125.568 14.9051 125.069C14.9051 124.991 16.1324 123.894 18.5886 121.778L19.0549 121.22H18.9629C18.7133 121.225 17.2677 121.742 14.6291 122.77H14.5371C14.2423 122.776 13.7823 122.353 13.1538 121.504V121.137C13.1538 120.671 13.7682 120.168 14.9955 119.63C14.9955 119.751 15.0876 119.814 15.27 119.814L15.086 120.088H15.27C17.2537 119.622 18.9426 119.16 20.3368 118.705C21.9976 119.284 22.8288 119.853 22.8288 120.412C22.8288 120.746 21.9368 121.621 20.1543 123.036C18.166 124.475 16.8155 125.606 16.1043 126.427C16.6548 127.095 17.2381 127.422 17.8541 127.411L18.771 127.394C20.9262 127.238 22.0038 126.883 22.0038 126.328C22.0038 125.933 21.7871 125.169 21.3535 124.037C21.5594 124.033 21.7762 124.457 22.0038 125.311H22.0958V124.945C22.0958 124.895 22.0662 124.709 22.0038 124.386V124.295L21.904 124.302V124.111H21.9056ZM14.9051 125.344V125.618H15.0891V125.518C15.0891 125.397 15.0283 125.338 14.9051 125.344ZM14.9971 125.71V125.985H15.0891V125.71H14.9971ZM14.9971 126.078V126.72H15.1796V126.078H14.9971ZM15.2731 126.536C15.334 126.77 15.3651 127.014 15.3651 127.269L15.5492 127.177C15.6661 127.516 16.0045 127.817 16.5659 128.077H16.658V127.985C15.7971 127.508 15.3667 127.024 15.3667 126.535H15.2747L15.2731 126.536ZM18.7726 128.411V128.503L21.0806 128.46L21.1726 128.269C20.6939 128.34 19.8939 128.389 18.7726 128.411ZM20.2479 128.568V128.66L21.3567 128.635V128.543L20.2479 128.568Z" fill="#501E06"/>
<path d="M42.4672 111.281C43.5557 111.486 44.1 111.96 44.1 112.706C44.1 112.877 43.9159 113.184 43.5495 113.622V113.706H43.6415C44.5085 113.512 45.0216 113.412 45.1822 113.407C46.2708 113.706 46.815 114.243 46.815 115.015C46.815 115.66 46.6045 116.026 46.1819 116.114C45.7483 116.059 45.5066 116.031 45.4567 116.031L44.0984 116.33C44.0984 116.185 44.3089 116.031 44.7315 115.864V115.772C44.7315 115.651 44.6707 115.591 44.5475 115.598C44.5085 115.598 44.1748 115.814 43.5479 116.248H43.4559L44.1811 115.515C43.3982 115.626 43.0068 115.842 43.0068 116.165C42.5951 116.744 42.2613 117.143 42.0071 117.364C42.9912 117.225 43.9877 117.055 44.9982 116.856C45.9651 116.839 46.631 117.614 46.9975 119.181V119.272C46.6138 120.217 46.0399 120.861 45.2727 121.206C45.1666 121.206 44.9857 121.27 44.7315 121.398C44.415 121.343 44.1124 121.318 43.8239 121.323L44.1826 120.956V120.864H44.1C43.5276 121.053 43.2251 121.151 43.1908 121.156L43.7319 120.506H43.6399C43.6399 120.772 42.7042 121.092 40.8313 121.465V121.557L41.098 121.549C41.2149 121.488 41.3069 121.457 41.3724 121.457C41.3724 121.756 41.675 122.085 42.28 122.439C42.28 122.545 42.188 122.816 42.0056 123.256H42.0976L43.8224 122.773H43.9144C44.5304 122.762 45.045 123.267 45.4551 124.29C45.4551 124.545 45.2742 124.82 44.914 125.114C44.3089 125.065 43.852 125.043 43.5479 125.047L42.4641 125.065L41.8216 125.164V125.715L41.9136 125.889C43.969 125.595 44.9967 125.395 44.9967 125.289C45.9355 125.456 46.6029 125.718 46.9959 126.072V126.256C46.8244 127.405 46.2489 127.988 45.2711 128.005L45.1791 128.013C43.8458 127.791 42.7884 127.689 42.004 127.704H41.912V128.521C41.912 128.87 41.9416 129.354 42.004 129.971C42.004 130.333 41.5206 130.854 40.5537 131.538C39.9486 130.894 39.6461 130.386 39.6461 130.013L39.7381 129.372C39.6773 129.372 39.6461 129.344 39.6461 129.29C39.7631 129.223 39.8535 129.19 39.9206 129.19V127.924H39.8285C38.818 128.106 37.5174 128.524 35.9283 129.173H35.5618C34.8959 129.184 34.1708 128.714 33.3863 127.765C33.3863 127.288 34.0803 126.82 35.4698 126.365C35.1704 125.899 35.0191 125.326 35.0191 124.648V124.556C35.0191 124.524 35.2905 124.279 35.8363 123.824V123.916L35.6523 124.19L35.7443 124.182C35.7443 124.093 35.8659 124.001 36.1108 123.908V124.092L36.6519 123.717V123.9L36.4679 124.266H36.5599C36.5599 124.221 36.8936 123.672 37.5595 122.617V122.525C37.3381 122.646 37.0963 122.712 36.8344 122.717L36.4679 122.724C35.9844 122.657 35.7427 122.48 35.7427 122.191H35.6507C35.1891 122.503 34.8569 122.66 34.6511 122.667C34.3953 122.667 34.0928 121.974 33.7419 120.591C33.4425 120.036 33.2928 119.586 33.2928 119.243C33.3255 118.915 33.6904 118.515 34.3844 118.042C33.4737 117.465 33.0183 116.868 33.0183 116.251V116.168C33.0682 115.98 33.5548 115.668 34.4764 115.234L34.5591 115.227L34.4764 115.411C34.531 115.595 34.5903 115.685 34.6511 115.685C35.2406 115.49 35.6039 115.393 35.7427 115.393V114.935C35.7427 114.319 35.501 113.78 35.0176 113.318C35.317 113.314 35.4682 113.25 35.4682 113.126L35.2936 113.134V113.042L35.6523 113.035L35.5603 112.852V112.768C35.8659 112.763 36.0187 112.699 36.0187 112.576C35.9579 112.576 35.9267 112.545 35.9267 112.484C36.0609 112.484 36.1794 112.451 36.2854 112.384C37.2741 112.367 37.9104 113.024 38.1927 114.35V114.625L38.9178 114.425C39.2172 114.542 39.3685 114.631 39.3685 114.692C39.4901 114.631 39.5821 114.6 39.643 114.6L40.0094 114.682L40.1015 114.675V114.592L39.551 114.325V114.233H39.735C39.8519 114.288 39.9439 114.316 40.0094 114.316L39.8254 114.049L41.3678 114.025C41.4894 114.02 41.5502 113.954 41.5502 113.833V113.384C41.5502 112.911 41.2789 112.464 40.7346 112.043C41.6906 111.538 42.2645 111.285 42.4594 111.285L42.4672 111.281ZM35.384 117.838V118.021C35.4059 118.142 35.4683 118.205 35.5681 118.205L36.4757 118.187C36.0531 117.925 35.8425 117.749 35.8425 117.654C35.6429 117.776 35.4901 117.838 35.384 117.838ZM35.5665 119.47V119.562C35.7505 120.345 35.933 120.735 36.117 120.729C37.9275 120.412 38.8336 120.185 38.8336 120.046C38.7276 120.05 38.425 119.876 37.9244 119.52C37.0636 119.653 36.4601 119.723 36.117 119.728L35.933 119.736L35.5665 119.469V119.47ZM36.5677 126.527L36.6597 126.519C37.0433 126.515 38.1318 126.374 39.9268 126.103V125.286C38.0648 125.62 36.9451 126.033 36.5677 126.527ZM39.6508 115.588C39.6508 115.81 39.3779 116.15 38.8336 116.605H38.7416C38.7416 116.422 38.712 116.33 38.6496 116.33C38.0835 116.341 37.7529 116.861 37.6578 117.888C37.5361 117.91 37.4753 117.974 37.4753 118.08C38.358 118.063 39.2952 117.503 40.2839 116.397V116.215C40.0219 116.22 39.8426 116.012 39.7428 115.59H39.6508V115.588ZM38.5591 123.861H38.6511C39.5011 123.722 39.9268 123.591 39.9268 123.47C39.7428 123.175 39.6523 122.966 39.6523 122.844H39.5603C39.4777 122.844 39.1439 123.183 38.5607 123.861H38.5591ZM39.7412 117.579V117.671H39.9252V117.579H39.7412ZM40.6504 119.02V119.112C41.0122 119.101 41.1915 119.279 41.1915 119.645L41.65 119.637C42.1724 119.626 42.7744 119.765 43.4575 120.054C43.6415 119.665 43.7319 119.361 43.7319 119.145C43.6711 119.028 43.6399 118.939 43.6399 118.878L42.9148 118.886C42.4032 118.897 41.6485 118.942 40.6488 119.02H40.6504ZM40.8344 128.177C40.8344 128.799 40.8032 129.282 40.7424 129.627L41.0091 129.619V128.802L40.9264 128.169L40.8344 128.177ZM41.1915 128.986C41.1915 129.235 41.1619 129.477 41.0995 129.711V129.803H41.1915C41.2524 129.586 41.2835 129.464 41.2835 129.436V128.987H41.1915V128.986ZM42.6418 115.897L42.5498 116.079H42.6418L42.7339 115.897H42.6418Z" fill="#501E06"/>
<path d="M68.2205 113.172C69.1921 113.4 69.6787 113.791 69.6787 114.346V114.52C69.6787 114.737 69.5367 114.994 69.2529 115.295V115.38C69.5414 115.263 69.7691 115.202 69.936 115.196C71.0198 115.507 71.5609 116.067 71.5609 116.878C71.5609 117.394 71.3333 117.685 70.8779 117.753H70.711L70.1948 117.678C69.7286 117.855 69.3278 117.947 68.994 117.952L69.5944 117.427V117.344H69.5118C69.1063 117.349 68.534 117.874 67.7948 118.919C67.6451 118.919 67.3316 119.153 66.8529 119.619C69.5586 121.975 71.8136 123.448 73.6195 124.044V124.126L72.7617 124.143V124.227C73.1953 124.332 73.4526 124.385 73.5368 124.385V124.468L71.9118 124.502V124.585L72.5122 124.659V124.742L71.3956 124.767V124.85C71.8011 124.899 72.0288 124.924 72.0787 124.924V125.007C71.5734 125.018 71.2319 125.054 71.0541 125.116V125.199L71.7372 125.182V125.274C71.5485 125.274 71.0619 125.483 70.2791 125.899H70.1964C70.0966 125.899 69.9516 125.843 69.7629 125.732C69.3293 128.025 68.9878 129.176 68.7383 129.181L68.1379 129.189C67.5874 129.028 67.1601 128.95 66.8544 128.956C66.5659 128.961 66.2213 129.025 65.8205 129.148L65.9125 128.973H65.8205C64.3874 129.396 63.5312 129.61 63.2536 129.614C63.1148 129.614 62.8871 129.305 62.5706 128.69C62.4598 128.634 62.3741 128.605 62.3117 128.605V128.523L62.8201 128.515C62.8201 128.398 62.6205 128.287 62.2197 128.181V128.089L62.7359 128.082C62.7359 127.954 62.594 127.871 62.3101 127.832V127.748L62.8185 127.74C62.3632 126.446 62.1355 125.707 62.1355 125.525V125.358H62.0513L61.2762 125.883C61.2762 125.712 61.2201 125.628 61.1093 125.634V125.716C61.1639 126.516 61.192 127.199 61.192 127.765C61.192 128.532 60.5916 129.17 59.3923 129.681L59.2177 129.689C58.884 129.694 58.5424 129.301 58.1931 128.506C58.1323 128.506 57.9046 128.253 57.5101 127.748C57.5646 127.748 57.5927 127.718 57.5927 127.656C57.1701 127.456 56.9424 127.29 56.9097 127.155L57.3338 127.148V127.065C57.1561 127.07 56.9564 126.904 56.7334 126.565L56.8176 126.557C57.5787 126.945 58.1229 127.137 58.4504 127.132L58.7919 127.124L58.9666 125.667H58.8746C58.9354 125.556 58.9666 125.47 58.9666 125.408C58.9058 124.691 58.8746 124.263 58.8746 124.125C57.652 125.575 56.9097 126.303 56.6492 126.307H56.3904C56.0286 126.318 55.5436 125.958 54.9322 125.224V125.141L55.5326 125.041V124.959L54.6749 124.884V124.801L55.1911 124.709V124.617L54.8496 124.625C55.5545 124.181 56.4106 123.509 57.4165 122.609C58.0668 121.915 58.5253 121.565 58.7919 121.56V121.218H58.7077C57.7409 121.979 57.1108 122.363 56.8161 122.367C56.1486 122.378 55.6933 121.7 55.45 120.334C55.45 120.079 56.0504 119.726 57.2496 119.276C57.2496 119.354 57.1639 119.439 56.9908 119.535L57.075 119.701L56.9908 119.876C57.8906 119.388 58.4317 119.034 58.6157 118.817C58.505 117.218 58.4489 116.248 58.4489 115.91C58.3319 115.91 58.2742 115.854 58.2742 115.743L58.1073 115.825L58.0153 115.833V115.659L57.7658 115.833V115.666C58.4161 114.683 58.8995 114.188 59.2161 114.184L59.475 114.176C60.4466 114.159 60.9331 114.379 60.9331 114.834C61.0501 114.834 61.1078 114.92 61.1078 115.093L61.3666 115.085C61.4774 115.085 61.5335 115.027 61.5335 114.91C61.4774 114.917 61.4493 114.888 61.4493 114.828H61.7082V114.743L61.6162 114.569L62.0497 114.561V114.478L61.967 114.312C62.006 114.307 62.176 114.273 62.4754 114.212C63.2583 114.201 63.8306 114.792 64.1924 115.986C64.587 115.919 64.8458 115.855 64.9675 115.794C65.0065 115.794 65.1764 115.822 65.4759 115.878C66.6751 115.822 67.2755 115.698 67.2755 115.503C67.2755 115.375 67.3036 115.258 67.3582 115.153C67.1476 114.414 66.8919 114.048 66.5925 114.054V113.887C67.4034 113.415 67.9445 113.177 68.2174 113.172H68.2205ZM60.3358 125.727C60.3358 125.773 60.3078 125.944 60.2532 126.243C60.3639 126.243 60.42 126.186 60.42 126.069V125.727H60.3358ZM60.42 123.761C60.42 124.316 60.392 124.603 60.3358 124.619H60.42L60.512 124.444V123.761H60.42ZM60.3358 125.303V125.478L60.42 125.47V125.303H60.3358ZM60.5947 125.645V126.494H60.6774V125.637L60.5947 125.645ZM61.2778 115.347L61.3698 115.521C61.0251 115.716 60.8536 116.119 60.8536 116.73V117.495H60.9362C61.5647 117.428 61.8782 117.31 61.8782 117.137C61.8782 116.17 61.7082 115.573 61.3698 115.345H61.2778V115.347ZM60.8536 119.729C60.9082 120.152 60.9643 121.549 61.0204 123.92C62.3366 122.676 63.2224 121.148 63.6793 119.338H63.5967C63.5967 119.51 63.3378 119.658 62.8216 119.779C62.1932 119.502 61.8797 119.249 61.8797 119.022V118.855C61.5959 118.861 61.3963 119.064 61.2793 119.463L60.8536 119.729ZM67.1944 123.303C65.8049 123.325 64.6338 123.459 63.6778 123.704H63.5109C63.5109 123.821 63.3971 123.995 63.1694 124.229L63.7698 124.221C63.8088 124.505 63.8914 124.644 64.0193 124.638C66.5925 124.416 67.8775 124.107 67.8775 123.713C67.6498 123.429 67.5359 123.262 67.5359 123.213C67.3363 123.269 67.2225 123.298 67.1944 123.305V123.303ZM63.9367 117.963V118.046L64.3702 117.779C64.5527 117.779 65.0361 117.971 65.8205 118.354L66.0794 118.005C65.3402 118.022 64.9706 117.859 64.9706 117.514C64.2813 117.681 63.9367 117.83 63.9367 117.965V117.963ZM64.3702 126.435L64.5371 127.46C66.5363 127.249 67.5375 127.115 67.5375 127.06C67.5921 126.889 67.6201 126.574 67.6201 126.119L67.1118 126.044C65.7956 126.122 64.8801 126.253 64.3702 126.435ZM64.7944 121.112H64.8786C65.1063 120.785 65.2201 120.554 65.2201 120.422H65.1359C65.047 120.426 64.9332 120.659 64.7944 121.112ZM65.3948 120.762C65.2232 121.15 65.1359 121.381 65.1359 121.454L65.4774 121.446L65.911 121.354C65.8158 121.094 65.6443 120.896 65.3948 120.763V120.762ZM66.5956 119.371V119.538H66.6782V119.371H66.5956ZM68.311 117.629V117.712H68.3936L68.4763 117.363C68.3656 117.367 68.3094 117.458 68.3094 117.629H68.311ZM68.9956 117.954V118.046H68.8209V117.963L68.9956 117.955V117.954Z" fill="#501E06"/>
<path d="M88.3393 111.405C88.4173 111.401 88.7697 111.744 89.3982 112.439L89.7818 112.531V112.915L89.3077 113.59C89.7802 113.457 90.0984 113.387 90.2652 113.382C90.8765 113.621 91.3241 113.934 91.6064 114.324C91.6064 114.84 90.7752 115.238 89.1143 115.515C89.0473 115.632 89.0145 115.76 89.0145 115.899H89.1143C89.7756 115.827 90.1592 115.788 90.2637 115.782C90.9919 116.037 91.5658 116.379 91.9885 116.806C91.9885 117.127 91.8606 117.293 91.6048 117.297V117.389C91.7499 117.389 91.8762 117.42 91.9885 117.481V117.389C91.9276 117.389 91.8964 117.356 91.8964 117.289H92.1803C93.2532 117.268 94.4992 117.659 95.9215 118.463V118.855C95.9215 119.555 95.3164 119.916 94.1047 119.938L93.7132 119.946V119.846H94.1047V119.747H93.9129C92.4407 119.902 91.6064 119.984 91.413 119.988V120.08L91.7966 120.072C91.8902 120.072 92.3378 120.033 93.1378 119.955L93.7132 119.948V120.04C91.7187 120.206 90.6333 120.289 90.4555 120.289V120.389L91.413 120.464H91.7046C91.8933 120.919 91.9885 121.206 91.9885 121.321V121.797C91.9604 121.918 91.4161 122.28 90.3557 122.88L88.5311 124.637L89.0145 124.538L89.59 124.53L90.2652 124.613L89.6898 123.947H89.7818L90.2652 124.039C90.2652 123.911 90.1685 123.847 89.9736 123.847V123.755L90.3572 123.747V123.655C90.1685 123.655 90.0734 123.591 90.0734 123.463H90.1654L90.7409 123.546V123.354C90.5522 123.361 90.457 123.3 90.457 123.172L90.6489 123.164C91.5877 123.147 92.3877 123.711 93.0489 124.856C93.3655 125.105 93.5245 125.389 93.5245 125.705V125.805C93.4403 126.444 93.091 126.769 92.475 126.78C91.8465 126.63 91.3023 126.19 90.8422 125.464V125.564C90.9031 125.564 90.9342 125.595 90.9342 125.656C90.6005 125.66 90.1873 125.734 89.6929 125.872V125.964C89.8816 126.142 89.9767 126.363 89.9767 126.63C89.721 126.702 89.5931 126.897 89.5931 127.213V129.712C89.5931 129.773 89.6258 129.804 89.6929 129.804C89.2984 130.899 88.6262 131.454 87.6765 131.471H87.5767C86.7876 130.615 86.1482 130.146 85.6601 130.063V129.971L86.0437 129.963V129.871C85.9268 129.871 85.5743 129.814 84.9848 129.697C84.9848 130.269 84.6324 130.564 83.926 130.579C83.5096 130.585 83.1259 130.016 82.7766 128.872C82.7766 128.744 83.0963 128.42 83.7357 127.898C83.7357 127.859 83.9306 127.631 84.3189 127.215C84.0024 127.07 83.6796 126.787 83.3521 126.365V126.273C83.363 126.178 84.1973 125.843 85.8519 125.264C86.602 124.631 86.9857 124.273 87.0012 124.19H86.9092C85.9767 124.591 85.3981 124.793 85.1767 124.798C84.8492 124.803 84.4016 124.524 83.8355 123.956H83.7357C83.7357 123.895 83.7685 123.864 83.8355 123.864L83.7357 123.672C83.7357 123.189 84.28 122.731 85.3685 122.297C85.4963 122.358 85.593 122.389 85.6601 122.389C86.1716 121.823 86.4274 121.404 86.4274 121.131V121.031C86.2324 121.037 86.0079 121.009 85.7521 120.949C84.2581 121.36 83.2663 121.664 82.7766 121.865V122.057C83.5096 121.723 84.3096 121.454 85.1767 121.25H85.2765V121.15H85.5603V121.242L85.2765 121.25V121.341C85.1595 121.348 84.2316 121.653 82.4928 122.258C81.3372 122.052 80.7602 121.678 80.7602 121.134C80.7602 120.989 80.729 120.863 80.6682 120.751C82.2838 119.556 83.5657 118.735 84.5092 118.284C84.3813 118.095 84.2503 117.715 84.1178 117.143L84.6012 117.225H84.793V117.133L84.2176 116.95V116.85H84.5092L84.701 116.942V116.842C84.5731 116.847 84.5092 116.787 84.5092 116.658L85.1767 116.641C85.6928 116.636 86.2714 116.563 86.9092 116.424V116.133L86.8094 115.941C85.9143 116.212 85.4683 116.382 85.4683 116.449C84.9349 116.454 84.3907 116.047 83.8355 115.224V115.032C83.8355 114.587 84.411 114.162 85.5603 113.756V113.657C85.6882 113.717 85.7849 113.749 85.8519 113.749L85.7521 113.94C85.8192 113.94 85.8519 113.973 85.8519 114.04C85.7849 114.04 85.7521 114.073 85.7521 114.14L85.9439 114.132L86.6192 114.025C86.6192 113.63 86.3307 113.346 85.7521 113.175V112.983C86.3853 112.016 86.7377 111.53 86.811 111.525L88.252 111.5C88.3128 111.5 88.344 111.471 88.344 111.408L88.3393 111.405ZM83.1556 119.363H83.2554C84.0881 118.897 84.5997 118.663 84.7883 118.663C84.7883 118.535 84.6932 118.471 84.5045 118.471C83.7887 118.855 83.338 119.151 83.154 119.363H83.1556ZM83.1556 119.837C85.1564 119.293 86.3728 119.017 86.8063 119.012C86.8063 118.912 86.6784 118.785 86.4227 118.629L86.3229 118.636C86.0609 118.636 85.8067 118.672 85.5556 118.746L84.9802 118.654C83.7809 119.22 83.1727 119.614 83.1556 119.837ZM85.0815 127.386V127.678C85.3373 127.994 85.4652 128.183 85.4652 128.244C85.3373 128.66 85.2733 128.948 85.2733 129.111L87.0979 129.27C87.4925 129.135 87.7139 128.972 87.7638 128.778V127.921C87.7248 126.9 87.533 126.39 87.1884 126.396H87.0964C86.0406 127.051 85.3685 127.383 85.08 127.388L85.0815 127.386ZM85.0815 129.402V129.594L85.4652 129.586L85.9392 129.678C85.9392 129.522 85.6539 129.432 85.0815 129.404V129.402ZM85.5556 121.045L85.9392 121.037V121.137L85.5556 121.145V121.045ZM86.0391 120.846V120.945L86.2309 120.938V120.846H86.0391ZM86.4227 126.211V126.31L86.7143 126.303C86.825 126.236 86.9529 126.203 87.0979 126.203V126.103H86.9981L86.4227 126.212V126.211ZM87.9556 118.13V118.795C88.0835 118.728 88.1802 118.696 88.2473 118.696V118.604L88.1475 118.12L87.9556 118.128V118.13ZM88.4391 120.612C88.7557 120.868 88.9147 121.025 88.9147 121.086V121.37C88.2753 121.554 87.9572 121.848 87.9572 122.252H88.057L88.6325 122.144C88.6325 122.205 88.6621 122.236 88.7245 122.236C89.4964 121.331 89.8832 120.718 89.8832 120.395L88.4406 120.612H88.4391ZM88.5311 118.113V118.688H88.6309V118.113H88.5311ZM88.5311 127.227V128.669H88.6309L88.7229 128.186V127.71L88.6309 127.227H88.5311ZM88.8227 128.186V128.861L88.9147 128.853V128.188H88.8227V128.186ZM89.0145 117.821V118.587C90.1919 118.437 91.2477 118.353 92.1818 118.337H92.2816C91.8824 117.899 91.4005 117.682 90.8407 117.687V117.595L91.2243 117.587L91.6079 117.679H91.7077V117.579C91.4801 117.519 91.3491 117.487 91.3163 117.487L89.0161 117.821H89.0145ZM92.0898 126.978L93.0473 126.961C93.8084 126.95 94.2887 127.198 94.4883 127.703C94.4883 127.813 94.5522 127.972 94.6801 128.178C94.3916 129.273 93.9097 129.825 93.2392 129.836C92.6668 129.43 92.0259 129.217 91.3148 129.193V129.101L92.2816 128.984V128.7L90.9311 128.725V128.626L92.0898 128.509V128.417L91.7062 128.325V128.225L92.1818 128.217V128.125C91.9931 128.13 91.898 128.069 91.898 127.941L92.0898 127.933V127.841C91.767 127.796 91.6064 127.703 91.6064 127.558L92.1818 127.449V127.165L92.0898 126.973V126.978ZM92.1818 119.296V119.396L92.7573 119.388L93.2407 119.28V119.188H93.0489C92.7043 119.26 92.4157 119.298 92.1818 119.298V119.296ZM92.5639 119.488V119.58L93.431 119.563C93.5526 119.496 93.6477 119.463 93.7148 119.463V119.371H93.6228C93.2735 119.443 92.9195 119.481 92.5639 119.488Z" fill="#501E06"/>
<path d="M97.8493 51.5595C96.2871 51.2159 94.7316 52.2088 94.3946 53.775C93.1851 59.306 90.2572 64.3283 86.1197 68.1301V44.6876H97.3181C98.1952 44.6876 99.0164 44.295 99.5676 43.6234C100.119 42.9451 100.338 42.0616 100.163 41.2093C98.1349 31.2228 91.5337 22.6486 82.4263 18.0904C76.5503 7.45012 65.4634 0.883911 53.2585 0.883911C41.0535 0.883911 29.3641 7.8071 23.6243 18.9605C23.4123 19.371 23.3007 19.8262 23.3007 20.2903V70.4572C16.0076 65.3724 11.4907 56.9388 11.4907 47.8759C11.4907 41.5239 13.5907 35.5623 17.5698 30.6315C18.5763 29.3821 18.3821 27.5548 17.1346 26.5486C15.8871 25.5423 14.0571 25.7364 13.0507 26.9836C8.29723 32.8761 5.68396 40.2946 5.68396 47.8759C5.68396 60.7942 13.2582 72.6593 24.9789 78.0921C25.3717 78.275 25.7867 78.3621 26.2041 78.3621C26.7508 78.3621 27.2931 78.2081 27.7662 77.9069C28.6031 77.3737 29.1075 76.45 29.1075 75.4594V51.8897H41.9998V86.6552C39.411 85.495 37.0008 83.931 34.8562 82.001C33.6667 80.9323 31.8256 81.0238 30.7567 82.2197C29.6832 83.4089 29.7792 85.2429 30.9687 86.3183C37.0901 91.8336 45.008 94.8679 53.2562 94.8679C60.835 94.8679 68.2485 92.2598 74.1401 87.5141C74.4838 87.2375 74.7494 86.9006 74.9234 86.5324C75.2626 86.0572 75.4657 85.4727 75.4657 84.839V29.3643C75.4657 28.5611 75.1421 27.8359 74.6132 27.3072C74.0865 26.7851 73.359 26.4593 72.5601 26.4593C70.9578 26.4593 69.6567 27.7556 69.6567 29.362V83.6498C66.7578 85.8073 63.5308 87.3423 60.094 88.2125V7.54829C67.6147 9.46037 74.062 14.496 77.7309 21.6178C78.0254 22.1934 78.5052 22.653 79.0899 22.9252C85.8898 26.08 91.0963 31.901 93.5176 38.8822H83.214C81.6072 38.8822 80.3106 40.183 80.3106 41.7849V73.9266C80.3106 74.9707 80.8775 75.9346 81.7925 76.4477C82.703 76.9609 83.821 76.9453 84.7159 76.4054C92.5312 71.6932 98.126 63.8932 100.068 55.0133C100.411 53.4448 99.4181 51.9031 97.8515 51.5595H97.8493ZM41.9998 46.0888H29.1075V21.0154C32.051 15.6294 36.6036 11.4929 41.9998 9.08777V46.0888ZM54.2873 89.0447C53.9436 89.0581 53.5999 89.0648 53.2562 89.0648C51.4129 89.0648 49.5874 88.8818 47.8065 88.5226V7.22924C49.5785 6.87672 51.4017 6.69153 53.2562 6.69153C53.5999 6.69153 53.9436 6.696 54.2873 6.71162V89.0447Z" fill="#501E06"/>
<path d="M14.8046 5.79456C14.8046 5.79456 14.751 18.3625 18.8595 20.2813C19.4107 21.794 21.6893 16.3857 14.8046 5.79456Z" fill="#501E06"/>
<path d="M18.5628 22.1507C18.5628 22.1507 12.3967 24.6295 0.555542 14.6742C13.6576 16.5126 17.8598 19.5336 18.5628 22.1507Z" fill="#501E06"/>
</svg>
