<svg width="101" height="145" viewBox="0 0 101 145" fill="none" xmlns="http://www.w3.org/2000/svg">
<path d="M18.9112 144.034C18.6554 144.021 18.4231 143.94 18.2172 143.792C17.6465 143.321 17.2909 142.673 17.1505 141.846C17.1053 141.566 17.0772 141.282 17.0648 140.996C17.0398 140.649 17.0273 140.325 17.0273 140.024C17.0273 139.755 17.0383 139.487 17.0585 139.218C17.0866 138.92 17.1365 138.625 17.2067 138.332C17.2644 138.047 17.347 137.771 17.4546 137.501C17.6044 137.141 17.8055 136.821 18.0628 136.541C18.2983 136.26 18.5634 136.012 18.8566 135.797C19.0999 135.607 19.3681 135.468 19.6629 135.382C19.8032 135.353 19.9607 135.339 20.1338 135.339C20.2742 135.339 20.4145 135.349 20.5549 135.37H20.5736C21.1849 135.423 21.6106 135.574 21.8508 135.822C21.9756 135.984 22.0364 136.166 22.0364 136.374V136.436C22.0364 136.734 21.9303 137.029 21.7198 137.323C21.6668 137.401 21.5826 137.509 21.4719 137.644C21.1989 138.005 20.8886 138.318 20.5424 138.586C20.4099 138.684 20.2835 138.764 20.1635 138.822L20.1447 138.834C20.0792 138.867 20.0231 138.884 19.9779 138.884C19.8999 138.884 19.8266 138.864 19.7611 138.822C19.6332 138.747 19.5209 138.652 19.4274 138.536L19.3276 138.43L19.3151 138.424C19.2948 138.408 19.2761 138.39 19.259 138.368H19.2527C19.1981 138.315 19.1716 138.27 19.1716 138.232L19.1779 138.195C19.2278 138.079 19.3104 137.964 19.4258 137.847L19.5054 137.76C19.7736 137.492 20.0278 137.3 20.2679 137.184C20.3085 137.156 20.3506 137.141 20.3927 137.141C20.413 137.141 20.4364 137.146 20.4613 137.153L20.6843 137.322L20.6906 137.395C20.7561 137.437 20.8013 137.46 20.8278 137.47C20.8356 137.407 20.8403 137.344 20.8403 137.278C20.8403 137.055 20.7561 136.877 20.5861 136.745C20.4208 136.629 20.2383 136.55 20.0403 136.509C19.7346 136.464 19.4289 136.439 19.1233 136.435C18.9907 136.435 18.8582 136.445 18.7256 136.466L18.7131 136.484C18.5899 136.762 18.4901 137.044 18.4153 137.334C18.3248 137.644 18.2578 137.956 18.2172 138.27C18.1845 138.663 18.1673 139.054 18.1673 139.447C18.1673 139.657 18.172 139.869 18.1798 140.08C18.1798 140.34 18.2172 140.664 18.2905 141.053C18.3607 141.371 18.4792 141.668 18.6445 141.944C18.7724 142.164 18.933 142.361 19.128 142.537C19.3213 142.713 19.5459 142.836 19.797 142.905C19.875 142.913 19.9545 142.917 20.0325 142.917C20.296 142.917 20.5486 142.864 20.7888 142.757C20.9338 142.562 21.0477 142.255 21.1303 141.834C21.1553 141.764 21.2161 141.679 21.3159 141.58C21.3237 141.575 21.3299 141.57 21.3346 141.561C21.5498 141.354 21.7214 141.23 21.8492 141.188C21.8695 141.18 21.8882 141.176 21.9054 141.176C21.9303 141.176 21.9428 141.184 21.9428 141.201L21.9366 141.226V141.449C21.9366 141.586 21.9225 141.717 21.8929 141.846C21.8025 142.107 21.6637 142.34 21.4781 142.546C20.937 143.192 20.3553 143.628 19.7362 143.861C19.7284 143.861 19.7221 143.862 19.7174 143.867C19.457 143.979 19.1888 144.035 18.9112 144.035V144.034Z" fill="#2B4505"/>
<path d="M23.1265 143.265H23.0829C23.0454 143.265 23.0267 143.251 23.0267 143.221V142.908C23.0267 142.877 23.0392 142.847 23.0642 142.818L23.1141 142.737C23.1187 142.684 23.125 142.632 23.1328 142.582L23.1577 142.341C23.1733 142.072 23.1858 141.804 23.1952 141.535C23.2451 139.787 23.27 138.318 23.27 137.128L23.2638 136.266C23.2466 135.688 23.2108 135.111 23.1531 134.537V134.519C23.1531 134.441 23.2108 134.342 23.3262 134.227C23.624 133.921 23.9219 133.703 24.2182 133.571C24.2556 133.55 24.2899 133.539 24.3227 133.539C24.3476 133.539 24.3741 133.546 24.4038 133.558C24.4287 133.798 24.4412 134.04 24.4412 134.283L24.4349 134.562C24.4069 135.053 24.3726 136.007 24.3367 137.425L24.3305 137.562C24.3133 138.153 24.3024 138.745 24.293 139.341C24.2977 139.336 24.3008 139.335 24.3024 139.335C24.3039 139.335 24.3055 139.333 24.3055 139.328C24.5659 139.098 24.8326 138.876 25.104 138.666C25.2661 138.546 25.4221 138.421 25.5749 138.288C25.9009 137.988 26.2486 137.708 26.6167 137.451L26.6291 137.445C26.7695 137.345 26.9176 137.263 27.0751 137.197L27.0814 137.191C27.1547 137.158 27.2326 137.141 27.3106 137.141H27.3356C27.4806 137.161 27.5586 137.3 27.5711 137.556L27.5773 137.587C27.6225 137.967 27.6459 138.426 27.6459 138.962C27.6459 139.172 27.6412 139.386 27.6334 139.601C27.6085 140.002 27.5944 140.403 27.5898 140.803C27.5898 141.176 27.6397 141.452 27.7395 141.634C27.805 141.754 27.9173 141.823 28.0732 141.839H28.0857C28.1309 141.839 28.1543 141.856 28.1543 141.888C28.1543 141.901 28.1496 141.917 28.1387 141.935C28.1278 141.954 28.1184 141.974 28.1106 141.994C28.0405 142.11 27.9282 142.236 27.7753 142.373C27.5804 142.556 27.3683 142.712 27.1375 142.844C27.0003 142.927 26.8833 142.969 26.7835 142.969C26.7009 142.969 26.6089 142.961 26.5106 142.944C26.3032 142.903 26.1909 142.691 26.1706 142.311C26.1628 142.178 26.1582 142.049 26.1582 141.921C26.1582 141.736 26.166 141.552 26.1831 141.369C26.1831 141.291 26.1956 141.103 26.2205 140.805C26.2361 140.599 26.2517 140.39 26.2642 140.178C26.272 139.91 26.2767 139.645 26.2767 139.386C26.2767 139.101 26.2751 138.886 26.2704 138.741C26.2658 138.725 26.2642 138.706 26.2642 138.684C26.2564 138.56 26.2471 138.482 26.2393 138.449C26.2346 138.362 26.2143 138.284 26.1769 138.214C26.0443 138.346 25.8385 138.519 25.5562 138.734L25.3831 138.872C25.1149 139.066 24.9153 139.227 24.7874 139.355C24.725 139.417 24.6501 139.515 24.5644 139.653C24.4396 139.883 24.3788 140.147 24.3788 140.44V140.979C24.3835 141.012 24.385 141.112 24.385 141.277C24.3897 141.414 24.3913 141.612 24.3913 141.873L24.41 141.879C24.41 142.037 24.4053 142.147 24.3975 142.214V142.227C24.3975 142.289 24.3523 142.366 24.2603 142.456C24.2197 142.506 24.1418 142.582 24.031 142.685C24.031 142.69 24.0295 142.691 24.0248 142.691C23.7644 142.935 23.5008 143.117 23.231 143.237C23.1936 143.257 23.1593 143.268 23.1265 143.268V143.265Z" fill="#2B4505"/>
<path d="M29.6466 143.736C29.5811 143.736 29.5187 143.728 29.461 143.714C29.4033 143.7 29.3472 143.683 29.2942 143.661C29.2411 143.639 29.1944 143.611 29.1569 143.574C29.0072 143.409 28.9215 143.212 28.8965 142.985C28.8513 142.671 28.8279 142.352 28.8279 142.03C28.8279 141.237 28.8544 140.529 28.909 139.905C28.9215 139.798 28.9293 139.689 28.9339 139.576C28.9339 139.531 28.9199 139.492 28.8903 139.458C28.8326 139.466 28.7951 139.475 28.7795 139.483L28.7 139.458L28.6938 139.452C28.6033 139.459 28.5113 139.464 28.4209 139.464L28.2353 139.458L28.1791 139.452C28.1261 139.449 28.0996 139.43 28.0996 139.396C28.0996 139.355 28.1246 139.299 28.1729 139.229C28.2727 139.101 28.3803 138.985 28.4957 138.881C28.7062 138.683 28.9386 138.513 29.1897 138.373C29.2895 138.307 29.3971 138.264 29.5125 138.242L29.6622 138.248C29.748 138.256 29.8353 138.26 29.9226 138.26H30.01C30.0801 138.232 30.155 138.209 30.233 138.192C30.2626 138.184 30.3016 138.179 30.3515 138.179C30.392 138.179 30.4279 138.193 30.4575 138.22C30.4856 138.246 30.5028 138.282 30.5074 138.324C30.5121 138.368 30.5137 138.41 30.5137 138.452C30.509 138.473 30.5074 138.541 30.5074 138.657C30.4778 138.934 30.4575 139.212 30.4451 139.494L30.4388 139.612C30.4139 140.116 30.3998 140.619 30.3952 141.125C30.3952 141.343 30.4092 141.561 30.4388 141.775V141.806C30.4669 142.038 30.5246 142.219 30.6119 142.352C30.7227 142.489 30.8614 142.556 31.0267 142.556C31.1141 142.556 31.1936 142.543 31.2685 142.518L31.3558 142.487L31.4603 142.462C31.5102 142.462 31.5351 142.483 31.5351 142.525L31.5289 142.556C31.4837 142.654 31.4197 142.744 31.3371 142.822C31.1546 143.017 30.9519 143.186 30.7289 143.331C30.6135 143.418 30.4887 143.49 30.3562 143.547L30.3125 143.56C30.1519 143.63 29.9866 143.682 29.8166 143.716C29.7589 143.728 29.7028 143.735 29.6497 143.735L29.6466 143.736ZM29.5234 137.361C29.3737 137.344 29.2443 137.292 29.132 137.207C29.1273 137.186 29.1257 137.16 29.1257 137.125L29.132 137.119C29.0415 137.032 28.9589 136.94 28.884 136.84C28.8544 136.811 28.8404 136.784 28.8404 136.759C28.8404 136.739 28.8482 136.711 28.8653 136.675C28.8809 136.641 28.909 136.602 28.9448 136.56C28.9823 136.519 29.0103 136.485 29.0322 136.461C29.04 136.457 29.0447 136.453 29.0447 136.449C29.1694 136.316 29.3004 136.196 29.4408 136.089C29.631 135.928 29.84 135.797 30.0677 135.697C30.1051 135.672 30.1441 135.66 30.1862 135.66C30.2143 135.66 30.2439 135.666 30.2735 135.679C30.3889 135.824 30.4716 135.933 30.5215 136.006L30.5839 136C30.601 136.004 30.6166 136.012 30.6338 136.025H30.64C30.6681 136.054 30.7008 136.078 30.7382 136.096C30.7757 136.115 30.8147 136.132 30.8568 136.149H30.8692C30.9145 136.149 30.9379 136.167 30.9379 136.199C30.9379 136.229 30.9113 136.287 30.8568 136.372C30.7616 136.497 30.654 136.613 30.534 136.72C30.3234 136.915 30.0942 137.082 29.8462 137.222C29.7464 137.288 29.6388 137.333 29.5234 137.359V137.361Z" fill="#2B4505"/>
<path d="M40.8032 144.146H40.7845C40.7564 144.146 40.7408 144.134 40.7408 144.109L40.7533 143.854C40.7611 143.78 40.7657 143.705 40.7657 143.632C40.7533 143.569 40.747 143.516 40.747 143.471C40.7174 143.195 40.7002 142.917 40.6909 142.64L40.6846 142.392C40.7174 142.289 40.7361 142.213 40.7408 142.163C40.7408 141.68 40.733 141.221 40.7158 140.786C40.7034 140.588 40.6971 140.387 40.6971 140.184C40.5973 140.25 40.4928 140.3 40.3805 140.334C40.2402 140.351 40.1014 140.362 39.9657 140.371C39.9361 140.371 39.9111 140.373 39.8878 140.378C39.8644 140.382 39.8363 140.384 39.8035 140.384C39.7755 140.384 39.7505 140.378 39.7318 140.365C39.7131 140.353 39.6959 140.343 39.6788 140.334C39.225 140.359 38.7696 140.392 38.3158 140.432C38.2955 140.437 38.2753 140.438 38.2534 140.438C38.2487 140.516 38.2456 140.598 38.2409 140.68L38.2347 140.811C38.2191 141.262 38.191 141.709 38.1552 142.157L38.1614 142.169C38.1942 142.202 38.2113 142.242 38.2113 142.292L38.1926 142.515C38.1879 142.635 38.1676 142.751 38.1302 142.863C38.0476 143.033 37.9353 143.181 37.7965 143.309C37.4784 143.619 37.2039 143.819 36.9715 143.911L36.9091 143.929H36.8842C36.8592 143.929 36.8421 143.925 36.8343 143.917C36.8296 143.904 36.8281 143.89 36.8281 143.873V143.775C36.8281 143.705 36.8312 143.632 36.8405 143.558C36.8483 143.413 36.8577 143.328 36.8686 143.301C36.8795 143.274 36.8967 143.236 36.9216 143.187C36.9388 143.158 36.9481 143.13 36.9528 143.1L36.9778 142.927L37.0214 142.542C37.0635 142.096 37.0994 141.651 37.1337 141.209C37.1493 140.998 37.1649 140.785 37.1774 140.571C37.0869 140.583 36.9949 140.596 36.9045 140.608H36.8858C36.8405 140.608 36.8171 140.59 36.8171 140.552C36.8171 140.507 36.839 140.456 36.8858 140.398V140.392C36.9684 140.272 37.0635 140.158 37.1711 140.052L37.1961 140.027C37.1992 139.849 37.2023 139.67 37.2023 139.487C37.2023 139.182 37.1945 138.875 37.1774 138.568C37.1602 138.26 37.1337 137.95 37.0963 137.641C37.0589 137.381 36.9949 137.068 36.9045 136.7V136.669C36.9045 136.591 36.9481 136.508 37.0355 136.421L37.0542 136.396C37.3427 136.073 37.6218 135.847 37.8916 135.714C37.929 135.689 37.9634 135.677 37.9961 135.677C38.0211 135.677 38.046 135.682 38.071 135.689C38.1411 135.978 38.1926 136.273 38.2269 136.569C38.2472 136.834 38.2612 137.099 38.2706 137.369L38.2768 137.443C38.2893 137.874 38.2955 138.304 38.2955 138.739V139.062C38.2955 139.157 38.294 139.263 38.2893 139.378C38.9178 139.316 39.7193 139.254 40.694 139.193V139.026C40.7065 138.815 40.7127 138.605 40.7127 138.393C40.7127 138.062 40.6971 137.66 40.6628 137.185C40.6425 136.851 40.6285 136.516 40.6191 136.181C40.6566 136.085 40.7096 136.001 40.7798 135.926C40.9373 135.749 41.1119 135.585 41.3069 135.437C41.4519 135.322 41.586 135.242 41.7092 135.201L41.7716 135.183C41.8121 135.183 41.834 135.201 41.834 135.239L41.8277 135.27C41.8324 135.588 41.8355 135.909 41.8402 136.234C41.8449 136.558 41.8465 136.973 41.8465 137.476C41.8465 137.931 41.8418 138.26 41.834 138.468C41.834 138.898 41.8387 139.327 41.8465 139.757L41.8527 139.919L41.8589 140.173L41.8652 140.527C41.8652 140.803 41.8558 141.079 41.834 141.352C41.834 141.365 41.8402 141.377 41.8527 141.39C41.8558 141.405 41.862 141.422 41.8714 141.439C41.8808 141.457 41.8839 141.477 41.8839 141.502L41.8465 141.929L41.8153 142.531C41.8106 142.696 41.795 142.858 41.7654 143.02C41.7404 143.128 41.7155 143.25 41.6905 143.387C41.6656 143.465 41.586 143.571 41.4488 143.702C41.2507 143.9 41.0652 144.04 40.8921 144.123L40.8047 144.154L40.8032 144.146Z" fill="#2B4505"/>
<path d="M46.4564 143.476C46.4283 143.476 46.3987 143.469 46.3706 143.457C46.2927 143.404 46.2365 143.332 46.2022 143.246C46.1165 143.027 46.0728 142.701 46.0728 142.267V142.051C45.9028 142.241 45.7172 142.42 45.5145 142.59C45.081 142.953 44.6568 143.182 44.2435 143.278C44.1655 143.298 44.086 143.309 44.008 143.309C43.8973 143.309 43.7882 143.288 43.6852 143.246C43.6026 143.214 43.5371 143.164 43.4872 143.097C43.4544 143.051 43.4248 143.005 43.4014 142.953C43.3063 142.772 43.2392 142.577 43.2034 142.37C43.1379 142.022 43.1051 141.675 43.1051 141.322C43.1051 140.909 43.1191 140.538 43.1488 140.208C43.1566 140.055 43.1737 139.902 43.1987 139.749L43.2111 139.682C43.2517 139.439 43.3266 139.227 43.4342 139.049C43.4872 138.934 43.5605 138.833 43.6509 138.745L43.8427 138.553C44.0611 138.351 44.3012 138.175 44.5617 138.026L44.5866 138.014C44.7394 137.928 44.8486 137.883 44.9157 137.883C44.9437 137.883 44.9671 137.891 44.9843 137.908L44.9905 137.958C44.9905 138.02 44.964 138.076 44.9094 138.125L44.9032 138.143C44.7784 138.404 44.6833 138.673 44.6178 138.956L44.6053 138.987C44.5554 139.177 44.5149 139.372 44.4806 139.57C44.3979 140.028 44.3558 140.413 44.3558 140.722C44.3558 140.983 44.401 141.257 44.493 141.547C44.5336 141.692 44.6038 141.838 44.7036 141.987C44.7363 142.049 44.7815 142.1 44.8377 142.143C44.8938 142.185 44.9546 142.219 45.0201 142.247C45.0778 142.255 45.1355 142.259 45.1932 142.259C45.2509 142.259 45.3071 142.255 45.3601 142.247C45.4927 142.094 45.6127 141.935 45.7203 141.77C45.9153 141.472 46.0572 141.227 46.1476 141.032L46.1601 140.934C46.235 140.137 46.3379 139.478 46.4705 138.957C46.5204 138.697 46.6623 138.463 46.8978 138.257C47.0709 138.1 47.258 137.964 47.456 137.849C47.5387 137.799 47.626 137.765 47.7165 137.744C47.7617 137.744 47.7835 137.758 47.7835 137.788C47.7835 137.796 47.782 137.81 47.7773 137.828C47.7726 137.847 47.7711 137.867 47.7711 137.888C47.7633 137.925 47.757 137.964 47.7523 138.006C47.7477 138.048 47.7461 138.094 47.7461 138.143C47.7414 138.173 47.7321 138.201 47.7149 138.231L47.6837 138.472L47.6713 138.591C47.6385 138.814 47.6151 139.037 47.6026 139.26C47.5652 139.793 47.5465 140.323 47.5465 140.852C47.559 141.583 47.6681 142.057 47.8755 142.27C47.8833 142.283 47.888 142.297 47.888 142.314C47.888 142.334 47.8771 142.365 47.8568 142.404C47.8366 142.443 47.8054 142.487 47.7648 142.535C47.7227 142.582 47.6931 142.616 47.6713 142.638C47.6713 142.643 47.6697 142.645 47.665 142.645C47.5371 142.785 47.3968 142.913 47.244 143.028C47.0459 143.198 46.826 143.335 46.5874 143.444C46.5469 143.469 46.5032 143.482 46.4564 143.482V143.476Z" fill="#2B4505"/>
<path d="M51.5449 143.265C51.52 143.265 51.4934 143.259 51.4638 143.247C51.4467 143.044 51.4389 142.841 51.4389 142.639C51.4389 142.506 51.442 142.372 51.4513 142.235C51.4638 142.065 51.4747 141.599 51.4825 140.835C51.4825 140.599 51.4716 140.365 51.4513 140.135C51.4389 139.841 51.3827 139.58 51.2845 139.347C51.2517 139.277 51.2034 139.221 51.141 139.177C51.0786 139.134 51.0147 139.102 50.9492 139.082C50.8837 139.074 50.8166 139.07 50.7511 139.07C50.5359 139.07 50.2926 139.126 50.0197 139.237C49.842 139.645 49.7281 140.071 49.6798 140.513C49.6299 140.839 49.5956 141.167 49.5737 141.493L49.6299 141.511L49.6361 141.828C49.6361 141.965 49.6034 142.077 49.5379 142.169L49.5316 142.182C49.4365 142.306 49.3304 142.42 49.215 142.523C48.8969 142.808 48.6053 143.006 48.3417 143.119C48.2996 143.144 48.2591 143.156 48.217 143.156C48.1874 143.156 48.1593 143.15 48.1297 143.137L48.1234 143.019C48.1234 142.957 48.1281 142.897 48.1359 142.84V142.741C48.1359 142.634 48.1484 142.559 48.1733 142.518L48.2045 142.32C48.2373 142.135 48.2731 141.951 48.309 141.769C48.3168 141.5 48.3215 141.234 48.3215 140.969L48.3152 140.436C48.3152 140.23 48.3043 139.979 48.284 139.686C48.2638 139.43 48.2513 139.173 48.2466 138.917C48.2872 138.827 48.3464 138.744 48.4197 138.669L48.5819 138.515C48.925 138.204 49.2119 138.025 49.4443 137.975L49.4568 137.969C49.4973 137.969 49.5191 137.986 49.5191 138.019L49.5129 138.056C49.5129 138.147 49.5113 138.236 49.5067 138.323V139.227C49.5145 139.223 49.5207 139.216 49.5254 139.208C49.633 139.118 49.7422 139.029 49.8544 138.942C50.0525 138.784 50.2615 138.649 50.4798 138.533L50.5172 138.515C50.6654 138.432 50.8182 138.362 50.9757 138.304C51.3734 138.169 51.6697 138.1 51.8677 138.1C51.98 138.1 52.0424 138.106 52.0533 138.119C52.2186 138.139 52.3402 138.189 52.4198 138.267L52.4323 138.273C52.49 138.326 52.5367 138.392 52.5757 138.465L52.6506 138.638C52.7208 138.848 52.7613 139.065 52.7753 139.288C52.8206 139.924 52.8424 140.694 52.8424 141.6C52.8549 141.786 52.8611 141.995 52.8611 142.227C52.8112 142.33 52.7473 142.422 52.6693 142.5L52.4962 142.667C52.2108 142.927 51.9363 143.116 51.6712 143.231C51.6291 143.256 51.5886 143.268 51.5465 143.268L51.5449 143.265Z" fill="#2B4505"/>
<path d="M59.3611 144.102H59.3361C59.3065 144.102 59.2924 144.09 59.2924 144.065L59.2987 144.034L59.2924 143.817C59.2924 143.599 59.3049 143.385 59.3299 143.179C59.3798 142.832 59.4094 142.467 59.4219 142.082C59.4219 141.793 59.4141 141.502 59.3969 141.207L59.3346 139.893C59.2924 139.096 59.1942 138.53 59.0367 138.195C58.9213 137.955 58.834 137.783 58.7763 137.681L58.77 137.631C58.77 137.57 58.8199 137.482 58.9182 137.37L58.9369 137.345C59.2301 137.007 59.5295 136.762 59.8351 136.614C59.8726 136.589 59.91 136.577 59.9459 136.577C59.9708 136.577 59.9958 136.581 60.0207 136.589L60.0332 136.614C60.1658 136.854 60.2578 137.116 60.3123 137.401C60.3747 137.719 60.4059 138.013 60.4059 138.282C60.4262 138.691 60.4496 139.288 60.4745 140.074L60.4808 140.359C60.4932 140.587 60.4995 140.816 60.4995 141.047C60.4995 141.277 60.4932 141.503 60.4808 141.734C60.4605 141.977 60.4324 142.219 60.3997 142.459C60.3825 142.579 60.37 142.701 60.3623 142.826C60.3545 142.971 60.3389 143.114 60.3186 143.259C60.2858 143.337 60.2406 143.41 60.1829 143.476C60.1533 143.501 60.1252 143.529 60.0956 143.561C60.1205 143.549 60.1455 143.536 60.1704 143.524C60.211 143.496 60.2531 143.48 60.2952 143.48C60.3201 143.48 60.3467 143.487 60.3747 143.499C60.4075 143.532 60.4808 143.583 60.5915 143.655L60.9751 143.332C61.2153 143.117 61.4648 142.911 61.7252 142.712C62.0059 142.506 62.2851 142.291 62.5627 142.068V141.987C62.5627 141.937 62.5611 141.89 62.5564 141.845C62.5518 141.8 62.5502 141.758 62.5502 141.72C62.5346 141.335 62.5252 140.948 62.5252 140.555C62.5252 140.337 62.5315 139.997 62.544 139.539C62.544 139.143 62.5564 138.814 62.5814 138.554L62.6001 138.281L62.6063 138.137C62.6141 138.027 62.6188 137.914 62.6188 137.804C62.6017 137.654 62.5424 137.529 62.4395 137.425C62.2664 137.26 61.981 137.085 61.5833 136.898C61.0344 136.613 60.5572 136.308 60.1517 135.987C60.0316 135.892 59.9038 135.803 59.7665 135.721C59.5841 135.976 59.3954 136.224 59.1973 136.464C59.032 136.655 58.848 136.825 58.6453 136.973C58.5377 137.06 58.4223 137.135 58.2975 137.196C58.2398 137.221 58.1961 137.233 58.1665 137.233C58.1244 137.233 58.1041 137.213 58.1041 137.171V137.152C58.1447 137.054 58.2008 136.966 58.271 136.892C58.6312 136.461 58.8496 136.187 58.9275 136.067V136.054C58.9275 136.009 58.9462 135.965 58.9837 135.923C59.0414 135.824 59.0944 135.725 59.1459 135.626C59.1958 135.526 59.2503 135.442 59.3127 135.371L59.3502 135.328C59.4032 135.262 59.4609 135.2 59.5233 135.142C59.648 135.014 59.7821 134.896 59.9272 134.788L59.9708 134.757C60.0613 134.692 60.1595 134.626 60.2656 134.565C60.37 134.503 60.4792 134.469 60.5915 134.461L60.6289 134.455C60.7989 134.459 60.9611 134.501 61.1155 134.586C61.2699 134.668 61.4165 134.757 61.5521 134.852L61.6208 134.902C62.0792 135.22 62.6251 135.526 63.2566 135.819C63.542 135.944 63.7588 136.087 63.9069 136.252C63.9849 136.347 64.0317 136.46 64.0442 136.588L64.0567 136.798L64.0442 137.009L64.0379 137.033L64.0317 137.202C63.9896 137.953 63.9678 138.571 63.9631 139.054V139.371C63.9631 139.813 63.9709 140.256 63.988 140.704C63.988 140.761 63.9896 140.805 63.9943 140.835C63.9974 140.863 64.0005 140.894 64.0005 140.927C64.0005 140.976 63.9943 141.025 63.9818 141.076C63.9069 141.259 63.8025 141.424 63.6652 141.572C63.3674 141.898 63.0446 142.199 62.6983 142.47C62.7061 142.467 62.7124 142.462 62.7171 142.458C62.7046 142.465 62.6937 142.473 62.6859 142.483C62.6578 142.507 62.6282 142.531 62.6001 142.551C62.6157 142.539 62.6328 142.526 62.65 142.514C62.2399 142.852 61.9124 143.106 61.6644 143.276L61.3666 143.499C61.1311 143.714 60.8239 143.973 60.4433 144.274L60.289 144.405C60.289 144.405 60.2812 144.405 60.2796 144.408L60.2702 144.417C60.1174 144.562 59.9505 144.69 59.7681 144.802L59.7369 144.821C59.5872 144.919 59.4702 144.969 59.3829 144.969C59.3049 144.957 59.2394 144.924 59.188 144.871C59.1365 144.818 59.0928 144.76 59.0554 144.698C59.0351 144.673 59.0242 144.647 59.0242 144.617C59.0242 144.567 59.0523 144.506 59.11 144.431C59.2129 144.304 59.3205 144.185 59.4328 144.078C59.4079 144.085 59.3829 144.095 59.3579 144.102H59.3611ZM62.6516 142.515C62.6672 142.503 62.6843 142.489 62.7015 142.472C62.6968 142.476 62.6937 142.481 62.689 142.484C62.6765 142.497 62.664 142.507 62.6516 142.515Z" fill="#2B4505"/>
<path d="M68.4591 143.613C68.4342 143.613 68.4076 143.607 68.378 143.594C68.2798 143.544 68.2096 143.468 68.1706 143.365C68.1316 143.262 68.102 143.137 68.0802 142.992L68.0677 142.93C68.0396 142.747 68.0162 142.556 67.9991 142.353C67.6778 142.663 67.3254 142.944 66.9449 143.197C66.9246 143.204 66.9059 143.215 66.8887 143.228C66.7811 143.298 66.6688 143.362 66.5534 143.419L66.4739 143.463C66.4037 143.501 66.3304 143.532 66.2571 143.557H66.2509C66.1355 143.602 66.0388 143.624 65.9593 143.624C65.9094 143.624 65.861 143.614 65.8111 143.593C65.6489 143.502 65.5445 143.37 65.4945 143.197C65.3667 142.779 65.2856 142.351 65.2528 141.913L65.2404 141.782C65.1827 141.266 65.1031 140.753 65.0049 140.245C64.9752 140.105 64.9581 139.944 64.9487 139.762C64.9487 139.579 65.0501 139.388 65.2528 139.186C65.3901 139.046 65.5335 138.914 65.6864 138.789C65.7815 138.716 65.8657 138.641 65.9406 138.566C66.4661 138.042 66.9511 137.691 67.3971 137.518C67.4501 137.498 67.511 137.487 67.5765 137.487C67.6186 137.487 67.6575 137.503 67.695 137.534C67.7324 137.565 67.7636 137.602 67.7885 137.648C67.879 137.78 68.0006 137.914 68.155 138.051C68.1706 138.067 68.2143 138.101 68.286 138.15L68.311 138.168C68.3188 138.173 68.325 138.176 68.3297 138.181L68.3858 138.131C68.5184 137.998 68.6962 137.863 68.9192 137.722C69.0923 137.602 69.2638 137.521 69.4338 137.481C69.4868 137.481 69.5133 137.498 69.5133 137.531L69.5071 137.574C69.4494 137.86 69.3995 138.148 69.3574 138.443C69.2919 139.026 69.2544 139.801 69.2466 140.767C69.2544 141.073 69.2841 141.377 69.3324 141.678C69.3527 141.839 69.3839 141.999 69.426 142.161C69.4587 142.344 69.5398 142.504 69.6677 142.645C69.6755 142.652 69.6802 142.663 69.6802 142.676C69.6802 142.693 69.6724 142.716 69.6552 142.747C69.6381 142.779 69.6131 142.813 69.5773 142.85C69.5414 142.888 69.5164 142.916 69.4993 142.938L69.4868 142.944C69.3761 143.055 69.256 143.156 69.1266 143.248C68.9566 143.384 68.7694 143.496 68.562 143.582C68.5293 143.602 68.4934 143.613 68.4576 143.613H68.4591ZM67.9757 141.859V141.63C67.9757 141.477 67.9772 141.326 67.9819 141.177V141.109C67.9866 140.841 67.9882 140.343 67.9882 139.615C67.9882 139.475 67.9913 139.338 68.0006 139.205C67.8306 139.321 67.6607 139.414 67.486 139.484C67.4455 139.509 67.4033 139.522 67.3612 139.522C67.3363 139.522 67.3082 139.512 67.277 139.494C67.2458 139.475 67.1616 139.425 67.026 139.342C66.9714 139.342 66.9199 139.328 66.87 139.299L66.8513 139.286C66.7562 139.241 66.6283 139.126 66.4677 138.939C66.4302 138.889 66.3975 138.84 66.3679 138.789L66.3616 138.92C66.3694 139.015 66.3881 139.154 66.4178 139.335C66.4879 139.735 66.5441 140.136 66.5846 140.537L66.6345 141.014C66.6875 141.535 66.753 141.912 66.8263 142.147C66.8887 142.39 66.9932 142.549 67.1429 142.624L67.1616 142.631L67.2677 142.531C67.3878 142.423 67.5063 142.316 67.6232 142.205C67.7418 142.096 67.8509 141.985 67.9554 141.873C67.9632 141.865 67.9694 141.859 67.9741 141.854L67.9757 141.859Z" fill="#2B4505"/>
<path d="M77.3104 144.09C76.8395 144.09 76.4215 144.02 76.0582 143.879C75.9553 143.842 75.8679 143.783 75.7977 143.7C75.7853 143.688 75.7744 143.674 75.7666 143.656C75.6683 143.541 75.5841 143.466 75.5186 143.433C75.5139 143.433 75.5092 143.43 75.4999 143.424C75.4905 143.418 75.4796 143.413 75.4625 143.409C75.4172 143.376 75.3705 143.352 75.3205 143.34C75.3159 143.335 75.3081 143.332 75.2956 143.331C75.2831 143.329 75.2644 143.323 75.2395 143.312C75.2145 143.301 75.202 143.265 75.202 143.203C75.202 143.175 75.2098 143.136 75.227 143.084C75.2925 142.944 75.3923 142.791 75.5248 142.626C75.6699 142.415 75.8227 142.208 75.9833 142.005C76.1034 141.857 76.2827 141.65 76.5229 141.385L76.6648 141.218C76.7677 141.048 76.8987 140.908 77.0562 140.797V140.791L77.2106 140.68C77.2683 140.647 77.312 140.63 77.3416 140.63C77.3666 140.63 77.3791 140.65 77.3791 140.693C77.3791 140.705 77.365 140.744 77.3354 140.811C77.3307 140.811 77.3292 140.813 77.3292 140.817C77.2917 140.883 77.2465 140.95 77.1919 141.015L76.7085 141.634C76.7007 141.651 76.6898 141.665 76.6773 141.678C76.5447 141.881 76.4091 142.08 76.2687 142.28C76.2687 142.292 76.264 142.302 76.2562 142.311C76.2765 142.341 76.3077 142.358 76.3498 142.367L76.3935 142.38L76.5182 142.436C76.526 142.443 76.5369 142.45 76.5494 142.454C76.6024 142.479 76.6508 142.512 76.6929 142.553C76.7631 142.618 76.8021 142.66 76.8114 142.677C76.9642 142.83 77.1623 142.924 77.4071 142.956C77.6301 142.989 77.8563 143.006 78.0824 143.006C78.4255 143.006 78.7374 142.967 79.0181 142.888L79.0493 142.875C79.1444 142.685 79.2083 142.51 79.2411 142.351C79.2738 142.192 79.291 142.038 79.291 141.89L79.2847 141.742L79.2785 141.711C79.2536 141.425 79.1647 141.177 79.0118 140.967C78.8263 140.703 78.597 140.485 78.3241 140.317C78.059 140.172 77.7876 140.044 77.5054 139.932L76.7178 139.629C76.5775 139.576 76.4387 139.514 76.303 139.444C76.2905 139.439 76.2796 139.433 76.2718 139.425C76.1892 139.384 76.1112 139.335 76.0364 139.275L76.0301 139.269C75.8196 139.124 75.7135 138.881 75.7135 138.538C75.7135 138.298 75.779 138.022 75.9116 137.707C76.0442 137.394 76.2126 137.099 76.42 136.828C76.7677 136.377 77.1763 135.99 77.6473 135.669C77.8828 135.504 78.137 135.395 78.4099 135.34C78.5377 135.32 78.6672 135.306 78.7997 135.297C78.9073 135.292 79.0368 135.29 79.1912 135.29C79.3456 135.29 79.4968 135.298 79.6497 135.312C79.8025 135.326 79.9506 135.357 80.0957 135.403C80.2812 135.465 80.4325 135.572 80.5479 135.725C80.6228 135.816 80.6602 135.922 80.6602 136.042V136.06C80.6602 136.184 80.6056 136.324 80.498 136.481L80.3561 136.698H80.3623L80.3124 136.761L80.1456 136.996C80.0582 137.099 79.9694 137.197 79.8789 137.287L79.9039 137.263C79.6231 137.573 79.3237 137.855 79.0056 138.112L78.8684 138.237C78.7202 138.385 78.5518 138.51 78.3662 138.608C78.3288 138.633 78.2945 138.645 78.2617 138.645C78.2368 138.645 78.2165 138.641 78.2025 138.63C78.1884 138.619 78.1806 138.608 78.1806 138.596C78.1806 138.55 78.204 138.496 78.2493 138.433C78.2945 138.371 78.3241 138.335 78.3366 138.323C78.452 138.178 78.6376 137.997 78.8949 137.777C79.0602 137.496 79.1522 137.259 79.174 137.065C79.1865 136.957 79.1927 136.868 79.1927 136.798C79.1927 136.745 79.1881 136.703 79.1803 136.673V136.642C79.1397 136.514 79.0664 136.407 78.9635 136.319L78.8263 136.332C78.6313 136.307 78.4348 136.294 78.2368 136.294C77.8641 136.294 77.5397 136.332 77.2637 136.405L77.2574 136.411C77.2325 136.436 77.1748 136.536 77.0843 136.709C76.9346 137.019 76.8613 137.341 76.8613 137.676V137.732C76.8987 137.963 77.0375 138.147 77.2761 138.284C77.4336 138.374 77.6644 138.474 77.9701 138.582L78.8387 138.886C78.9869 138.943 79.1335 139.007 79.2785 139.077C79.514 139.176 79.7245 139.313 79.9117 139.486C80.0271 139.597 80.1362 139.717 80.2391 139.846C80.4294 140.086 80.5292 140.432 80.537 140.887V140.979C80.537 141.177 80.4996 141.38 80.4247 141.588C80.3748 141.745 80.3109 141.895 80.2329 142.04C79.8851 142.663 79.4173 143.178 78.8263 143.583C78.5003 143.826 78.1416 143.989 77.7533 144.066C77.6036 144.084 77.457 144.091 77.3136 144.091L77.3104 144.09Z" fill="#2B4505"/>
<path d="M84.8102 143.476C84.7821 143.476 84.7525 143.469 84.7244 143.457C84.6464 143.404 84.5903 143.332 84.556 143.246C84.4702 143.027 84.4266 142.701 84.4266 142.267V142.051C84.2566 142.241 84.071 142.42 83.8683 142.59C83.4347 142.953 83.0106 143.182 82.5973 143.278C82.5193 143.298 82.4398 143.309 82.3618 143.309C82.2511 143.309 82.1419 143.288 82.039 143.246C81.9563 143.214 81.8908 143.164 81.8409 143.097C81.8082 143.051 81.7786 143.005 81.7552 142.953C81.66 142.772 81.593 142.577 81.5571 142.37C81.4916 142.022 81.4589 141.675 81.4589 141.322C81.4589 140.909 81.4729 140.538 81.5025 140.208C81.5103 140.055 81.5275 139.902 81.5524 139.749L81.5649 139.682C81.6055 139.439 81.6803 139.227 81.7879 139.049C81.8409 138.934 81.9142 138.833 82.0047 138.745L82.1965 138.553C82.4148 138.351 82.655 138.175 82.9154 138.026L82.9404 138.014C83.0932 137.928 83.2024 137.883 83.2694 137.883C83.2975 137.883 83.3209 137.891 83.338 137.908L83.3443 137.958C83.3443 138.02 83.3178 138.076 83.2632 138.125L83.2569 138.143C83.1322 138.404 83.0371 138.673 82.9716 138.956L82.9591 138.987C82.9092 139.177 82.8686 139.372 82.8343 139.57C82.7517 140.028 82.7096 140.413 82.7096 140.722C82.7096 140.983 82.7548 141.257 82.8468 141.547C82.8873 141.692 82.9575 141.838 83.0573 141.987C83.0901 142.049 83.1353 142.1 83.1914 142.143C83.2476 142.185 83.3084 142.219 83.3739 142.247C83.4316 142.255 83.4893 142.259 83.547 142.259C83.6047 142.259 83.6608 142.255 83.7139 142.247C83.8464 142.094 83.9665 141.935 84.0741 141.77C84.269 141.472 84.411 141.227 84.5014 141.032L84.5139 140.934C84.5887 140.137 84.6917 139.478 84.8242 138.957C84.8741 138.697 85.016 138.463 85.2515 138.257C85.4246 138.1 85.6118 137.964 85.8098 137.849C85.8925 137.799 85.9798 137.765 86.0702 137.744C86.1155 137.744 86.1373 137.758 86.1373 137.788C86.1373 137.796 86.1357 137.81 86.1311 137.828C86.1264 137.847 86.1248 137.867 86.1248 137.888C86.117 137.925 86.1108 137.964 86.1061 138.006C86.1014 138.048 86.0999 138.094 86.0999 138.143C86.0952 138.173 86.0858 138.201 86.0687 138.231L86.0375 138.472L86.025 138.591C85.9923 138.814 85.9689 139.037 85.9564 139.26C85.919 139.793 85.9003 140.323 85.9003 140.852C85.9127 141.583 86.0219 142.057 86.2293 142.27C86.2371 142.283 86.2418 142.297 86.2418 142.314C86.2418 142.334 86.2309 142.365 86.2106 142.404C86.1903 142.443 86.1591 142.487 86.1186 142.535C86.0765 142.582 86.0468 142.616 86.025 142.638C86.025 142.643 86.0235 142.645 86.0188 142.645C85.8909 142.785 85.7506 142.913 85.5977 143.028C85.3997 143.198 85.1798 143.335 84.9412 143.444C84.9006 143.469 84.857 143.482 84.8102 143.482V143.476Z" fill="#2B4505"/>
<path d="M15.4556 113.341C16.6283 113.792 17.3675 114.211 17.6716 114.599L17.3971 115.432H17.4892C18.7726 115.161 20.2447 114.827 21.9056 114.433C22.4171 114.688 22.7867 115.111 23.0144 115.699V116.065C23.0144 116.743 22.7399 117.086 22.1894 117.099H22.0974C21.1976 116.993 20.7064 116.94 20.6221 116.94L20.0639 116.947C19.1578 116.965 17.7168 117.451 15.7379 118.405L15.3636 118.231C15.3636 118.319 15.0891 118.569 14.5386 118.98C14.5386 118.859 14.509 118.796 14.4466 118.796C14.325 118.857 14.233 118.892 14.1721 118.896V118.796L14.2642 118.612H14.1721C13.8992 118.801 13.684 118.899 13.5218 118.904C13.5218 118.871 13.6435 118.715 13.8883 118.438C13.277 118.687 12.9713 119.49 12.9713 120.845C12.8326 122.384 12.6158 123.156 12.321 123.162C12.0263 123.168 11.0126 123.371 9.28006 123.77C8.74204 123.775 8.34438 123.29 8.08862 122.312C8.22118 122.312 8.34438 122.28 8.4551 122.212C7.71591 120.519 7.34631 119.453 7.34631 119.013C7.34631 118.352 7.96075 117.941 9.18806 117.78C9.18806 117.869 9.28007 117.961 9.46252 118.054C10.3015 118.037 10.9783 117.719 11.4961 117.097C11.7019 117.092 12.346 117.356 13.4298 117.889C13.9632 117.122 14.272 116.381 14.3546 115.664C14.2829 115.664 14.1269 115.423 13.8883 114.939C14.0599 114.935 14.5215 114.434 15.2716 113.439L15.454 113.34L15.4556 113.341ZM9.74791 119.799C9.86955 120.499 9.93193 120.99 9.93193 121.274V121.64L10.9393 121.623C10.9393 121.584 10.9097 121.185 10.8473 120.424L10.9393 119.783L10.7569 119.691L10.2064 119.699L9.74791 119.799ZM21.9056 123.821H22.0054V124.005H22.0974C22.3422 124.688 22.4639 125.086 22.4639 125.197H22.5559V124.922C22.4951 124.801 22.4639 124.709 22.4639 124.648C23.069 125.66 23.713 126.414 24.3976 126.913C24.3976 127.986 23.6616 128.644 22.1894 128.887C21.3941 128.898 19.9204 128.954 17.7636 129.054C15.1187 128.998 13.7963 128.655 13.7963 128.02C13.6747 127.743 13.6139 127.345 13.6139 126.829C13.6139 125.962 14.0443 125.279 14.9051 124.78C14.9051 124.702 16.1324 123.605 18.5886 121.489L19.0549 120.931H18.9629C18.7133 120.936 17.2677 121.453 14.6291 122.481H14.5371C14.2423 122.487 13.7823 122.064 13.1538 121.215V120.848C13.1538 120.382 13.7682 119.878 14.9955 119.341C14.9955 119.462 15.0876 119.525 15.27 119.525L15.086 119.799H15.27C17.2537 119.333 18.9426 118.871 20.3368 118.416C21.9976 118.994 22.8288 119.564 22.8288 120.123C22.8288 120.457 21.9368 121.332 20.1543 122.747C18.166 124.186 16.8155 125.317 16.1043 126.138C16.6548 126.806 17.2381 127.133 17.8541 127.122L18.771 127.105C20.9262 126.949 22.0038 126.594 22.0038 126.039C22.0038 125.644 21.7871 124.88 21.3535 123.748C21.5594 123.744 21.7762 124.168 22.0038 125.022H22.0958V124.656C22.0958 124.606 22.0662 124.42 22.0038 124.097V124.005L21.904 124.013V123.821H21.9056ZM14.9051 125.055V125.329H15.0891V125.229C15.0891 125.108 15.0283 125.048 14.9051 125.055ZM14.9971 125.421V125.696H15.0891V125.421H14.9971ZM14.9971 125.789V126.431H15.1796V125.789H14.9971ZM15.2731 126.247C15.334 126.481 15.3651 126.725 15.3651 126.98L15.5492 126.888C15.6661 127.227 16.0045 127.527 16.5659 127.788H16.658V127.696C15.7971 127.219 15.3667 126.735 15.3667 126.246H15.2747L15.2731 126.247ZM18.7726 128.121V128.213L21.0806 128.171L21.1726 127.98C20.6939 128.051 19.8939 128.1 18.7726 128.121ZM20.2479 128.279V128.371L21.3567 128.346V128.254L20.2479 128.279Z" fill="#2B4505"/>
<path d="M42.4672 110.991C43.5557 111.197 44.1 111.671 44.1 112.416C44.1 112.588 43.9159 112.895 43.5495 113.333V113.417H43.6415C44.5085 113.223 45.0216 113.123 45.1822 113.118C46.2708 113.417 46.815 113.954 46.815 114.726C46.815 115.371 46.6045 115.737 46.1819 115.825C45.7483 115.77 45.5066 115.742 45.4567 115.742L44.0984 116.041C44.0984 115.896 44.3089 115.742 44.7315 115.575V115.483C44.7315 115.362 44.6707 115.302 44.5475 115.309C44.5085 115.309 44.1748 115.525 43.5479 115.959H43.4559L44.1811 115.226C43.3982 115.337 43.0068 115.553 43.0068 115.876C42.5951 116.455 42.2613 116.854 42.0071 117.075C42.9912 116.936 43.9877 116.766 44.9982 116.567C45.9651 116.55 46.631 117.325 46.9975 118.891V118.983C46.6138 119.928 46.0399 120.572 45.2727 120.917C45.1666 120.917 44.9857 120.981 44.7315 121.108C44.415 121.054 44.1124 121.029 43.8239 121.034L44.1826 120.667V120.575H44.1C43.5276 120.764 43.2251 120.862 43.1908 120.867L43.7319 120.217H43.6399C43.6399 120.483 42.7042 120.803 40.8313 121.176V121.268L41.098 121.26C41.2149 121.199 41.3069 121.168 41.3724 121.168C41.3724 121.467 41.675 121.796 42.28 122.15C42.28 122.256 42.188 122.527 42.0056 122.967H42.0976L43.8224 122.484H43.9144C44.5304 122.473 45.045 122.978 45.4551 124.001C45.4551 124.256 45.2742 124.531 44.914 124.825C44.3089 124.776 43.852 124.754 43.5479 124.758L42.4641 124.776L41.8216 124.875V125.426L41.9136 125.6C43.969 125.306 44.9967 125.106 44.9967 125C45.9355 125.167 46.6029 125.429 46.9959 125.783V125.967C46.8244 127.116 46.2489 127.699 45.2711 127.716L45.1791 127.724C43.8458 127.502 42.7884 127.399 42.004 127.415H41.912V128.232C41.912 128.581 41.9416 129.065 42.004 129.682C42.004 130.044 41.5206 130.564 40.5537 131.249C39.9486 130.605 39.6461 130.097 39.6461 129.724L39.7381 129.083C39.6773 129.083 39.6461 129.055 39.6461 129.001C39.7631 128.934 39.8535 128.901 39.9206 128.901V127.635H39.8285C38.818 127.817 37.5174 128.235 35.9283 128.884H35.5618C34.8959 128.895 34.1708 128.425 33.3863 127.476C33.3863 126.999 34.0803 126.531 35.4698 126.076C35.1704 125.61 35.0191 125.037 35.0191 124.359V124.267C35.0191 124.234 35.2905 123.99 35.8363 123.534V123.626L35.6523 123.901L35.7443 123.893C35.7443 123.804 35.8659 123.712 36.1108 123.619V123.803L36.6519 123.428V123.611L36.4679 123.977H36.5599C36.5599 123.932 36.8936 123.383 37.5595 122.328V122.236C37.3381 122.357 37.0963 122.423 36.8344 122.427L36.4679 122.435C35.9844 122.368 35.7427 122.191 35.7427 121.902H35.6507C35.1891 122.214 34.8569 122.371 34.6511 122.378C34.3953 122.378 34.0928 121.685 33.7419 120.302C33.4425 119.747 33.2928 119.297 33.2928 118.954C33.3255 118.626 33.6904 118.226 34.3844 117.753C33.4737 117.176 33.0183 116.579 33.0183 115.962V115.879C33.0682 115.691 33.5548 115.379 34.4764 114.945L34.5591 114.938L34.4764 115.122C34.531 115.305 34.5903 115.396 34.6511 115.396C35.2406 115.201 35.6039 115.104 35.7427 115.104V114.646C35.7427 114.03 35.501 113.491 35.0176 113.029C35.317 113.025 35.4682 112.961 35.4682 112.837L35.2936 112.845V112.753L35.6523 112.745L35.5603 112.563V112.479C35.8659 112.474 36.0187 112.41 36.0187 112.287C35.9579 112.287 35.9267 112.256 35.9267 112.195C36.0609 112.195 36.1794 112.162 36.2854 112.095C37.2741 112.078 37.9104 112.735 38.1927 114.061V114.336L38.9178 114.136C39.2172 114.253 39.3685 114.342 39.3685 114.403C39.4901 114.342 39.5821 114.311 39.643 114.311L40.0094 114.393L40.1015 114.386V114.303L39.551 114.036V113.944H39.735C39.8519 113.999 39.9439 114.027 40.0094 114.027L39.8254 113.76L41.3678 113.735C41.4894 113.731 41.5502 113.665 41.5502 113.544V113.095C41.5502 112.622 41.2789 112.175 40.7346 111.754C41.6906 111.249 42.2645 110.996 42.4594 110.996L42.4672 110.991ZM35.384 117.549V117.731C35.4059 117.853 35.4683 117.915 35.5681 117.915L36.4757 117.898C36.0531 117.636 35.8425 117.46 35.8425 117.365C35.6429 117.487 35.4901 117.549 35.384 117.549ZM35.5665 119.181V119.273C35.7505 120.056 35.933 120.446 36.117 120.44C37.9275 120.123 38.8336 119.896 38.8336 119.757C38.7276 119.761 38.425 119.587 37.9244 119.231C37.0636 119.364 36.4601 119.434 36.117 119.439L35.933 119.446L35.5665 119.18V119.181ZM36.5677 126.238L36.6597 126.23C37.0433 126.225 38.1318 126.085 39.9268 125.814V124.997C38.0648 125.331 36.9451 125.744 36.5677 126.238ZM39.6508 115.299C39.6508 115.521 39.3779 115.861 38.8336 116.316H38.7416C38.7416 116.133 38.712 116.041 38.6496 116.041C38.0835 116.052 37.7529 116.571 37.6578 117.599C37.5361 117.621 37.4753 117.685 37.4753 117.791C38.358 117.774 39.2952 117.214 40.2839 116.108V115.926C40.0219 115.931 39.8426 115.723 39.7428 115.301H39.6508V115.299ZM38.5591 123.572H38.6511C39.5011 123.433 39.9268 123.302 39.9268 123.181C39.7428 122.886 39.6523 122.677 39.6523 122.555H39.5603C39.4777 122.555 39.1439 122.894 38.5607 123.572H38.5591ZM39.7412 117.29V117.382H39.9252V117.29H39.7412ZM40.6504 118.731V118.823C41.0122 118.812 41.1915 118.99 41.1915 119.356L41.65 119.348C42.1724 119.337 42.7744 119.476 43.4575 119.765C43.6415 119.376 43.7319 119.072 43.7319 118.856C43.6711 118.739 43.6399 118.65 43.6399 118.589L42.9148 118.597C42.4032 118.608 41.6485 118.653 40.6488 118.731H40.6504ZM40.8344 127.887C40.8344 128.51 40.8032 128.993 40.7424 129.337L41.0091 129.33V128.513L40.9264 127.88L40.8344 127.887ZM41.1915 128.697C41.1915 128.946 41.1619 129.188 41.0995 129.422V129.514H41.1915C41.2524 129.297 41.2835 129.175 41.2835 129.147V128.698H41.1915V128.697ZM42.6418 115.608L42.5498 115.79H42.6418L42.7339 115.608H42.6418Z" fill="#2B4505"/>
<path d="M68.2205 112.883C69.1921 113.11 69.6787 113.502 69.6787 114.057V114.231C69.6787 114.448 69.5367 114.705 69.2529 115.006V115.091C69.5414 114.974 69.7691 114.913 69.936 114.907C71.0198 115.218 71.5609 115.778 71.5609 116.589C71.5609 117.105 71.3333 117.396 70.8779 117.463H70.711L70.1948 117.389C69.7286 117.566 69.3278 117.658 68.994 117.663L69.5944 117.138V117.055H69.5118C69.1063 117.06 68.534 117.585 67.7948 118.63C67.6451 118.63 67.3316 118.864 66.8529 119.33C69.5586 121.686 71.8136 123.159 73.6195 123.754V123.837L72.7617 123.854V123.938C73.1953 124.043 73.4526 124.096 73.5368 124.096V124.179L71.9118 124.213V124.295L72.5122 124.37V124.453L71.3956 124.478V124.561C71.8011 124.61 72.0288 124.635 72.0787 124.635V124.718C71.5734 124.729 71.2319 124.765 71.0541 124.827V124.91L71.7372 124.893V124.985C71.5485 124.985 71.0619 125.194 70.2791 125.61H70.1964C70.0966 125.61 69.9516 125.554 69.7629 125.443C69.3293 127.736 68.9878 128.887 68.7383 128.892L68.1379 128.9C67.5874 128.739 67.1601 128.661 66.8544 128.667C66.5659 128.672 66.2213 128.736 65.8205 128.859L65.9125 128.684H65.8205C64.3874 129.107 63.5312 129.32 63.2536 129.325C63.1148 129.325 62.8871 129.016 62.5706 128.401C62.4598 128.344 62.3741 128.316 62.3117 128.316V128.234L62.8201 128.226C62.8201 128.109 62.6205 127.998 62.2197 127.892V127.8L62.7359 127.793C62.7359 127.665 62.594 127.582 62.3101 127.543V127.459L62.8185 127.451C62.3632 126.157 62.1355 125.418 62.1355 125.236V125.069H62.0513L61.2762 125.594C61.2762 125.423 61.2201 125.339 61.1093 125.345V125.427C61.1639 126.227 61.192 126.91 61.192 127.476C61.192 128.243 60.5916 128.881 59.3923 129.392L59.2177 129.4C58.884 129.405 58.5424 129.012 58.1931 128.217C58.1323 128.217 57.9046 127.964 57.5101 127.459C57.5646 127.459 57.5927 127.429 57.5927 127.367C57.1701 127.167 56.9424 127.001 56.9097 126.866L57.3338 126.859V126.776C57.1561 126.781 56.9564 126.615 56.7334 126.276L56.8176 126.268C57.5787 126.656 58.1229 126.848 58.4504 126.843L58.7919 126.835L58.9666 125.377H58.8746C58.9354 125.267 58.9666 125.181 58.9666 125.119C58.9058 124.401 58.8746 123.974 58.8746 123.836C57.652 125.285 56.9097 126.014 56.6492 126.018H56.3904C56.0286 126.029 55.5436 125.669 54.9322 124.935V124.852L55.5326 124.752V124.67L54.6749 124.595V124.512L55.1911 124.42V124.328L54.8496 124.336C55.5545 123.892 56.4106 123.22 57.4165 122.32C58.0668 121.626 58.5253 121.275 58.7919 121.271V120.929H58.7077C57.7409 121.69 57.1108 122.074 56.8161 122.078C56.1486 122.089 55.6933 121.411 55.45 120.045C55.45 119.79 56.0504 119.437 57.2496 118.987C57.2496 119.065 57.1639 119.15 56.9908 119.246L57.075 119.412L56.9908 119.587C57.8906 119.099 58.4317 118.745 58.6157 118.528C58.505 116.929 58.4489 115.959 58.4489 115.621C58.3319 115.621 58.2742 115.564 58.2742 115.454L58.1073 115.536L58.0153 115.544V115.37L57.7658 115.544V115.377C58.4161 114.394 58.8995 113.899 59.2161 113.895L59.475 113.887C60.4466 113.87 60.9331 114.09 60.9331 114.545C61.0501 114.545 61.1078 114.631 61.1078 114.804L61.3666 114.796C61.4774 114.796 61.5335 114.738 61.5335 114.621C61.4774 114.627 61.4493 114.599 61.4493 114.539H61.7082V114.454L61.6162 114.28L62.0497 114.272V114.189L61.967 114.023C62.006 114.018 62.176 113.984 62.4754 113.923C63.2583 113.912 63.8306 114.503 64.1924 115.697C64.587 115.63 64.8458 115.566 64.9675 115.505C65.0065 115.505 65.1764 115.533 65.4759 115.589C66.6751 115.533 67.2755 115.409 67.2755 115.214C67.2755 115.086 67.3036 114.969 67.3582 114.864C67.1476 114.125 66.8919 113.759 66.5925 113.765V113.598C67.4034 113.126 67.9445 112.887 68.2174 112.883H68.2205ZM60.3358 125.438C60.3358 125.483 60.3078 125.655 60.2532 125.954C60.3639 125.954 60.42 125.897 60.42 125.78V125.438H60.3358ZM60.42 123.472C60.42 124.027 60.392 124.314 60.3358 124.33H60.42L60.512 124.155V123.472H60.42ZM60.3358 125.014V125.189L60.42 125.181V125.014H60.3358ZM60.5947 125.356V126.205H60.6774V125.348L60.5947 125.356ZM61.2778 115.058L61.3698 115.232C61.0251 115.427 60.8536 115.83 60.8536 116.441V117.206H60.9362C61.5647 117.139 61.8782 117.021 61.8782 116.848C61.8782 115.881 61.7082 115.284 61.3698 115.056H61.2778V115.058ZM60.8536 119.44C60.9082 119.863 60.9643 121.26 61.0204 123.631C62.3366 122.387 63.2224 120.859 63.6793 119.049H63.5967C63.5967 119.221 63.3378 119.369 62.8216 119.49C62.1932 119.213 61.8797 118.96 61.8797 118.733V118.566C61.5959 118.572 61.3963 118.775 61.2793 119.174L60.8536 119.44ZM67.1944 123.014C65.8049 123.036 64.6338 123.17 63.6778 123.415H63.5109C63.5109 123.532 63.3971 123.706 63.1694 123.94L63.7698 123.932C63.8088 124.216 63.8914 124.355 64.0193 124.348C66.5925 124.127 67.8775 123.818 67.8775 123.424C67.6498 123.14 67.5359 122.973 67.5359 122.923C67.3363 122.98 67.2225 123.009 67.1944 123.015V123.014ZM63.9367 117.674V117.757L64.3702 117.49C64.5527 117.49 65.0361 117.682 65.8205 118.065L66.0794 117.716C65.3402 117.733 64.9706 117.569 64.9706 117.225C64.2813 117.392 63.9367 117.541 63.9367 117.676V117.674ZM64.3702 126.146L64.5371 127.17C66.5363 126.96 67.5375 126.826 67.5375 126.771C67.5921 126.6 67.6201 126.285 67.6201 125.83L67.1118 125.755C65.7956 125.833 64.8801 125.964 64.3702 126.146ZM64.7944 120.823H64.8786C65.1063 120.496 65.2201 120.265 65.2201 120.133H65.1359C65.047 120.137 64.9332 120.37 64.7944 120.823ZM65.3948 120.473C65.2232 120.861 65.1359 121.092 65.1359 121.165L65.4774 121.157L65.911 121.065C65.8158 120.805 65.6443 120.607 65.3948 120.474V120.473ZM66.5956 119.082V119.249H66.6782V119.082H66.5956ZM68.311 117.34V117.423H68.3936L68.4763 117.074C68.3656 117.078 68.3094 117.169 68.3094 117.34H68.311ZM68.9956 117.665V117.757H68.8209V117.674L68.9956 117.666V117.665Z" fill="#2B4505"/>
<path d="M88.3393 111.116C88.4173 111.112 88.7697 111.455 89.3982 112.15L89.7818 112.242V112.625L89.3077 113.301C89.7802 113.168 90.0984 113.098 90.2652 113.093C90.8765 113.332 91.3241 113.645 91.6064 114.035C91.6064 114.551 90.7752 114.949 89.1143 115.226C89.0473 115.343 89.0145 115.471 89.0145 115.61H89.1143C89.7756 115.538 90.1592 115.499 90.2637 115.493C90.9919 115.748 91.5658 116.09 91.9885 116.517C91.9885 116.838 91.8606 117.003 91.6048 117.008V117.1C91.7499 117.1 91.8762 117.131 91.9885 117.192V117.1C91.9276 117.1 91.8964 117.067 91.8964 117H92.1803C93.2532 116.978 94.4992 117.37 95.9215 118.174V118.566C95.9215 119.266 95.3164 119.627 94.1047 119.649L93.7132 119.657V119.557H94.1047V119.457H93.9129C92.4407 119.613 91.6064 119.694 91.413 119.699V119.791L91.7966 119.783C91.8902 119.783 92.3378 119.744 93.1378 119.666L93.7132 119.659V119.751C91.7187 119.917 90.6333 120 90.4555 120V120.1L91.413 120.175H91.7046C91.8933 120.63 91.9885 120.917 91.9885 121.032V121.508C91.9604 121.629 91.4161 121.991 90.3557 122.591L88.5311 124.348L89.0145 124.249L89.59 124.241L90.2652 124.323L89.6898 123.658H89.7818L90.2652 123.75C90.2652 123.622 90.1685 123.558 89.9736 123.558V123.466L90.3572 123.458V123.366C90.1685 123.366 90.0734 123.302 90.0734 123.174H90.1654L90.7409 123.257V123.065C90.5522 123.071 90.457 123.011 90.457 122.883L90.6489 122.875C91.5877 122.858 92.3877 123.422 93.0489 124.567C93.3655 124.816 93.5245 125.1 93.5245 125.416V125.516C93.4403 126.155 93.091 126.48 92.475 126.491C91.8465 126.341 91.3023 125.901 90.8422 125.175V125.274C90.9031 125.274 90.9342 125.306 90.9342 125.366C90.6005 125.371 90.1873 125.444 89.6929 125.583V125.675C89.8816 125.853 89.9767 126.074 89.9767 126.341C89.721 126.413 89.5931 126.608 89.5931 126.924V129.423C89.5931 129.484 89.6258 129.515 89.6929 129.515C89.2984 130.61 88.6262 131.165 87.6765 131.182H87.5767C86.7876 130.326 86.1482 129.857 85.6601 129.774V129.682L86.0437 129.674V129.582C85.9268 129.582 85.5743 129.525 84.9848 129.408C84.9848 129.98 84.6324 130.275 83.926 130.29C83.5096 130.296 83.1259 129.727 82.7766 128.583C82.7766 128.455 83.0963 128.131 83.7357 127.608C83.7357 127.569 83.9306 127.342 84.3189 126.926C84.0024 126.781 83.6796 126.498 83.3521 126.076V125.984C83.363 125.889 84.1973 125.554 85.8519 124.975C86.602 124.342 86.9857 123.984 87.0012 123.901H86.9092C85.9767 124.302 85.3981 124.504 85.1767 124.509C84.8492 124.514 84.4016 124.235 83.8355 123.667H83.7357C83.7357 123.606 83.7685 123.575 83.8355 123.575L83.7357 123.383C83.7357 122.9 84.28 122.442 85.3685 122.008C85.4963 122.069 85.593 122.1 85.6601 122.1C86.1716 121.534 86.4274 121.115 86.4274 120.842V120.742C86.2324 120.748 86.0079 120.72 85.7521 120.66C84.2581 121.071 83.2663 121.375 82.7766 121.576V121.768C83.5096 121.434 84.3096 121.165 85.1767 120.96H85.2765V120.861H85.5603V120.953L85.2765 120.96V121.052C85.1595 121.059 84.2316 121.364 82.4928 121.969C81.3372 121.763 80.7602 121.389 80.7602 120.845C80.7602 120.7 80.729 120.574 80.6682 120.462C82.2838 119.267 83.5657 118.446 84.5092 117.995C84.3813 117.806 84.2503 117.426 84.1178 116.854L84.6012 116.936H84.793V116.844L84.2176 116.66V116.561H84.5092L84.701 116.653V116.553C84.5731 116.558 84.5092 116.498 84.5092 116.369L85.1767 116.352C85.6928 116.347 86.2714 116.274 86.9092 116.135V115.843L86.8094 115.652C85.9143 115.923 85.4683 116.093 85.4683 116.16C84.9349 116.165 84.3907 115.758 83.8355 114.935V114.743C83.8355 114.298 84.411 113.873 85.5603 113.467V113.368C85.6882 113.428 85.7849 113.46 85.8519 113.46L85.7521 113.651C85.8192 113.651 85.8519 113.684 85.8519 113.751C85.7849 113.751 85.7521 113.784 85.7521 113.851L85.9439 113.843L86.6192 113.736C86.6192 113.341 86.3307 113.057 85.7521 112.886V112.694C86.3853 111.727 86.7377 111.241 86.811 111.236L88.252 111.211C88.3128 111.211 88.344 111.182 88.344 111.119L88.3393 111.116ZM83.1556 119.074H83.2554C84.0881 118.608 84.5997 118.374 84.7883 118.374C84.7883 118.246 84.6932 118.182 84.5045 118.182C83.7887 118.566 83.338 118.862 83.154 119.074H83.1556ZM83.1556 119.548C85.1564 119.004 86.3728 118.728 86.8063 118.723C86.8063 118.623 86.6784 118.496 86.4227 118.34L86.3229 118.347C86.0609 118.347 85.8067 118.383 85.5556 118.457L84.9802 118.365C83.7809 118.93 83.1727 119.325 83.1556 119.548ZM85.0815 127.097V127.389C85.3373 127.705 85.4652 127.894 85.4652 127.955C85.3373 128.371 85.2733 128.659 85.2733 128.821L87.0979 128.98C87.4925 128.846 87.7139 128.683 87.7638 128.489V127.632C87.7248 126.611 87.533 126.101 87.1884 126.107H87.0964C86.0406 126.762 85.3685 127.094 85.08 127.099L85.0815 127.097ZM85.0815 129.113V129.305L85.4652 129.297L85.9392 129.389C85.9392 129.233 85.6539 129.143 85.0815 129.115V129.113ZM85.5556 120.756L85.9392 120.748V120.848L85.5556 120.856V120.756ZM86.0391 120.557V120.656L86.2309 120.649V120.557H86.0391ZM86.4227 125.922V126.021L86.7143 126.014C86.825 125.946 86.9529 125.914 87.0979 125.914V125.814H86.9981L86.4227 125.923V125.922ZM87.9556 117.841V118.506C88.0835 118.439 88.1802 118.407 88.2473 118.407V118.315L88.1475 117.831L87.9556 117.839V117.841ZM88.4391 120.323C88.7557 120.578 88.9147 120.736 88.9147 120.797V121.08C88.2753 121.264 87.9572 121.559 87.9572 121.963H88.057L88.6325 121.855C88.6325 121.916 88.6621 121.947 88.7245 121.947C89.4964 121.042 89.8832 120.429 89.8832 120.106L88.4406 120.323H88.4391ZM88.5311 117.824V118.399H88.6309V117.824H88.5311ZM88.5311 126.938V128.38H88.6309L88.7229 127.897V127.421L88.6309 126.938H88.5311ZM88.8227 127.897V128.572L88.9147 128.564V127.898H88.8227V127.897ZM89.0145 117.532V118.297C90.1919 118.148 91.2477 118.064 92.1818 118.048H92.2816C91.8824 117.61 91.4005 117.393 90.8407 117.398V117.306L91.2243 117.298L91.6079 117.39H91.7077V117.29C91.4801 117.23 91.3491 117.198 91.3163 117.198L89.0161 117.532H89.0145ZM92.0898 126.689L93.0473 126.671C93.8084 126.661 94.2887 126.908 94.4883 127.414C94.4883 127.524 94.5522 127.683 94.6801 127.889C94.3916 128.984 93.9097 129.536 93.2392 129.546C92.6668 129.141 92.0259 128.927 91.3148 128.904V128.812L92.2816 128.695V128.411L90.9311 128.436V128.337L92.0898 128.22V128.128L91.7062 128.036V127.936L92.1818 127.928V127.836C91.9931 127.841 91.898 127.78 91.898 127.652L92.0898 127.644V127.552C91.767 127.507 91.6064 127.414 91.6064 127.269L92.1818 127.159V126.876L92.0898 126.684V126.689ZM92.1818 119.007V119.107L92.7573 119.099L93.2407 118.991V118.899H93.0489C92.7043 118.971 92.4157 119.008 92.1818 119.008V119.007ZM92.5639 119.199V119.291L93.431 119.274C93.5526 119.206 93.6477 119.174 93.7148 119.174V119.082H93.6228C93.2735 119.153 92.9195 119.192 92.5639 119.199Z" fill="#2B4505"/>
<path d="M97.8493 51.2705C96.2871 50.9269 94.7316 51.9197 94.3946 53.486C93.1851 59.0169 90.2572 64.0392 86.1197 67.841V44.3986H97.3181C98.1952 44.3986 99.0164 44.0059 99.5676 43.3343C100.119 42.6561 100.338 41.7725 100.163 40.9203C98.1349 30.9337 91.5337 22.3595 82.4263 17.8013C76.5503 7.16106 65.4634 0.594849 53.2585 0.594849C41.0535 0.594849 29.3641 7.51804 23.6243 18.6714C23.4123 19.082 23.3007 19.5371 23.3007 20.0012V70.1681C16.0076 65.0834 11.4907 56.6497 11.4907 47.5869C11.4907 41.2348 13.5907 35.2733 17.5698 30.3425C18.5763 29.093 18.3821 27.2657 17.1346 26.2595C15.8871 25.2533 14.0571 25.4474 13.0507 26.6946C8.29723 32.587 5.68396 40.0055 5.68396 47.5869C5.68396 60.5051 13.2582 72.3702 24.9789 77.803C25.3717 77.986 25.7867 78.073 26.2041 78.073C26.7508 78.073 27.2931 77.919 27.7662 77.6178C28.6031 77.0846 29.1075 76.1609 29.1075 75.1703V51.6007H41.9998V86.3661C39.411 85.2059 37.0008 83.6419 34.8562 81.712C33.6667 80.6432 31.8256 80.7347 30.7567 81.9306C29.6832 83.1198 29.7792 84.9538 30.9687 86.0292C37.0901 91.5445 45.008 94.5789 53.2562 94.5789C60.835 94.5789 68.2485 91.9707 74.1401 87.2251C74.4838 86.9484 74.7494 86.6115 74.9234 86.2434C75.2626 85.7682 75.4657 85.1836 75.4657 84.55V29.0752C75.4657 28.272 75.1421 27.5469 74.6132 27.0181C74.0865 26.496 73.359 26.1703 72.5601 26.1703C70.9578 26.1703 69.6567 27.4665 69.6567 29.073V83.3608C66.7578 85.5183 63.5308 87.0533 60.094 87.9234V7.25923C67.6147 9.1713 74.062 14.207 77.7309 21.3287C78.0254 21.9044 78.5052 22.364 79.0899 22.6362C85.8898 25.791 91.0963 31.612 93.5176 38.5932H83.214C81.6072 38.5932 80.3106 39.8939 80.3106 41.4959V73.6375C80.3106 74.6817 80.8775 75.6455 81.7925 76.1587C82.703 76.6718 83.821 76.6562 84.7159 76.1163C92.5312 71.4042 98.126 63.6041 100.068 54.7242C100.411 53.1558 99.4181 51.614 97.8515 51.2705H97.8493ZM41.9998 45.7997H29.1075V20.7263C32.051 15.3404 36.6036 11.2039 41.9998 8.79871V45.7997ZM54.2873 88.7556C53.9436 88.769 53.5999 88.7757 53.2562 88.7757C51.4129 88.7757 49.5874 88.5928 47.8065 88.2336V6.94018C49.5785 6.58766 51.4017 6.40247 53.2562 6.40247C53.5999 6.40247 53.9436 6.40694 54.2873 6.42255V88.7556Z" fill="#2B4505"/>
<path d="M14.8046 5.50549C14.8046 5.50549 14.751 18.0734 18.8595 19.9922C19.4107 21.5049 21.6893 16.0967 14.8046 5.50549Z" fill="#2B4505"/>
<path d="M18.5628 21.8616C18.5628 21.8616 12.3967 24.3404 0.555542 14.3851C13.6576 16.2236 17.8598 19.2445 18.5628 21.8616Z" fill="#2B4505"/>
</svg>
