<svg width="240" height="80" viewBox="0 0 240 80" fill="none" xmlns="http://www.w3.org/2000/svg">
<path d="M120.442 62.7695C120.046 62.7502 119.687 62.6249 119.369 62.396C118.487 61.6683 117.937 60.6659 117.72 59.3888C117.651 58.9551 117.607 58.5165 117.588 58.0756C117.549 57.5382 117.53 57.037 117.53 56.572C117.53 56.1575 117.547 55.7431 117.578 55.3262C117.622 54.866 117.699 54.4106 117.807 53.9576C117.896 53.5166 118.024 53.0901 118.19 52.6733C118.422 52.1166 118.733 51.6227 119.13 51.1889C119.494 50.7552 119.904 50.3721 120.357 50.0396C120.733 49.7456 121.148 49.5311 121.603 49.3986C121.82 49.3528 122.064 49.3311 122.331 49.3311C122.548 49.3311 122.765 49.348 122.982 49.3793H123.011C123.956 49.4613 124.614 49.695 124.985 50.0781C125.178 50.3287 125.271 50.6106 125.271 50.9311V51.0275C125.271 51.4877 125.108 51.9431 124.782 52.3986C124.7 52.519 124.57 52.6853 124.399 52.8949C123.977 53.4515 123.498 53.9359 122.963 54.3503C122.758 54.5021 122.562 54.625 122.377 54.7142L122.348 54.7335C122.247 54.7841 122.16 54.8106 122.09 54.8106C121.97 54.8106 121.856 54.7792 121.755 54.7142C121.557 54.5985 121.384 54.4515 121.239 54.2732L121.085 54.1094L121.066 54.0997C121.034 54.0756 121.005 54.0467 120.979 54.013H120.969C120.885 53.9311 120.844 53.8612 120.844 53.8034L120.854 53.7455C120.931 53.5672 121.059 53.3889 121.237 53.2082L121.36 53.0733C121.774 52.6588 122.167 52.3624 122.538 52.1841C122.601 52.1407 122.666 52.1166 122.731 52.1166C122.763 52.1166 122.799 52.1239 122.837 52.1359L123.182 52.3962L123.192 52.5094C123.293 52.5745 123.363 52.6106 123.404 52.6251C123.416 52.5287 123.423 52.4299 123.423 52.3287C123.423 51.9841 123.293 51.7094 123.03 51.5046C122.775 51.3263 122.493 51.2034 122.186 51.1408C121.714 51.0709 121.242 51.0323 120.769 51.0251C120.564 51.0251 120.36 51.042 120.155 51.0733L120.135 51.1022C119.945 51.5311 119.791 51.9672 119.675 52.4154C119.535 52.8949 119.432 53.3769 119.369 53.8612C119.318 54.4684 119.292 55.0732 119.292 55.6804C119.292 56.0057 119.299 56.3334 119.311 56.6587C119.311 57.0611 119.369 57.5623 119.482 58.1623C119.591 58.6539 119.774 59.1141 120.029 59.5406C120.227 59.8804 120.475 60.184 120.777 60.4562C121.075 60.7285 121.422 60.9189 121.81 61.0249C121.931 61.037 122.054 61.0442 122.174 61.0442C122.582 61.0442 122.972 60.9623 123.343 60.796C123.568 60.4948 123.743 60.0201 123.871 59.3695C123.91 59.2611 124.004 59.131 124.158 58.9768C124.17 58.9695 124.18 58.9623 124.187 58.9478C124.52 58.6274 124.785 58.437 124.982 58.372C125.014 58.3599 125.043 58.3527 125.069 58.3527C125.108 58.3527 125.127 58.3647 125.127 58.3912L125.117 58.4298V58.7744C125.117 58.9864 125.096 59.1888 125.05 59.3888C124.91 59.7912 124.695 60.1526 124.409 60.4707C123.572 61.4683 122.673 62.143 121.716 62.502C121.704 62.502 121.695 62.5044 121.688 62.5116C121.285 62.6851 120.871 62.7719 120.442 62.7719V62.7695Z" fill="black"/>
<path d="M126.956 61.5816H126.889C126.831 61.5816 126.802 61.5599 126.802 61.5141V61.0298C126.802 60.9816 126.821 60.9358 126.86 60.89L126.937 60.7647C126.944 60.6828 126.954 60.6033 126.966 60.5262L127.004 60.1527C127.028 59.7382 127.048 59.3238 127.062 58.9069C127.139 56.2057 127.178 53.9359 127.178 52.0974L127.168 50.7649C127.142 49.8709 127.086 48.9794 126.997 48.0926V48.0637C126.997 47.9432 127.086 47.7914 127.265 47.6131C127.725 47.1409 128.185 46.8035 128.643 46.5987C128.701 46.5674 128.754 46.5505 128.805 46.5505C128.843 46.5505 128.884 46.5601 128.93 46.5794C128.969 46.9505 128.988 47.324 128.988 47.6999L128.978 48.1312C128.935 48.8902 128.882 50.3649 128.826 52.5552L128.817 52.7673C128.79 53.6805 128.773 54.5961 128.759 55.5166C128.766 55.5094 128.771 55.507 128.773 55.507C128.776 55.507 128.778 55.5046 128.778 55.4973C129.181 55.1407 129.593 54.7986 130.012 54.4733C130.263 54.2877 130.504 54.0949 130.74 53.8901C131.244 53.4251 131.781 52.9938 132.35 52.5962L132.369 52.5865C132.586 52.4323 132.815 52.3046 133.059 52.2034L133.068 52.1938C133.182 52.1432 133.302 52.1167 133.423 52.1167H133.461C133.685 52.148 133.806 52.3625 133.825 52.7576L133.835 52.8058C133.905 53.3937 133.941 54.1022 133.941 54.9311C133.941 55.2564 133.934 55.5865 133.922 55.919C133.883 56.5383 133.861 57.1575 133.854 57.7768C133.854 58.3527 133.931 58.7792 134.085 59.0611C134.187 59.2467 134.36 59.3527 134.601 59.3768H134.62C134.69 59.3768 134.727 59.4033 134.727 59.4539C134.727 59.4732 134.719 59.4973 134.702 59.5262C134.686 59.5551 134.671 59.5864 134.659 59.6177C134.551 59.796 134.377 59.9912 134.141 60.2033C133.84 60.4852 133.512 60.7262 133.155 60.931C132.943 61.0587 132.762 61.1237 132.608 61.1237C132.48 61.1237 132.338 61.1117 132.186 61.0852C131.866 61.0225 131.692 60.6948 131.661 60.1069C131.649 59.9021 131.642 59.7021 131.642 59.5045C131.642 59.2178 131.654 58.9334 131.68 58.6515C131.68 58.531 131.699 58.2394 131.738 57.7792C131.762 57.4612 131.786 57.1383 131.805 56.8106C131.817 56.3961 131.825 55.9865 131.825 55.5865C131.825 55.1455 131.822 54.813 131.815 54.5889C131.808 54.5648 131.805 54.5359 131.805 54.5022C131.793 54.3094 131.779 54.1889 131.767 54.1383C131.76 54.0034 131.728 53.8829 131.67 53.7745C131.466 53.9793 131.147 54.2468 130.711 54.5793L130.444 54.7913C130.029 55.0925 129.721 55.3407 129.523 55.5383C129.427 55.6347 129.311 55.7865 129.178 55.9985C128.985 56.3551 128.891 56.7624 128.891 57.2154V58.0491C128.899 58.0997 128.901 58.2539 128.901 58.5093C128.908 58.7214 128.911 59.0274 128.911 59.4298L128.94 59.4394C128.94 59.6828 128.932 59.8539 128.92 59.9575V59.9768C128.92 60.0732 128.851 60.1912 128.708 60.331C128.646 60.4081 128.525 60.5262 128.354 60.6852C128.354 60.6924 128.352 60.6948 128.344 60.6948C127.942 61.0707 127.535 61.3526 127.118 61.5382C127.06 61.5695 127.007 61.5864 126.956 61.5864V61.5816Z" fill="black"/>
<path d="M137.033 62.3092C136.932 62.3092 136.835 62.2972 136.746 62.2755C136.657 62.2538 136.57 62.2273 136.488 62.1936C136.406 62.1599 136.334 62.1165 136.276 62.0587C136.045 61.8032 135.912 61.4996 135.874 61.1478C135.804 60.6635 135.768 60.1695 135.768 59.6731C135.768 58.4467 135.809 57.3527 135.893 56.3889C135.912 56.2226 135.924 56.0539 135.932 55.8804C135.932 55.8106 135.91 55.7503 135.864 55.6973C135.775 55.7094 135.717 55.7238 135.693 55.7359L135.57 55.6973L135.56 55.6877C135.421 55.6997 135.278 55.707 135.139 55.707L134.852 55.6973L134.765 55.6877C134.683 55.6829 134.642 55.654 134.642 55.6009C134.642 55.5383 134.681 55.4515 134.755 55.3431C134.91 55.1455 135.076 54.9672 135.254 54.8058C135.58 54.4998 135.939 54.2371 136.327 54.0202C136.481 53.919 136.647 53.8516 136.826 53.8178L137.057 53.8275C137.19 53.8395 137.325 53.8467 137.46 53.8467H137.595C137.703 53.8034 137.819 53.7672 137.939 53.7407C137.985 53.7287 138.045 53.7215 138.122 53.7215C138.185 53.7215 138.241 53.7431 138.286 53.7841C138.33 53.8251 138.356 53.8805 138.364 53.9456C138.371 54.013 138.373 54.0781 138.373 54.1431C138.366 54.1745 138.364 54.2805 138.364 54.4588C138.318 54.8877 138.286 55.3166 138.267 55.7527L138.257 55.9359C138.219 56.7142 138.197 57.4925 138.19 58.2732C138.19 58.6105 138.212 58.9479 138.257 59.278V59.3262C138.301 59.6852 138.39 59.9647 138.525 60.1695C138.696 60.3816 138.911 60.4852 139.166 60.4852C139.301 60.4852 139.424 60.4659 139.54 60.4274L139.675 60.3792L139.836 60.3406C139.913 60.3406 139.952 60.3719 139.952 60.437L139.942 60.4852C139.872 60.637 139.773 60.7767 139.646 60.8972C139.364 61.1984 139.05 61.4587 138.706 61.6828C138.527 61.8177 138.335 61.9285 138.13 62.0177L138.062 62.037C137.814 62.1454 137.559 62.2249 137.296 62.2779C137.207 62.2972 137.12 62.3068 137.038 62.3068L137.033 62.3092ZM136.843 52.4564C136.611 52.4299 136.411 52.3504 136.238 52.2179C136.231 52.1865 136.228 52.1456 136.228 52.0926L136.238 52.0829C136.098 51.948 135.97 51.8058 135.855 51.6516C135.809 51.6058 135.787 51.5649 135.787 51.5263C135.787 51.495 135.799 51.4516 135.826 51.3962C135.85 51.3432 135.893 51.2829 135.949 51.2179C136.006 51.1552 136.05 51.1022 136.083 51.0661C136.096 51.0589 136.103 51.054 136.103 51.0468C136.296 50.842 136.498 50.6564 136.715 50.4902C137.009 50.242 137.332 50.0396 137.684 49.8854C137.742 49.8468 137.802 49.8275 137.867 49.8275C137.91 49.8275 137.956 49.8372 138.002 49.8565C138.18 50.0806 138.308 50.2492 138.385 50.3625L138.482 50.3528C138.508 50.3601 138.532 50.3721 138.559 50.3914H138.568C138.612 50.4372 138.662 50.4733 138.72 50.5022C138.778 50.5311 138.838 50.5577 138.903 50.5842H138.923C138.993 50.5842 139.029 50.6107 139.029 50.6613C139.029 50.7071 138.988 50.7962 138.903 50.9287C138.756 51.1215 138.59 51.2998 138.404 51.4661C138.079 51.7673 137.725 52.0251 137.342 52.242C137.187 52.3432 137.021 52.413 136.843 52.454V52.4564Z" fill="black"/>
<path d="M154.275 62.943H154.246C154.203 62.943 154.179 62.9237 154.179 62.8851L154.198 62.4924C154.21 62.3767 154.218 62.2611 154.218 62.1478C154.198 62.0514 154.189 61.9695 154.189 61.8996C154.143 61.4731 154.116 61.0442 154.102 60.6153L154.092 60.2322C154.143 60.0731 154.172 59.9551 154.179 59.878C154.179 59.131 154.167 58.4226 154.14 57.7503C154.121 57.4443 154.111 57.1334 154.111 56.8202C153.957 56.9214 153.796 56.9985 153.622 57.0515C153.405 57.078 153.191 57.0949 152.981 57.1094C152.935 57.1094 152.897 57.1118 152.861 57.119C152.824 57.1262 152.781 57.1286 152.73 57.1286C152.687 57.1286 152.649 57.119 152.62 57.0997C152.591 57.0804 152.564 57.066 152.538 57.0515C151.836 57.0901 151.133 57.1407 150.431 57.2033C150.4 57.2105 150.369 57.213 150.335 57.213C150.328 57.3334 150.323 57.4587 150.315 57.5864L150.306 57.7888C150.282 58.4852 150.238 59.1768 150.183 59.8683L150.193 59.8876C150.243 59.9382 150.27 60.0009 150.27 60.078L150.241 60.4225C150.234 60.6081 150.202 60.7864 150.144 60.9599C150.017 61.2225 149.843 61.4514 149.629 61.649C149.137 62.1285 148.713 62.437 148.354 62.5791L148.257 62.608H148.219C148.18 62.608 148.154 62.6008 148.142 62.5888C148.134 62.5695 148.132 62.5478 148.132 62.5213V62.3695C148.132 62.2611 148.137 62.1478 148.151 62.0346C148.163 61.8105 148.178 61.6779 148.195 61.637C148.211 61.596 148.238 61.5358 148.276 61.4611C148.303 61.4153 148.317 61.3719 148.325 61.3261L148.363 61.0587L148.431 60.4635C148.496 59.7744 148.551 59.0876 148.604 58.4033C148.628 58.078 148.652 57.7479 148.672 57.4178C148.532 57.437 148.39 57.4563 148.25 57.4756H148.221C148.151 57.4756 148.115 57.4467 148.115 57.3889C148.115 57.319 148.149 57.2395 148.221 57.1503V57.1407C148.349 56.9551 148.496 56.7792 148.662 56.6154L148.701 56.5768C148.705 56.3021 148.71 56.025 148.71 55.7431C148.71 55.2708 148.698 54.7961 148.672 54.3214C148.645 53.8468 148.604 53.3672 148.546 52.8901C148.489 52.4877 148.39 52.0034 148.25 51.4347V51.3866C148.25 51.2661 148.317 51.1384 148.452 51.0034L148.481 50.9649C148.927 50.4661 149.359 50.1167 149.776 49.9119C149.833 49.8733 149.886 49.854 149.937 49.854C149.976 49.854 150.014 49.8613 150.053 49.8733C150.161 50.3191 150.241 50.7745 150.294 51.2323C150.325 51.642 150.347 52.0516 150.361 52.4685L150.371 52.5841C150.39 53.2492 150.4 53.9142 150.4 54.5865V55.0853C150.4 55.2323 150.397 55.3961 150.39 55.5744C151.361 55.478 152.6 55.3817 154.107 55.2877V55.0299C154.126 54.7046 154.136 54.3793 154.136 54.0516C154.136 53.5407 154.111 52.9191 154.058 52.1841C154.027 51.6685 154.005 51.1504 153.991 50.6324C154.049 50.4854 154.131 50.3553 154.239 50.2396C154.483 49.9649 154.753 49.7119 155.054 49.483C155.278 49.3047 155.485 49.1818 155.676 49.1191L155.772 49.0902C155.835 49.0902 155.869 49.1191 155.869 49.177L155.859 49.2251C155.866 49.7167 155.871 50.2131 155.878 50.7143C155.885 51.2155 155.888 51.8564 155.888 52.6347C155.888 53.3383 155.881 53.8468 155.869 54.1672C155.869 54.8323 155.876 55.4949 155.888 56.16L155.897 56.4106L155.907 56.8033L155.917 57.3503C155.917 57.7768 155.902 58.2033 155.869 58.625C155.869 58.6443 155.878 58.6635 155.897 58.6828C155.902 58.7069 155.912 58.7334 155.926 58.7599C155.941 58.7864 155.946 58.8178 155.946 58.8563L155.888 59.5165L155.84 60.4466C155.832 60.7021 155.808 60.9527 155.762 61.2033C155.724 61.3695 155.685 61.5575 155.647 61.7695C155.608 61.89 155.485 62.0538 155.273 62.2562C154.967 62.5623 154.68 62.7791 154.413 62.9068L154.278 62.955L154.275 62.943Z" fill="black"/>
<path d="M163.012 61.9068C162.969 61.9068 162.923 61.8972 162.88 61.8779C162.759 61.796 162.673 61.6851 162.619 61.5526C162.487 61.2129 162.419 60.7092 162.419 60.0394V59.7044C162.157 59.9984 161.87 60.2755 161.557 60.5382C160.887 61.0996 160.231 61.4538 159.592 61.6008C159.472 61.6321 159.349 61.649 159.228 61.649C159.057 61.649 158.889 61.6177 158.729 61.5526C158.602 61.502 158.501 61.4249 158.423 61.3213C158.373 61.2514 158.327 61.1791 158.291 61.0996C158.144 60.8201 158.04 60.5189 157.985 60.1984C157.884 59.6611 157.833 59.1237 157.833 58.5792C157.833 57.9406 157.855 57.3671 157.9 56.8563C157.912 56.6202 157.939 56.384 157.977 56.1479L157.997 56.0443C158.059 55.6684 158.175 55.3407 158.341 55.066C158.423 54.8877 158.537 54.731 158.676 54.5961L158.973 54.2997C159.31 53.9865 159.681 53.7142 160.084 53.4853L160.123 53.466C160.359 53.3335 160.527 53.2636 160.631 53.2636C160.674 53.2636 160.711 53.2756 160.737 53.3021L160.747 53.3792C160.747 53.4756 160.706 53.5624 160.621 53.6371L160.612 53.666C160.419 54.0684 160.272 54.4853 160.171 54.9214L160.151 54.9696C160.074 55.2636 160.012 55.5648 159.959 55.8708C159.831 56.5792 159.766 57.1744 159.766 57.6515C159.766 58.0539 159.836 58.478 159.978 58.9261C160.041 59.1502 160.149 59.3767 160.303 59.6056C160.354 59.702 160.424 59.7815 160.511 59.8466C160.597 59.9117 160.691 59.9647 160.793 60.008C160.882 60.0201 160.971 60.0273 161.06 60.0273C161.149 60.0273 161.236 60.0201 161.318 60.008C161.523 59.7719 161.708 59.5261 161.875 59.2707C162.176 58.8105 162.395 58.4322 162.535 58.131L162.554 57.9792C162.67 56.7479 162.829 55.7286 163.034 54.9238C163.111 54.5214 163.33 54.16 163.694 53.8419C163.962 53.5985 164.251 53.3889 164.557 53.2106C164.685 53.1335 164.82 53.0805 164.96 53.0491C165.03 53.0491 165.063 53.0708 165.063 53.1166C165.063 53.1287 165.061 53.1503 165.054 53.1793C165.047 53.2082 165.044 53.2395 165.044 53.2708C165.032 53.3286 165.022 53.3889 165.015 53.4539C165.008 53.519 165.006 53.5889 165.006 53.666C164.998 53.7118 164.984 53.7551 164.957 53.8009L164.909 54.1744L164.89 54.3575C164.839 54.7021 164.803 55.0467 164.784 55.3913C164.726 56.2153 164.697 57.0346 164.697 57.8515C164.716 58.9816 164.885 59.7141 165.206 60.0442C165.218 60.0635 165.225 60.0852 165.225 60.1117C165.225 60.143 165.208 60.1912 165.177 60.2514C165.145 60.3117 165.097 60.3791 165.034 60.4538C164.969 60.5261 164.924 60.5791 164.89 60.6129C164.89 60.6201 164.887 60.6225 164.88 60.6225C164.683 60.8394 164.466 61.0369 164.229 61.2153C163.923 61.4779 163.584 61.6899 163.215 61.8586C163.152 61.8972 163.085 61.9164 163.012 61.9164V61.9068Z" fill="black"/>
<path d="M170.877 61.5815C170.838 61.5815 170.797 61.5719 170.751 61.5526C170.725 61.2394 170.713 60.9261 170.713 60.6129C170.713 60.408 170.718 60.2008 170.732 59.9888C170.751 59.7261 170.768 59.0057 170.78 57.825C170.78 57.4611 170.763 57.0997 170.732 56.7431C170.713 56.29 170.626 55.8852 170.474 55.5262C170.424 55.4178 170.349 55.331 170.252 55.2636C170.156 55.1961 170.057 55.1479 169.956 55.1166C169.855 55.1045 169.751 55.0973 169.65 55.0973C169.317 55.0973 168.941 55.184 168.52 55.3551C168.245 55.9864 168.069 56.6443 167.994 57.3286C167.917 57.8322 167.864 58.3382 167.83 58.8418L167.917 58.8707L167.927 59.3599C167.927 59.5719 167.876 59.7454 167.775 59.8876L167.765 59.9069C167.618 60.0996 167.454 60.2755 167.276 60.4346C166.784 60.8755 166.333 61.1815 165.926 61.355C165.861 61.3936 165.798 61.4128 165.733 61.4128C165.688 61.4128 165.644 61.4032 165.598 61.3839L165.589 61.2008C165.589 61.1044 165.596 61.0128 165.608 60.9237V60.7719C165.608 60.6056 165.627 60.49 165.666 60.4273L165.714 60.1213C165.765 59.8346 165.82 59.5502 165.876 59.2683C165.888 58.8539 165.895 58.4418 165.895 58.0322L165.885 57.2081C165.885 56.89 165.868 56.5021 165.837 56.0491C165.806 55.6539 165.786 55.2563 165.779 54.8612C165.842 54.7214 165.933 54.5937 166.047 54.478L166.297 54.2395C166.828 53.76 167.271 53.4829 167.63 53.4058L167.649 53.3961C167.712 53.3961 167.746 53.4226 167.746 53.4732L167.736 53.5311C167.736 53.6708 167.734 53.8082 167.727 53.9431V55.3407C167.739 55.3334 167.748 55.3238 167.755 55.3117C167.922 55.172 168.091 55.0346 168.264 54.8997C168.57 54.6563 168.893 54.4467 169.231 54.2684L169.288 54.2395C169.517 54.1118 169.754 54.0033 169.997 53.9142C170.612 53.7046 171.069 53.5985 171.376 53.5985C171.549 53.5985 171.646 53.6082 171.662 53.6274C171.918 53.6588 172.106 53.7359 172.229 53.8564L172.248 53.866C172.337 53.9479 172.41 54.0491 172.47 54.1624L172.585 54.4298C172.694 54.7551 172.757 55.0901 172.778 55.4346C172.848 56.4178 172.882 57.6081 172.882 59.0081C172.901 59.2948 172.911 59.6177 172.911 59.9767C172.834 60.1358 172.735 60.2779 172.614 60.3984L172.347 60.6562C171.906 61.0586 171.482 61.3502 171.072 61.5285C171.007 61.5671 170.944 61.5863 170.879 61.5863L170.877 61.5815Z" fill="black"/>
<path d="M182.957 62.8755H182.918C182.872 62.8755 182.85 62.8562 182.85 62.8177L182.86 62.7695L182.85 62.4345C182.85 62.0972 182.87 61.7671 182.908 61.449C182.985 60.9117 183.031 60.3478 183.051 59.7526C183.051 59.3069 183.038 58.8563 183.012 58.4009L182.916 56.3696C182.85 55.1383 182.699 54.2636 182.455 53.7455C182.277 53.3744 182.142 53.1094 182.053 52.9504L182.043 52.8732C182.043 52.7793 182.12 52.6443 182.272 52.4709L182.301 52.4323C182.754 51.9094 183.217 51.5311 183.689 51.3022C183.747 51.2636 183.805 51.2444 183.86 51.2444C183.899 51.2444 183.937 51.2516 183.976 51.2636L183.995 51.3022C184.2 51.6733 184.342 52.0781 184.427 52.519C184.523 53.0106 184.571 53.4636 184.571 53.8805C184.603 54.5118 184.639 55.4346 184.677 56.6491L184.687 57.09C184.706 57.4418 184.716 57.796 184.716 58.1527C184.716 58.5093 184.706 58.8587 184.687 59.2153C184.656 59.5912 184.612 59.9647 184.562 60.3358C184.535 60.5213 184.516 60.7093 184.504 60.902C184.492 61.1261 184.468 61.3478 184.436 61.5719C184.386 61.6924 184.316 61.8056 184.227 61.9068C184.181 61.9454 184.138 61.9887 184.092 62.0393C184.13 62.0201 184.169 62.0008 184.207 61.9815C184.27 61.9381 184.335 61.9141 184.4 61.9141C184.439 61.9141 184.48 61.9237 184.523 61.943C184.574 61.9936 184.687 62.0731 184.858 62.1839L185.451 61.6851C185.822 61.3526 186.208 61.0345 186.61 60.7261C187.044 60.408 187.476 60.0755 187.905 59.7309V59.6057C187.905 59.5286 187.902 59.4563 187.895 59.3864C187.888 59.3165 187.885 59.2514 187.885 59.1936C187.861 58.5984 187.847 58.0009 187.847 57.3937C187.847 57.0563 187.856 56.531 187.876 55.8226C187.876 55.2106 187.895 54.7021 187.934 54.2997L187.962 53.878L187.972 53.6564C187.984 53.4853 187.991 53.3118 187.991 53.1407C187.965 52.9094 187.873 52.7166 187.714 52.5552C187.447 52.2998 187.006 52.0299 186.391 51.7407C185.543 51.2998 184.805 50.8299 184.178 50.3335C183.993 50.1865 183.795 50.0492 183.583 49.9215C183.301 50.3167 183.01 50.6998 182.703 51.0709C182.448 51.3648 182.164 51.6275 181.85 51.8564C181.684 51.9913 181.506 52.107 181.313 52.201C181.224 52.2395 181.156 52.2588 181.11 52.2588C181.045 52.2588 181.014 52.2275 181.014 52.1624V52.1335C181.077 51.9817 181.163 51.8468 181.272 51.7311C181.829 51.0661 182.166 50.642 182.286 50.4564V50.4372C182.286 50.3673 182.315 50.2998 182.373 50.2347C182.462 50.0805 182.544 49.9287 182.624 49.7745C182.701 49.6203 182.785 49.4902 182.882 49.3817L182.94 49.3143C183.022 49.2131 183.111 49.1167 183.207 49.0275C183.4 48.8299 183.607 48.6468 183.831 48.4806L183.899 48.4324C184.039 48.3312 184.191 48.23 184.354 48.136C184.516 48.0396 184.685 47.9866 184.858 47.9745L184.916 47.9649C185.179 47.9721 185.429 48.0372 185.668 48.1673C185.907 48.295 186.133 48.4324 186.343 48.5793L186.449 48.6565C187.157 49.148 188.001 49.6203 188.977 50.0733C189.418 50.2661 189.753 50.4877 189.982 50.7432C190.103 50.8901 190.175 51.0636 190.194 51.2612L190.214 51.5865L190.194 51.9118L190.185 51.9504L190.175 52.2106C190.11 53.372 190.076 54.3262 190.069 55.0732V55.5624C190.069 56.2467 190.081 56.931 190.107 57.6226C190.107 57.7117 190.11 57.7792 190.117 57.825C190.122 57.8683 190.127 57.9165 190.127 57.9671C190.127 58.0442 190.117 58.1189 190.098 58.1985C189.982 58.4804 189.821 58.7358 189.609 58.9647C189.148 59.4683 188.649 59.9334 188.114 60.3526C188.126 60.3478 188.136 60.3406 188.143 60.3333C188.124 60.3454 188.107 60.3575 188.095 60.3719C188.052 60.4105 188.006 60.4466 187.962 60.4779C187.987 60.4587 188.013 60.4394 188.04 60.4201C187.406 60.943 186.9 61.3357 186.516 61.5984L186.056 61.943C185.692 62.2755 185.217 62.6755 184.629 63.1405L184.391 63.3429C184.391 63.3429 184.379 63.3429 184.376 63.3478L184.362 63.3622C184.125 63.5863 183.868 63.7839 183.586 63.9574L183.537 63.9863C183.306 64.1381 183.125 64.2152 182.99 64.2152C182.87 64.1959 182.769 64.1453 182.689 64.0634C182.609 63.9815 182.542 63.8923 182.484 63.796C182.453 63.7574 182.436 63.7164 182.436 63.6706C182.436 63.5935 182.479 63.4996 182.568 63.3839C182.728 63.1863 182.894 63.0032 183.067 62.8369C183.029 62.849 182.99 62.8634 182.952 62.8755H182.957ZM188.042 60.4225C188.066 60.4032 188.093 60.3815 188.119 60.355C188.112 60.3623 188.107 60.3695 188.1 60.3743C188.081 60.3936 188.061 60.4105 188.042 60.4225Z" fill="black"/>
<path d="M197.017 62.1189C196.979 62.1189 196.938 62.1092 196.892 62.09C196.74 62.0129 196.632 61.8948 196.572 61.7357C196.511 61.5767 196.466 61.384 196.432 61.1599L196.413 61.0635C196.369 60.7816 196.333 60.4852 196.306 60.1719C195.81 60.6514 195.265 61.0852 194.677 61.4755C194.646 61.4876 194.617 61.5044 194.59 61.5237C194.424 61.6321 194.251 61.7309 194.072 61.8201L193.949 61.8876C193.841 61.9454 193.728 61.9936 193.614 62.0321H193.605C193.426 62.102 193.277 62.1357 193.154 62.1357C193.077 62.1357 193.002 62.1213 192.925 62.0876C192.674 61.9478 192.513 61.743 192.436 61.4755C192.238 60.8298 192.113 60.1695 192.062 59.4924L192.043 59.29C191.954 58.4924 191.831 57.6997 191.679 56.9142C191.633 56.6973 191.607 56.4491 191.592 56.1672C191.592 55.8853 191.749 55.5889 192.062 55.278C192.274 55.0612 192.496 54.8564 192.732 54.6636C192.879 54.5503 193.009 54.4347 193.125 54.319C193.937 53.5094 194.687 52.9672 195.376 52.6998C195.458 52.6684 195.552 52.6516 195.653 52.6516C195.718 52.6516 195.779 52.6757 195.836 52.7239C195.894 52.7721 195.943 52.8299 195.981 52.8998C196.121 53.1046 196.309 53.3118 196.547 53.5239C196.572 53.548 196.639 53.601 196.75 53.6757L196.788 53.7046C196.801 53.7118 196.81 53.7166 196.817 53.7238L196.904 53.6467C197.109 53.4419 197.384 53.2323 197.728 53.0154C197.996 52.8299 198.261 52.7046 198.524 52.6419C198.606 52.6419 198.647 52.6684 198.647 52.719L198.637 52.7865C198.548 53.2275 198.471 53.6732 198.406 54.1287C198.304 55.0298 198.247 56.2274 198.235 57.7214C198.247 58.1936 198.292 58.6635 198.367 59.1286C198.398 59.3768 198.447 59.6249 198.512 59.8755C198.562 60.1575 198.688 60.4057 198.885 60.6225C198.897 60.6346 198.905 60.6514 198.905 60.6707C198.905 60.6972 198.893 60.7334 198.866 60.7816C198.84 60.8297 198.801 60.8828 198.746 60.9406C198.69 60.9984 198.652 61.0418 198.625 61.0755L198.606 61.0852C198.435 61.2563 198.249 61.4129 198.049 61.555C197.786 61.7647 197.497 61.9382 197.177 62.0707C197.126 62.102 197.07 62.1189 197.015 62.1189H197.017ZM196.27 59.4081V59.0539C196.27 58.8177 196.273 58.584 196.28 58.3551V58.2491C196.287 57.8346 196.29 57.066 196.29 55.9407C196.29 55.7238 196.294 55.5118 196.309 55.3069C196.046 55.4853 195.783 55.6298 195.514 55.7383C195.451 55.7768 195.386 55.7961 195.321 55.7961C195.282 55.7961 195.239 55.7816 195.191 55.7527C195.142 55.7238 195.012 55.6467 194.803 55.519C194.718 55.519 194.639 55.4973 194.561 55.4515L194.533 55.4323C194.386 55.3624 194.188 55.1841 193.94 54.8949C193.882 54.8178 193.831 54.7431 193.785 54.6636L193.776 54.866C193.788 55.013 193.817 55.2274 193.863 55.5069C193.971 56.1262 194.058 56.7455 194.12 57.3648L194.198 58.1021C194.28 58.9069 194.381 59.49 194.494 59.8539C194.59 60.2298 194.752 60.4755 194.983 60.5912L195.012 60.6008L195.176 60.4466C195.362 60.2804 195.545 60.1141 195.726 59.943C195.909 59.7743 196.077 59.6033 196.239 59.4298C196.251 59.4177 196.261 59.4081 196.268 59.4008L196.27 59.4081Z" fill="black"/>
<path d="M210.698 62.8562C209.97 62.8562 209.324 62.7478 208.762 62.5309C208.603 62.4731 208.468 62.3815 208.36 62.2538C208.34 62.2346 208.323 62.2129 208.311 62.1864C208.16 62.008 208.029 61.8924 207.928 61.8418C207.921 61.8418 207.914 61.837 207.899 61.8273C207.885 61.8177 207.868 61.8105 207.841 61.8032C207.772 61.7526 207.699 61.7165 207.622 61.6972C207.615 61.69 207.603 61.6852 207.584 61.6828C207.564 61.6803 207.535 61.6707 207.497 61.6538C207.458 61.637 207.439 61.5816 207.439 61.4852C207.439 61.4418 207.451 61.3816 207.478 61.302C207.579 61.0852 207.733 60.849 207.938 60.5936C208.162 60.2683 208.398 59.9478 208.646 59.6346C208.832 59.4057 209.109 59.0852 209.48 58.6756L209.7 58.4178C209.859 58.1551 210.061 57.9382 210.305 57.7672V57.7575L210.543 57.5864C210.632 57.5358 210.7 57.5093 210.746 57.5093C210.784 57.5093 210.804 57.5407 210.804 57.6057C210.804 57.625 210.782 57.6852 210.736 57.7888C210.729 57.7888 210.726 57.7913 210.726 57.7985C210.669 57.8997 210.599 58.0033 210.514 58.1045L209.767 59.0611C209.755 59.0876 209.738 59.1093 209.719 59.1286C209.514 59.4418 209.304 59.7503 209.088 60.0587C209.088 60.078 209.08 60.0924 209.068 60.1069C209.1 60.1527 209.148 60.1792 209.213 60.1936L209.28 60.2129L209.473 60.2997C209.485 60.3117 209.502 60.3213 209.521 60.3286C209.603 60.3671 209.678 60.4177 209.743 60.4804C209.852 60.5816 209.912 60.6466 209.926 60.6731C210.162 60.9093 210.469 61.0538 210.847 61.1044C211.192 61.155 211.541 61.1816 211.891 61.1816C212.421 61.1816 212.903 61.1213 213.337 60.9984L213.385 60.9792C213.532 60.6852 213.631 60.4153 213.681 60.1695C213.732 59.9237 213.758 59.6852 213.758 59.4563L213.749 59.2274L213.739 59.1792C213.701 58.7382 213.563 58.3551 213.327 58.0298C213.04 57.6226 212.686 57.2852 212.264 57.025C211.854 56.8009 211.435 56.6033 210.999 56.4298L209.782 55.9624C209.565 55.8805 209.35 55.7841 209.141 55.6756C209.121 55.6684 209.104 55.6588 209.092 55.6467C208.965 55.5841 208.844 55.507 208.728 55.4154L208.719 55.4058C208.393 55.1817 208.23 54.8058 208.23 54.2757C208.23 53.9046 208.331 53.4781 208.536 52.9913C208.74 52.507 209.001 52.0516 209.321 51.6323C209.859 50.936 210.49 50.3384 211.218 49.842C211.582 49.5866 211.975 49.4179 212.397 49.3336C212.594 49.3023 212.794 49.2806 212.999 49.2661C213.166 49.2589 213.366 49.2565 213.604 49.2565C213.843 49.2565 214.077 49.2685 214.313 49.2902C214.549 49.3119 214.778 49.3601 215.002 49.43C215.289 49.5263 215.523 49.6926 215.701 49.9287C215.817 50.0685 215.875 50.2324 215.875 50.4179V50.4468C215.875 50.6372 215.79 50.854 215.624 51.0974L215.405 51.4323H215.414L215.337 51.5287L215.079 51.8926C214.944 52.0516 214.807 52.2034 214.667 52.3432L214.706 52.3046C214.272 52.7841 213.809 53.2202 213.317 53.6178L213.105 53.8106C212.876 54.0395 212.616 54.2323 212.329 54.3841C212.271 54.4226 212.218 54.4419 212.168 54.4419C212.129 54.4419 212.098 54.4347 212.076 54.4178C212.054 54.401 212.042 54.3841 212.042 54.3648C212.042 54.2949 212.079 54.2106 212.148 54.1142C212.218 54.0178 212.264 53.9624 212.283 53.9431C212.462 53.719 212.749 53.4395 213.146 53.0998C213.402 52.6661 213.544 52.2998 213.578 51.9986C213.597 51.8323 213.607 51.695 213.607 51.5865C213.607 51.5046 213.599 51.4396 213.587 51.3938V51.3456C213.525 51.148 213.411 50.9817 213.252 50.8468L213.04 50.8661C212.739 50.8275 212.435 50.8082 212.129 50.8082C211.553 50.8082 211.052 50.8661 210.625 50.9793L210.616 50.989C210.577 51.0275 210.488 51.1817 210.348 51.4492C210.117 51.9287 210.003 52.4251 210.003 52.9431V53.0299C210.061 53.3865 210.276 53.6709 210.645 53.8829C210.888 54.0227 211.245 54.1769 211.717 54.3431L213.059 54.813C213.288 54.9022 213.515 55.0009 213.739 55.1094C214.103 55.2612 214.428 55.4732 214.718 55.7407C214.896 55.9118 215.065 56.0973 215.224 56.2973C215.518 56.6684 215.672 57.2033 215.684 57.9069V58.0491C215.684 58.3551 215.626 58.6684 215.511 58.9888C215.434 59.2322 215.335 59.4635 215.214 59.6876C214.677 60.6514 213.954 61.4466 213.04 62.0731C212.536 62.449 211.982 62.6996 211.382 62.8201C211.151 62.8466 210.924 62.8586 210.702 62.8586L210.698 62.8562Z" fill="black"/>
<path d="M222.288 61.9068C222.245 61.9068 222.199 61.8972 222.155 61.8779C222.035 61.796 221.948 61.6851 221.895 61.5526C221.763 61.2129 221.695 60.7092 221.695 60.0394V59.7044C221.432 59.9984 221.146 60.2755 220.832 60.5382C220.162 61.0996 219.507 61.4538 218.868 61.6008C218.747 61.6321 218.625 61.649 218.504 61.649C218.333 61.649 218.164 61.6177 218.005 61.5526C217.877 61.502 217.776 61.4249 217.699 61.3213C217.648 61.2514 217.603 61.1791 217.566 61.0996C217.419 60.8201 217.316 60.5189 217.26 60.1984C217.159 59.6611 217.109 59.1237 217.109 58.5792C217.109 57.9406 217.13 57.3671 217.176 56.8563C217.188 56.6202 217.215 56.384 217.253 56.1479L217.272 56.0443C217.335 55.6684 217.451 55.3407 217.617 55.066C217.699 54.8877 217.812 54.731 217.952 54.5961L218.249 54.2997C218.586 53.9865 218.957 53.7142 219.36 53.4853L219.398 53.466C219.634 53.3335 219.803 53.2636 219.907 53.2636C219.95 53.2636 219.986 53.2756 220.013 53.3021L220.022 53.3792C220.022 53.4756 219.981 53.5624 219.897 53.6371L219.887 53.666C219.695 54.0684 219.548 54.4853 219.446 54.9214L219.427 54.9696C219.35 55.2636 219.287 55.5648 219.234 55.8708C219.107 56.5792 219.041 57.1744 219.041 57.6515C219.041 58.0539 219.111 58.478 219.254 58.9261C219.316 59.1502 219.425 59.3767 219.579 59.6056C219.63 59.702 219.699 59.7815 219.786 59.8466C219.873 59.9117 219.967 59.9647 220.068 60.008C220.157 60.0201 220.247 60.0273 220.336 60.0273C220.425 60.0273 220.512 60.0201 220.594 60.008C220.798 59.7719 220.984 59.5261 221.15 59.2707C221.452 58.8105 221.671 58.4322 221.811 58.131L221.83 57.9792C221.946 56.7479 222.105 55.7286 222.31 54.9238C222.387 54.5214 222.606 54.16 222.97 53.8419C223.238 53.5985 223.527 53.3889 223.833 53.2106C223.961 53.1335 224.096 53.0805 224.235 53.0491C224.305 53.0491 224.339 53.0708 224.339 53.1166C224.339 53.1287 224.337 53.1503 224.329 53.1793C224.322 53.2082 224.32 53.2395 224.32 53.2708C224.308 53.3286 224.298 53.3889 224.291 53.4539C224.284 53.519 224.281 53.5889 224.281 53.666C224.274 53.7118 224.26 53.7551 224.233 53.8009L224.185 54.1744L224.166 54.3575C224.115 54.7021 224.079 55.0467 224.059 55.3913C224.002 56.2153 223.973 57.0346 223.973 57.8515C223.992 58.9816 224.161 59.7141 224.481 60.0442C224.493 60.0635 224.501 60.0852 224.501 60.1117C224.501 60.143 224.484 60.1912 224.452 60.2514C224.421 60.3117 224.373 60.3791 224.31 60.4538C224.245 60.5261 224.199 60.5791 224.166 60.6129C224.166 60.6201 224.163 60.6225 224.156 60.6225C223.958 60.8394 223.741 61.0369 223.505 61.2153C223.199 61.4779 222.859 61.6899 222.49 61.8586C222.428 61.8972 222.36 61.9164 222.288 61.9164V61.9068Z" fill="black"/>
<path d="M115.101 15.3342C116.913 16.0306 118.056 16.6787 118.525 17.2787L118.101 18.5655H118.243C120.227 18.1462 122.502 17.6305 125.069 17.0209C125.86 17.4161 126.431 18.0691 126.783 18.9775V19.5438C126.783 20.5919 126.359 21.122 125.508 21.1413H125.366C123.975 20.9775 123.216 20.8955 123.086 20.8955L122.223 20.9076C120.822 20.9341 118.595 21.6859 115.537 23.1606L114.958 22.8907C114.958 23.028 114.534 23.4136 113.683 24.0497C113.683 23.8618 113.638 23.7654 113.541 23.7654C113.353 23.8593 113.211 23.9123 113.117 23.9196V23.7654L113.259 23.481H113.117C112.695 23.7726 112.363 23.9244 112.112 23.9316C112.112 23.881 112.3 23.6401 112.678 23.2112C111.734 23.5967 111.261 24.8376 111.261 26.9316C111.047 29.3098 110.712 30.5026 110.256 30.5122C109.801 30.5219 108.234 30.8351 105.556 31.452C104.725 31.4592 104.11 30.7098 103.715 29.199C103.92 29.199 104.11 29.1484 104.281 29.0448C103.139 26.428 102.568 24.7798 102.568 24.1003C102.568 23.0786 103.517 22.4425 105.414 22.1943C105.414 22.3317 105.556 22.4738 105.838 22.6184C107.135 22.5919 108.181 22.1003 108.981 21.1389C109.299 21.1317 110.295 21.5389 111.97 22.363C112.794 21.1775 113.271 20.0329 113.399 18.9245C113.288 18.9245 113.047 18.551 112.678 17.804C112.944 17.7968 113.657 17.0233 114.816 15.486L115.098 15.3318L115.101 15.3342ZM106.279 25.3147C106.467 26.3966 106.564 27.1557 106.564 27.5942V28.1605L108.121 28.134C108.121 28.0737 108.075 27.4569 107.979 26.281L108.121 25.2906L107.839 25.1485L106.988 25.1605L106.279 25.3147ZM125.069 31.5315H125.223V31.8158H125.366C125.744 32.8712 125.932 33.4857 125.932 33.6568H126.074V33.2327C125.98 33.0447 125.932 32.9026 125.932 32.8086C126.867 34.3724 127.862 35.5387 128.921 36.3097C128.921 37.9675 127.783 38.9844 125.508 39.3603C124.279 39.3771 122.001 39.4639 118.668 39.6181C114.58 39.5313 112.536 39.0012 112.536 38.0205C112.348 37.5916 112.254 36.9772 112.254 36.1796C112.254 34.8399 112.919 33.7845 114.25 33.0134C114.25 32.8929 116.147 31.1966 119.943 27.9267L120.663 27.0641H120.521C120.135 27.0713 117.901 27.8713 113.823 29.4592H113.681C113.226 29.4689 112.515 28.8159 111.543 27.5026V26.9364C111.543 26.2159 112.493 25.4376 114.39 24.6063C114.39 24.7943 114.532 24.8906 114.814 24.8906L114.529 25.3147H114.814C117.88 24.5943 120.49 23.881 122.644 23.1774C125.211 24.0714 126.496 24.9509 126.496 25.8159C126.496 26.3316 125.117 27.6834 122.362 29.8713C119.29 32.0953 117.202 33.8423 116.103 35.1121C116.954 36.1435 117.855 36.6495 118.807 36.6326L120.225 36.6061C123.556 36.3651 125.221 35.8157 125.221 34.9579C125.221 34.3483 124.886 33.1676 124.216 31.4182C124.534 31.411 124.869 32.0664 125.221 33.3869H125.363V32.8206C125.363 32.7435 125.317 32.4568 125.221 31.958V31.8158L125.067 31.8279V31.5315H125.069ZM114.25 33.4375V33.8616H114.534V33.7074C114.534 33.5194 114.44 33.4278 114.25 33.4375ZM114.392 34.0037V34.4278H114.534V34.0037H114.392ZM114.392 34.5724V35.5652H114.674V34.5724H114.392ZM114.819 35.2808C114.913 35.6423 114.961 36.0182 114.961 36.4133L115.245 36.2712C115.426 36.794 115.949 37.2591 116.817 37.6615H116.959V37.5193C115.628 36.782 114.963 36.035 114.963 35.2784H114.821L114.819 35.2808ZM120.227 38.1772V38.3193L123.794 38.2543L123.936 37.9579C123.196 38.0687 121.96 38.1434 120.227 38.1772ZM122.507 38.4205V38.5627L124.221 38.5241V38.382L122.507 38.4205Z" fill="black"/>
<path d="M156.847 11.7029C158.529 12.021 159.371 12.7535 159.371 13.9053C159.371 14.1703 159.086 14.645 158.52 15.3221V15.4522H158.662C160.002 15.151 160.795 14.9968 161.043 14.9896C162.726 15.4522 163.567 16.2811 163.567 17.4739C163.567 18.4715 163.241 19.0377 162.588 19.1727C161.918 19.0883 161.545 19.0449 161.467 19.0449L159.368 19.5076C159.368 19.2835 159.694 19.0449 160.347 18.7871V18.645C160.347 18.457 160.253 18.3654 160.062 18.3751C160.002 18.3751 159.486 18.71 158.517 19.3799H158.375L159.496 18.2474C158.286 18.4184 157.681 18.7534 157.681 19.2522C157.045 20.1461 156.529 20.763 156.136 21.1051C157.657 20.8907 159.197 20.628 160.759 20.3196C162.253 20.2931 163.282 21.4907 163.849 23.9123V24.0545C163.256 25.5147 162.369 26.5099 161.183 27.0424C161.019 27.0424 160.74 27.1412 160.347 27.3388C159.857 27.2544 159.39 27.2159 158.944 27.2231L159.498 26.6569V26.5147H159.371C158.486 26.8062 158.018 26.9581 157.965 26.9653L158.802 25.9605H158.66C158.66 26.3725 157.213 26.8665 154.319 27.4424V27.5845L154.731 27.5725C154.912 27.4785 155.054 27.4303 155.155 27.4303C155.155 27.893 155.623 28.4014 156.558 28.9484C156.558 29.1122 156.416 29.5315 156.134 30.211H156.276L158.942 29.464H159.084C160.036 29.4472 160.831 30.2279 161.465 31.8086C161.465 32.2038 161.185 32.6278 160.629 33.0832C159.694 33.0061 158.987 32.9724 158.517 32.9796L156.842 33.0061L155.849 33.1604V34.0109L155.992 34.2808C159.168 33.8254 160.756 33.517 160.756 33.3531C162.207 33.6109 163.239 34.0158 163.846 34.5627V34.8471C163.581 36.6229 162.692 37.5241 161.181 37.5506L161.038 37.5627C158.978 37.2205 157.344 37.0615 156.131 37.0856H155.989V38.3482C155.989 38.888 156.035 39.6349 156.131 40.5891C156.131 41.1482 155.384 41.953 153.89 43.0108C152.955 42.0156 152.487 41.2301 152.487 40.6542L152.629 39.6639C152.535 39.6639 152.487 39.6205 152.487 39.5361C152.668 39.4325 152.808 39.3819 152.911 39.3819V37.4253H152.769C151.207 37.7073 149.197 38.353 146.741 39.3554H146.175C145.146 39.3723 144.025 38.647 142.813 37.1796C142.813 36.4422 143.885 35.7194 146.033 35.0157C145.57 34.2953 145.336 33.411 145.336 32.3628V32.2206C145.336 32.17 145.756 31.7917 146.599 31.0881V31.2303L146.315 31.6544L146.457 31.6423C146.457 31.505 146.645 31.3628 147.023 31.2182V31.5026L147.86 30.9242V31.2062L147.575 31.7724H147.717C147.717 31.7025 148.233 30.8544 149.262 29.2231V29.0809C148.92 29.2689 148.546 29.3701 148.142 29.3773L147.575 29.3893C146.828 29.2857 146.454 29.011 146.454 28.5653H146.312C145.599 29.0472 145.085 29.2905 144.767 29.3002C144.372 29.3002 143.904 28.2303 143.362 26.093C142.899 25.2352 142.668 24.5388 142.668 24.0087C142.719 23.5027 143.283 22.8834 144.355 22.1533C142.948 21.2618 142.244 20.3389 142.244 19.3847V19.257C142.321 18.9654 143.073 18.4835 144.497 17.8136L144.625 17.8016L144.497 18.0859C144.582 18.3703 144.673 18.51 144.767 18.51C145.678 18.2088 146.24 18.0594 146.454 18.0594V17.351C146.454 16.3992 146.081 15.5655 145.334 14.8522C145.796 14.845 146.03 14.7462 146.03 14.5559L145.76 14.5679V14.4258L146.315 14.4137L146.172 14.1318V14.0017C146.645 13.9944 146.881 13.8956 146.881 13.7053C146.787 13.7053 146.739 13.6571 146.739 13.5631C146.946 13.5631 147.129 13.5125 147.293 13.4089C148.821 13.3824 149.805 14.3968 150.241 16.4474V16.8715L151.362 16.5631C151.824 16.7438 152.058 16.8811 152.058 16.9751C152.246 16.8811 152.388 16.8329 152.482 16.8329L153.049 16.9606L153.191 16.9486V16.8209L152.34 16.4088V16.2667H152.625C152.805 16.351 152.947 16.3944 153.049 16.3944L152.764 15.9823L155.148 15.9438C155.336 15.9366 155.43 15.8354 155.43 15.6474V14.9535C155.43 14.2233 155.011 13.5318 154.169 12.8812C155.647 12.1005 156.534 11.7101 156.835 11.7101L156.847 11.7029ZM145.9 21.8377V22.1196C145.934 22.3075 146.03 22.4039 146.185 22.4039L147.587 22.3774C146.934 21.9726 146.609 21.7003 146.609 21.5533C146.3 21.7413 146.064 21.8377 145.9 21.8377ZM146.182 24.3605V24.5027C146.467 25.7123 146.749 26.3147 147.033 26.3051C149.831 25.8159 151.231 25.4641 151.231 25.2497C151.068 25.2569 150.6 24.987 149.826 24.4376C148.496 24.6424 147.563 24.7509 147.033 24.7581L146.749 24.7701L146.182 24.3581V24.3605ZM147.729 35.2663L147.872 35.2543C148.465 35.2471 150.147 35.0302 152.921 34.6109V33.3483C150.043 33.864 148.313 34.5025 147.729 35.2663ZM152.494 18.3606C152.494 18.7028 152.073 19.2281 151.231 19.9317H151.089C151.089 19.6497 151.043 19.5076 150.947 19.5076C150.072 19.5244 149.561 20.3269 149.414 21.9148C149.226 21.9485 149.132 22.0473 149.132 22.2112C150.496 22.1846 151.945 21.3196 153.473 19.6112V19.3293C153.068 19.3365 152.791 19.016 152.637 18.363H152.494V18.3606ZM150.807 31.1459H150.949C152.263 30.9315 152.921 30.7291 152.921 30.5411C152.637 30.0857 152.497 29.7628 152.497 29.5749H152.355C152.227 29.5749 151.711 30.0978 150.81 31.1459H150.807ZM152.634 21.4377V21.5798H152.919V21.4377H152.634ZM154.039 23.6641V23.8063C154.598 23.7894 154.876 24.0641 154.876 24.6304L155.584 24.6183C156.392 24.6015 157.322 24.8159 158.378 25.2617C158.662 24.6617 158.802 24.1918 158.802 23.8569C158.708 23.6762 158.66 23.5388 158.66 23.4449L157.539 23.4569C156.748 23.4738 155.582 23.5437 154.037 23.6641H154.039ZM154.324 37.8157C154.324 38.7771 154.275 39.5241 154.181 40.0566L154.594 40.0446V38.7819L154.466 37.8036L154.324 37.8157ZM154.876 39.0663C154.876 39.4518 154.83 39.8253 154.733 40.1867V40.3289H154.876C154.97 39.994 155.018 39.806 155.018 39.7626V39.0687H154.876V39.0663ZM157.117 18.8377L156.975 19.1196H157.117L157.259 18.8377H157.117Z" fill="black"/>
<path d="M196.649 14.6258C198.15 14.9776 198.902 15.5824 198.902 16.4402V16.7101C198.902 17.045 198.683 17.4426 198.244 17.9076V18.0377C198.69 17.857 199.042 17.7631 199.3 17.7534C200.975 18.2353 201.811 19.1004 201.811 20.3534C201.811 21.1509 201.459 21.6015 200.756 21.7051H200.498L199.7 21.5895C198.979 21.8642 198.36 22.0063 197.844 22.0136L198.772 21.2015V21.0738H198.644C198.018 21.0811 197.133 21.8931 195.991 23.5075C195.759 23.5075 195.275 23.869 194.535 24.5894C198.717 28.2303 202.202 30.5074 204.993 31.4279V31.5556L203.667 31.5821V31.7122C204.337 31.8736 204.735 31.9556 204.865 31.9556V32.0833L202.353 32.1363V32.264L203.281 32.3797V32.5074L201.556 32.5459V32.6736C202.182 32.7507 202.534 32.7893 202.611 32.7893V32.917C201.83 32.9339 201.303 32.9893 201.028 33.0857V33.2134L202.084 33.1869V33.329C201.792 33.329 201.04 33.6519 199.83 34.2953H199.702C199.548 34.2953 199.324 34.2085 199.032 34.0375C198.362 37.582 197.834 39.3603 197.449 39.3675L196.521 39.3795C195.67 39.1313 195.01 39.0109 194.537 39.0205C194.091 39.0277 193.559 39.1265 192.939 39.3169L193.082 39.047H192.939C190.724 39.7 189.401 40.0301 188.972 40.0373C188.758 40.0373 188.406 39.5603 187.917 38.6085C187.745 38.5217 187.613 38.4783 187.516 38.4783V38.3506L188.302 38.3386C188.302 38.1579 187.994 37.9868 187.374 37.8229V37.6808L188.172 37.6687C188.172 37.4711 187.953 37.3434 187.514 37.2832V37.1531L188.3 37.141C187.596 35.141 187.244 33.9989 187.244 33.717V33.4592H187.114L185.916 34.2712C185.916 34.0061 185.829 33.876 185.658 33.8857V34.0134C185.743 35.2495 185.786 36.3049 185.786 37.1796C185.786 38.3651 184.858 39.3506 183.005 40.141L182.735 40.153C182.219 40.1602 181.691 39.553 181.151 38.3241C181.057 38.3241 180.705 37.9338 180.096 37.1531C180.18 37.1531 180.223 37.1073 180.223 37.0109C179.57 36.7025 179.218 36.4446 179.168 36.2374L179.823 36.2254V36.0977C179.548 36.1049 179.24 35.8495 178.895 35.3242L179.025 35.3121C180.202 35.9121 181.043 36.2085 181.549 36.2013L182.077 36.1892L182.347 33.9363H182.204C182.298 33.7652 182.347 33.6326 182.347 33.5363C182.253 32.4279 182.204 31.7676 182.204 31.5532C180.315 33.7941 179.168 34.9194 178.765 34.9266H178.365C177.806 34.9435 177.056 34.3869 176.112 33.2519V33.1242L177.039 32.97V32.8423L175.714 32.7266V32.5989L176.512 32.4568V32.3146L175.984 32.3266C177.073 31.6399 178.396 30.6014 179.951 29.211C180.956 28.1388 181.665 27.5966 182.077 27.5894V27.0617H181.947C180.452 28.2376 179.479 28.8303 179.023 28.8376C177.991 28.8544 177.288 27.8062 176.912 25.6954C176.912 25.3003 177.84 24.7557 179.693 24.0593C179.693 24.1798 179.56 24.3123 179.293 24.4593L179.423 24.7171L179.293 24.987C180.684 24.2328 181.52 23.6858 181.804 23.3509C181.633 20.8787 181.546 19.3799 181.546 18.857C181.366 18.857 181.277 18.7703 181.277 18.5992L181.019 18.7269L180.876 18.7389V18.4691L180.491 18.7389V18.4811C181.496 16.9607 182.243 16.1968 182.732 16.1896L183.132 16.1775C184.634 16.151 185.386 16.4908 185.386 17.1944C185.567 17.1944 185.656 17.3269 185.656 17.5944L186.056 17.5823C186.227 17.5823 186.314 17.4932 186.314 17.3125C186.227 17.3221 186.184 17.2787 186.184 17.1848H186.584V17.0546L186.442 16.7848L187.112 16.7727V16.645L186.984 16.3872C187.044 16.3799 187.307 16.3269 187.77 16.233C188.979 16.2161 189.864 17.1293 190.423 18.9751C191.033 18.8715 191.433 18.7727 191.621 18.6787C191.681 18.6787 191.944 18.7221 192.407 18.8088C194.26 18.7221 195.188 18.5293 195.188 18.2281C195.188 18.0305 195.231 17.8498 195.316 17.6883C194.99 16.5462 194.595 15.9799 194.132 15.9896V15.7318C195.386 15.0017 196.222 14.633 196.644 14.6258H196.649ZM184.463 34.0302C184.463 34.1001 184.419 34.3652 184.335 34.8278C184.506 34.8278 184.593 34.7386 184.593 34.5579V34.0302H184.463ZM184.593 30.9917C184.593 31.8495 184.55 32.2929 184.463 32.317H184.593L184.735 32.0471V30.9917H184.593ZM184.463 33.3748V33.6447L184.593 33.6326V33.3748H184.463ZM184.863 33.9025V35.2157H184.991V33.8905L184.863 33.9025ZM185.919 17.9871L186.061 18.257C185.528 18.5582 185.263 19.1799 185.263 20.1244V21.3076H185.391C186.362 21.204 186.846 21.0208 186.846 20.7534C186.846 19.2594 186.584 18.3365 186.061 17.9847H185.919V17.9871ZM185.263 24.7605C185.347 25.4135 185.434 27.5725 185.521 31.2375C187.555 29.3146 188.924 26.9533 189.63 24.1557H189.502C189.502 24.4208 189.102 24.6497 188.305 24.8376C187.333 24.4087 186.849 24.0184 186.849 23.6666V23.4087C186.41 23.4184 186.102 23.7316 185.921 24.3485L185.263 24.7605ZM195.063 30.2833C192.915 30.317 191.105 30.5243 189.628 30.9026H189.37C189.37 31.0833 189.194 31.3532 188.842 31.7146L189.77 31.7026C189.83 32.1411 189.958 32.3556 190.156 32.3459C194.132 32.0038 196.118 31.5267 196.118 30.917C195.766 30.4785 195.591 30.2207 195.591 30.1435C195.282 30.2303 195.106 30.2761 195.063 30.2857V30.2833ZM190.028 22.0304V22.1581L190.698 21.7461C190.98 21.7461 191.727 22.0425 192.939 22.6353L193.339 22.0955C192.197 22.122 191.626 21.869 191.626 21.3365C190.561 21.5943 190.028 21.8256 190.028 22.0329V22.0304ZM190.698 35.1242L190.956 36.7073C194.046 36.382 195.593 36.1748 195.593 36.0904C195.677 35.8254 195.721 35.3386 195.721 34.635L194.935 34.5194C192.901 34.6399 191.486 34.8423 190.698 35.1242ZM191.353 26.8978H191.484C191.835 26.3918 192.011 26.0352 192.011 25.8304H191.881C191.744 25.8376 191.568 26.1966 191.353 26.8978ZM192.281 26.3557C192.016 26.9557 191.881 27.3123 191.881 27.4255L192.409 27.4135L193.079 27.2713C192.932 26.8689 192.667 26.5629 192.281 26.3581V26.3557ZM194.137 24.2063V24.4641H194.265V24.2063H194.137ZM196.788 21.5148V21.6425H196.916L197.044 21.1027C196.873 21.11 196.786 21.2497 196.786 21.5148H196.788ZM197.846 22.016V22.1581H197.577V22.0304L197.846 22.0184V22.016Z" fill="black"/>
<path d="M227.742 11.8957C227.863 11.8885 228.408 12.4186 229.379 13.4933L229.972 13.6354V14.2282L229.239 15.2715C229.969 15.0667 230.461 14.9583 230.719 14.9511C231.664 15.3197 232.356 15.8041 232.792 16.4065C232.792 17.204 231.507 17.8185 228.94 18.2474C228.837 18.4281 228.786 18.6257 228.786 18.8402H228.94C229.962 18.7293 230.555 18.6691 230.717 18.6594C231.842 19.0546 232.729 19.5823 233.382 20.2425C233.382 20.7389 233.185 20.9943 232.789 21.0016V21.1437C233.014 21.1437 233.209 21.1919 233.382 21.2859V21.1437C233.288 21.1437 233.24 21.0931 233.24 20.9895H233.679C235.337 20.9558 237.263 21.5606 239.461 22.8039V23.4087C239.461 24.4907 238.526 25.0497 236.653 25.0834L236.048 25.0955V24.9413H236.653V24.787H236.356C234.081 25.028 232.792 25.1533 232.493 25.1605V25.3027L233.086 25.2906C233.23 25.2906 233.922 25.2304 235.159 25.1099L236.048 25.0979V25.24C232.965 25.4979 231.288 25.6256 231.013 25.6256V25.7798L232.493 25.8954H232.944C233.235 26.599 233.382 27.0424 233.382 27.2207V27.9556C233.339 28.1436 232.498 28.7026 230.859 29.6303L228.039 32.3459L228.786 32.1917L229.675 32.1797L230.719 32.3074L229.83 31.2785H229.972L230.719 31.4206C230.719 31.2231 230.57 31.1243 230.268 31.1243V30.9821L230.861 30.9701V30.8279C230.57 30.8279 230.423 30.7291 230.423 30.5315H230.565L231.454 30.6592V30.3628C231.162 30.3725 231.015 30.2785 231.015 30.0809L231.312 30.0689C232.763 30.0424 233.999 30.9146 235.021 32.6833C235.51 33.0688 235.756 33.5074 235.756 33.9965V34.1507C235.626 35.1387 235.086 35.6399 234.134 35.6567C233.163 35.4254 232.322 34.7459 231.611 33.623V33.7772C231.705 33.7772 231.753 33.8254 231.753 33.9194C231.237 33.9266 230.599 34.0399 229.834 34.2543V34.3965C230.126 34.6712 230.273 35.0134 230.273 35.4254C229.878 35.5362 229.68 35.8374 229.68 36.3266V40.1892C229.68 40.2831 229.731 40.3313 229.834 40.3313C229.225 42.0229 228.186 42.8807 226.718 42.9072H226.564C225.344 41.5843 224.356 40.859 223.602 40.7313V40.5892L224.195 40.5771V40.435C224.014 40.435 223.469 40.3458 222.558 40.1651C222.558 41.0494 222.013 41.5048 220.922 41.5289C220.278 41.5385 219.685 40.659 219.145 38.8904C219.145 38.6928 219.639 38.1916 220.628 37.3844C220.628 37.3242 220.929 36.9724 221.529 36.329C221.04 36.1049 220.541 35.6688 220.035 35.0158V34.8736C220.052 34.7266 221.341 34.2086 223.898 33.3146C225.058 32.3363 225.65 31.7821 225.675 31.6544H225.532C224.091 32.2737 223.197 32.5869 222.855 32.5941C222.349 32.6014 221.657 32.17 220.782 31.2929H220.628C220.628 31.199 220.678 31.1508 220.782 31.1508L220.628 30.8544C220.628 30.1074 221.469 29.399 223.151 28.7291C223.349 28.8231 223.498 28.8713 223.602 28.8713C224.392 27.9966 224.788 27.3484 224.788 26.9268V26.7725C224.486 26.7822 224.139 26.7388 223.744 26.6448C221.435 27.281 219.902 27.7508 219.145 28.0617V28.3581C220.278 27.8424 221.515 27.4256 222.855 27.1099H223.009V26.9557H223.448V27.0978L223.009 27.1099V27.2521C222.828 27.2617 221.394 27.734 218.707 28.6689C216.921 28.3508 216.029 27.7725 216.029 26.9316C216.029 26.7075 215.981 26.5123 215.887 26.3388C218.384 24.4931 220.365 23.2232 221.823 22.5268C221.625 22.2353 221.423 21.6473 221.218 20.763L221.965 20.8907H222.262V20.7486L221.372 20.4642V20.31H221.823L222.12 20.4522V20.298C221.922 20.3052 221.823 20.2136 221.823 20.0136L222.855 19.9871C223.652 19.9799 224.547 19.8666 225.532 19.6522V19.2016L225.378 18.9052C223.995 19.3245 223.305 19.5871 223.305 19.6907C222.481 19.698 221.64 19.0691 220.782 17.7968V17.5004C220.782 16.8137 221.671 16.1559 223.448 15.5294V15.3752C223.645 15.4691 223.795 15.5173 223.898 15.5173L223.744 15.8137C223.848 15.8137 223.898 15.8643 223.898 15.9679C223.795 15.9679 223.744 16.0185 223.744 16.1221L224.04 16.1101L225.084 15.9438C225.084 15.3342 224.638 14.8956 223.744 14.6306V14.3342C224.723 12.8403 225.267 12.0885 225.38 12.0812L227.607 12.0427C227.701 12.0427 227.75 11.9969 227.75 11.9005L227.742 11.8957ZM219.731 24.1943H219.885C221.172 23.4738 221.963 23.1124 222.255 23.1124C222.255 22.9148 222.107 22.816 221.816 22.816C220.71 23.4088 220.013 23.8666 219.729 24.1943H219.731ZM219.731 24.9268C222.823 24.0859 224.703 23.6593 225.373 23.6521C225.373 23.4979 225.176 23.3003 224.78 23.0594L224.626 23.0714C224.221 23.0714 223.828 23.1268 223.44 23.2401L222.551 23.0979C220.698 23.9726 219.758 24.5822 219.731 24.9268ZM222.708 36.5941V37.0447C223.103 37.5338 223.301 37.8254 223.301 37.9193C223.103 38.5627 223.004 39.0085 223.004 39.2591L225.824 39.5049C226.434 39.2976 226.776 39.0446 226.853 38.7458V37.4205C226.793 35.8423 226.496 35.0543 225.964 35.064H225.822C224.19 36.076 223.151 36.5892 222.705 36.5965L222.708 36.5941ZM222.708 39.7097V40.006L223.301 39.994L224.033 40.1362C224.033 39.8952 223.592 39.7554 222.708 39.7121V39.7097ZM223.44 26.7942L224.033 26.7822V26.9364L223.44 26.9484V26.7942ZM224.187 26.4858V26.64L224.484 26.628V26.4858H224.187ZM224.78 34.7772V34.9314L225.231 34.9194C225.402 34.8158 225.6 34.7652 225.824 34.7652V34.611H225.67L224.78 34.7796V34.7772ZM227.15 22.2883V23.3172C227.347 23.2136 227.497 23.163 227.6 23.163V23.0208L227.446 22.2738L227.15 22.2859V22.2883ZM227.897 26.1244C228.386 26.5195 228.632 26.7629 228.632 26.8569V27.2954C227.644 27.5798 227.152 28.0352 227.152 28.6593H227.306L228.196 28.493C228.196 28.587 228.241 28.6352 228.338 28.6352C229.531 27.2352 230.129 26.2882 230.129 25.7894L227.899 26.1244H227.897ZM228.039 22.2618V23.1509H228.193V22.2618H228.039ZM228.039 36.3483V38.5772H228.193L228.335 37.8302V37.0953L228.193 36.3483H228.039ZM228.49 37.8302V38.8735L228.632 38.8615V37.8326H228.49V37.8302ZM228.786 21.8112V22.9943C230.606 22.763 232.237 22.6329 233.681 22.6088H233.835C233.218 21.9317 232.474 21.5967 231.608 21.604V21.4618L232.201 21.4497L232.794 21.5919H232.948V21.4377C232.597 21.3437 232.394 21.2955 232.343 21.2955L228.788 21.8112H228.786ZM233.539 35.9627L235.019 35.9362C236.195 35.9194 236.937 36.3025 237.246 37.0832C237.246 37.2543 237.345 37.5001 237.542 37.8181C237.096 39.5097 236.352 40.3627 235.315 40.3795C234.431 39.753 233.44 39.4229 232.341 39.3868V39.2446L233.835 39.0639V38.6253L231.748 38.6639V38.5097L233.539 38.329V38.1868L232.946 38.0446V37.8904L233.681 37.8784V37.7362C233.389 37.7434 233.242 37.6495 233.242 37.4519L233.539 37.4398V37.2977C233.04 37.2278 232.792 37.0832 232.792 36.8591L233.681 36.6904V36.2519L233.539 35.9555V35.9627ZM233.681 24.0907V24.2449L234.57 24.2328L235.318 24.0666V23.9244H235.021C234.489 24.0352 234.043 24.0931 233.681 24.0931V24.0907ZM234.272 24.387V24.5292L235.612 24.5027C235.8 24.3991 235.947 24.3485 236.05 24.3485V24.2063H235.908C235.368 24.3172 234.821 24.3774 234.272 24.387Z" fill="black"/>
<path d="M82.2125 43.2647C80.9054 42.9772 79.6039 43.8079 79.3219 45.1185C78.3098 49.7464 75.86 53.9486 72.398 57.1297V37.5148H81.768C82.5019 37.5148 83.189 37.1863 83.6503 36.6243C84.1115 36.0568 84.2945 35.3176 84.1488 34.6044C82.4515 26.2485 76.928 19.0742 69.3076 15.2602C64.3911 6.35727 55.1144 0.863159 44.9022 0.863159C34.6901 0.863159 24.9092 6.65596 20.1066 15.9883C19.9292 16.3318 19.8358 16.7126 19.8358 17.1009V59.0768C13.7335 54.8223 9.95413 47.7656 9.95413 40.1825C9.95413 34.8676 11.7112 29.8794 15.0406 25.7537C15.8828 24.7083 15.7203 23.1794 14.6765 22.3374C13.6327 21.4955 12.1015 21.6579 11.2594 22.7015C7.28205 27.6318 5.09546 33.839 5.09546 40.1825C5.09546 50.9915 11.433 60.9194 21.24 65.4652C21.5686 65.6182 21.916 65.691 22.2651 65.691C22.7226 65.691 23.1764 65.5622 23.5722 65.3102C24.2725 64.864 24.6945 64.0912 24.6945 63.2623V43.541H35.4818V72.6301C33.3157 71.6593 31.2991 70.3507 29.5046 68.7359C28.5093 67.8416 26.9688 67.9182 26.0744 68.9188C25.1762 69.9138 25.2565 71.4484 26.2518 72.3482C31.3738 76.963 37.9989 79.5019 44.9004 79.5019C51.2417 79.5019 57.4448 77.3196 62.3744 73.3488C62.662 73.1173 62.8842 72.8354 63.0298 72.5274C63.3137 72.1298 63.4836 71.6407 63.4836 71.1105V24.6934C63.4836 24.0213 63.2128 23.4146 62.7703 22.9721C62.3296 22.5353 61.7209 22.2627 61.0524 22.2627C59.7117 22.2627 58.623 23.3474 58.623 24.6915V70.1154C56.1974 71.9207 53.4974 73.2051 50.6217 73.9331V6.43941C56.9145 8.03929 62.3091 12.2527 65.3789 18.2117C65.6254 18.6933 66.0268 19.0779 66.5161 19.3057C72.2057 21.9454 76.5621 26.816 78.5881 32.6573H69.9668C68.6224 32.6573 67.5375 33.7457 67.5375 35.0861V61.9798C67.5375 62.8534 68.0118 63.6599 68.7773 64.0893C69.5392 64.5187 70.4747 64.5056 71.2235 64.0538C77.7627 60.1111 82.444 53.5846 84.0685 46.1546C84.3561 44.8422 83.5252 43.5522 82.2143 43.2647H82.2125ZM35.4818 38.6872H24.6945V17.7077C27.1574 13.2011 30.9667 9.73998 35.4818 7.72753V38.6872ZM45.7631 74.6295C45.4755 74.6407 45.1879 74.6463 44.9004 74.6463C43.358 74.6463 41.8306 74.4932 40.3405 74.1926V6.17245C41.8231 5.87749 43.3487 5.72254 44.9004 5.72254C45.1879 5.72254 45.4755 5.72628 45.7631 5.73935V74.6295Z" fill="black"/>
<path d="M12.7271 4.97208C12.7271 4.97208 12.6823 15.488 16.1199 17.0935C16.5812 18.3592 18.4877 13.834 12.7271 4.97208Z" fill="black"/>
<path d="M15.8716 18.6579C15.8716 18.6579 10.7123 20.7319 0.804443 12.4021C11.7673 13.9404 15.2834 16.4681 15.8716 18.6579Z" fill="black"/>
</svg>
