<svg width="183" height="61" viewBox="0 0 183 61" fill="none" xmlns="http://www.w3.org/2000/svg">
<path d="M92.083 48.0298C91.7814 48.0151 91.5074 47.9195 91.2647 47.7449C90.5916 47.1896 90.1724 46.4248 90.0068 45.4504C89.9535 45.1195 89.9204 44.7849 89.9057 44.4484C89.8763 44.0385 89.8616 43.6561 89.8616 43.3012C89.8616 42.985 89.8744 42.6688 89.8984 42.3507C89.9315 41.9996 89.9903 41.6521 90.073 41.3065C90.1411 40.9701 90.2386 40.6446 90.3654 40.3266C90.542 39.9019 90.7792 39.525 91.0826 39.1941C91.3603 38.8632 91.6729 38.5708 92.0186 38.3171C92.3055 38.0928 92.6218 37.9292 92.9693 37.8281C93.1348 37.7932 93.3206 37.7766 93.5247 37.7766C93.6902 37.7766 93.8557 37.7895 94.0212 37.8134H94.0433C94.7641 37.8759 95.2662 38.0542 95.5493 38.3465C95.6965 38.5377 95.7682 38.7528 95.7682 38.9974V39.0709C95.7682 39.422 95.6431 39.7695 95.3949 40.117C95.3324 40.2089 95.2331 40.3358 95.1025 40.4957C94.7807 40.9204 94.4147 41.2899 94.0065 41.6062C93.8502 41.722 93.7012 41.8158 93.5596 41.8838L93.5376 41.8985C93.4603 41.9371 93.3941 41.9573 93.3408 41.9573C93.2489 41.9573 93.1624 41.9334 93.0852 41.8838C92.9344 41.7955 92.802 41.6834 92.6917 41.5473L92.574 41.4223L92.5593 41.415C92.5354 41.3966 92.5133 41.3745 92.4931 41.3488H92.4857C92.4213 41.2863 92.3901 41.233 92.3901 41.1888L92.3974 41.1447C92.4563 41.0087 92.5537 40.8726 92.6898 40.7347L92.7836 40.6318C93.0999 40.3156 93.3996 40.0894 93.6828 39.9534C93.7307 39.9203 93.7803 39.9019 93.83 39.9019C93.8539 39.9019 93.8814 39.9074 93.9109 39.9166L94.1738 40.1152L94.1812 40.2016C94.2584 40.2512 94.3118 40.2788 94.343 40.2898C94.3522 40.2163 94.3577 40.1409 94.3577 40.0637C94.3577 39.8008 94.2584 39.5912 94.058 39.4349C93.8631 39.2989 93.6479 39.2051 93.4144 39.1573C93.0539 39.104 92.6935 39.0746 92.3331 39.0691C92.1768 39.0691 92.0205 39.0819 91.8642 39.1058L91.8494 39.1279C91.7042 39.4551 91.5865 39.7879 91.4982 40.1299C91.3916 40.4957 91.3125 40.8634 91.2647 41.233C91.2261 41.6962 91.2058 42.1577 91.2058 42.621C91.2058 42.8692 91.2113 43.1192 91.2205 43.3674C91.2205 43.6744 91.2647 44.0569 91.3511 44.5146C91.4338 44.8897 91.5736 45.2408 91.7685 45.5662C91.9193 45.8255 92.1087 46.0571 92.3386 46.2649C92.5666 46.4726 92.8314 46.6179 93.1275 46.6988C93.2194 46.7079 93.3132 46.7135 93.4052 46.7135C93.7159 46.7135 94.0138 46.651 94.297 46.5241C94.4681 46.2943 94.6023 45.9321 94.6998 45.4357C94.7292 45.353 94.8009 45.2537 94.9186 45.136C94.9278 45.1305 94.9351 45.125 94.9407 45.114C95.1944 44.8695 95.3967 44.7242 95.5475 44.6746C95.5714 44.6654 95.5935 44.6599 95.6137 44.6599C95.6431 44.6599 95.6578 44.6691 95.6578 44.6893L95.6505 44.7187V44.9816C95.6505 45.1434 95.6339 45.2978 95.599 45.4504C95.4923 45.7574 95.3287 46.0332 95.1098 46.2759C94.4717 47.037 93.7858 47.5518 93.0558 47.8257C93.0466 47.8257 93.0392 47.8276 93.0337 47.8331C92.7266 47.9655 92.4103 48.0317 92.083 48.0317V48.0298Z" fill="white"/>
<path d="M97.0535 47.1235H97.0021C96.9579 47.1235 96.9359 47.1069 96.9359 47.072V46.7024C96.9359 46.6657 96.9506 46.6308 96.98 46.5958L97.0388 46.5002C97.0443 46.4377 97.0517 46.377 97.0609 46.3182L97.0903 46.0332C97.1087 45.717 97.1234 45.4008 97.1345 45.0827C97.1933 43.0218 97.2227 41.29 97.2227 39.8872L97.2154 38.8705C97.1951 38.1885 97.1528 37.5082 97.0848 36.8316V36.8096C97.0848 36.7177 97.1528 36.6018 97.2889 36.4658C97.6402 36.1055 97.9914 35.8481 98.3408 35.6918C98.3849 35.6679 98.4254 35.655 98.464 35.655C98.4934 35.655 98.5247 35.6624 98.5596 35.6771C98.589 35.9602 98.6038 36.2452 98.6038 36.532L98.5964 36.8611C98.5633 37.4402 98.5228 38.5653 98.4805 40.2365L98.4732 40.3983C98.453 41.0951 98.4401 41.7937 98.4291 42.496C98.4346 42.4905 98.4382 42.4887 98.4401 42.4887C98.4419 42.4887 98.4438 42.4868 98.4438 42.4813C98.7509 42.2092 99.0653 41.9481 99.3853 41.7C99.5765 41.5584 99.7604 41.4113 99.9406 41.255C100.325 40.9002 100.735 40.5711 101.169 40.2678L101.184 40.2604C101.349 40.1428 101.524 40.0453 101.71 39.9681L101.717 39.9607C101.803 39.9221 101.895 39.9019 101.987 39.9019H102.017C102.188 39.9258 102.28 40.0894 102.294 40.391L102.302 40.4277C102.355 40.8763 102.383 41.4168 102.383 42.0493C102.383 42.2974 102.377 42.5493 102.368 42.803C102.339 43.2755 102.322 43.748 102.317 44.2205C102.317 44.6599 102.375 44.9853 102.493 45.2004C102.57 45.342 102.703 45.4229 102.887 45.4413H102.901C102.955 45.4413 102.982 45.4615 102.982 45.5001C102.982 45.5148 102.977 45.5332 102.964 45.5552C102.951 45.5773 102.94 45.6012 102.931 45.6251C102.848 45.7611 102.716 45.9101 102.535 46.0718C102.305 46.287 102.055 46.4708 101.783 46.6271C101.621 46.7245 101.483 46.7741 101.366 46.7741C101.268 46.7741 101.16 46.765 101.044 46.7447C100.799 46.6969 100.667 46.4469 100.643 45.9983C100.634 45.842 100.628 45.6895 100.628 45.5387C100.628 45.3199 100.638 45.103 100.658 44.8879C100.658 44.7959 100.673 44.5735 100.702 44.2223C100.72 43.9797 100.739 43.7333 100.753 43.4833C100.763 43.167 100.768 42.8545 100.768 42.5493C100.768 42.2129 100.766 41.9592 100.761 41.7882C100.755 41.7698 100.753 41.7478 100.753 41.722C100.744 41.5749 100.733 41.483 100.724 41.4444C100.719 41.3414 100.695 41.2495 100.65 41.1668C100.494 41.3231 100.251 41.5271 99.9186 41.7808L99.7145 41.9426C99.3982 42.1724 99.1628 42.3618 99.012 42.5126C98.9384 42.5861 98.8502 42.7019 98.749 42.8637C98.6019 43.1358 98.5302 43.4465 98.5302 43.7921V44.4282C98.5357 44.4669 98.5376 44.5845 98.5376 44.7794C98.5431 44.9412 98.5449 45.1747 98.5449 45.4817L98.567 45.4891C98.567 45.6747 98.5615 45.8053 98.5523 45.8843V45.899C98.5523 45.9726 98.4989 46.0627 98.3904 46.1693C98.3426 46.2281 98.2507 46.3182 98.1201 46.4395C98.1201 46.4451 98.1183 46.4469 98.1128 46.4469C97.8057 46.7337 97.4949 46.9488 97.1767 47.0904C97.1326 47.1143 97.0922 47.1271 97.0535 47.1271V47.1235Z" fill="white"/>
<path d="M104.742 47.6787C104.665 47.6787 104.591 47.6695 104.523 47.653C104.455 47.6364 104.389 47.6162 104.326 47.5905C104.264 47.5647 104.209 47.5316 104.165 47.4875C103.988 47.2926 103.887 47.061 103.858 46.7926C103.804 46.423 103.777 46.0461 103.777 45.6674C103.777 44.7316 103.808 43.897 103.872 43.1616C103.887 43.0347 103.896 42.906 103.902 42.7737C103.902 42.7203 103.885 42.6744 103.85 42.6339C103.782 42.6431 103.738 42.6542 103.72 42.6634L103.626 42.6339L103.618 42.6266C103.512 42.6358 103.403 42.6413 103.297 42.6413L103.078 42.6339L103.012 42.6266C102.949 42.6229 102.918 42.6008 102.918 42.5604C102.918 42.5126 102.947 42.4464 103.004 42.3637C103.122 42.2129 103.249 42.0769 103.385 41.9537C103.633 41.7202 103.907 41.5198 104.203 41.3544C104.321 41.2771 104.448 41.2257 104.584 41.1999L104.76 41.2073C104.862 41.2165 104.965 41.222 105.068 41.222H105.171C105.253 41.1889 105.342 41.1613 105.433 41.1411C105.468 41.1319 105.514 41.1264 105.573 41.1264C105.621 41.1264 105.663 41.1429 105.698 41.1742C105.731 41.2054 105.752 41.2477 105.757 41.2974C105.763 41.3488 105.764 41.3985 105.764 41.4481C105.759 41.472 105.757 41.5529 105.757 41.689C105.722 42.0162 105.698 42.3435 105.684 42.6762L105.676 42.8159C105.647 43.4098 105.63 44.0036 105.625 44.5993C105.625 44.8566 105.641 45.114 105.676 45.3659V45.4027C105.709 45.6766 105.777 45.8899 105.88 46.0461C106.011 46.2079 106.175 46.287 106.369 46.287C106.472 46.287 106.566 46.2723 106.655 46.2429L106.758 46.2061L106.881 46.1767C106.94 46.1767 106.969 46.2006 106.969 46.2502L106.962 46.287C106.908 46.4028 106.833 46.5094 106.735 46.6014C106.52 46.8312 106.281 47.0297 106.018 47.2007C105.882 47.3037 105.735 47.3882 105.579 47.4563L105.527 47.471C105.338 47.5537 105.143 47.6144 104.942 47.6548C104.874 47.6695 104.808 47.6769 104.746 47.6769L104.742 47.6787ZM104.597 40.1612C104.42 40.141 104.268 40.0803 104.135 39.9792C104.13 39.9553 104.128 39.924 104.128 39.8836L104.135 39.8762C104.029 39.7733 103.931 39.6648 103.843 39.5471C103.808 39.5122 103.791 39.4809 103.791 39.4515C103.791 39.4276 103.801 39.3945 103.821 39.3522C103.839 39.3118 103.872 39.2658 103.915 39.2162C103.959 39.1684 103.992 39.128 104.018 39.1004C104.027 39.0949 104.032 39.0912 104.032 39.0857C104.179 38.9294 104.334 38.7878 104.499 38.661C104.724 38.4716 104.97 38.3172 105.239 38.1995C105.283 38.1701 105.329 38.1554 105.378 38.1554C105.411 38.1554 105.446 38.1627 105.481 38.1775C105.617 38.3484 105.715 38.4771 105.774 38.5635L105.847 38.5562C105.867 38.5617 105.886 38.5709 105.906 38.5856H105.913C105.947 38.6205 105.985 38.6481 106.029 38.6702C106.073 38.6922 106.119 38.7125 106.169 38.7327H106.184C106.237 38.7327 106.265 38.7529 106.265 38.7915C106.265 38.8264 106.233 38.8945 106.169 38.9956C106.057 39.1427 105.93 39.2787 105.788 39.4056C105.54 39.6354 105.27 39.8321 104.977 39.9976C104.86 40.0748 104.733 40.1281 104.597 40.1593V40.1612Z" fill="white"/>
<path d="M117.898 48.1622H117.876C117.842 48.1622 117.824 48.1475 117.824 48.1181L117.839 47.8184C117.848 47.7301 117.854 47.6419 117.854 47.5555C117.839 47.482 117.831 47.4194 117.831 47.3661C117.797 47.0407 117.776 46.7135 117.765 46.3862L117.758 46.0939C117.797 45.9726 117.819 45.8825 117.824 45.8236C117.824 45.2537 117.815 44.7132 117.795 44.2003C117.78 43.9668 117.773 43.7296 117.773 43.4906C117.655 43.5678 117.532 43.6267 117.399 43.6671C117.234 43.6873 117.07 43.7002 116.91 43.7112C116.875 43.7112 116.846 43.7131 116.818 43.7186C116.791 43.7241 116.758 43.7259 116.719 43.7259C116.686 43.7259 116.656 43.7186 116.634 43.7039C116.612 43.6892 116.592 43.6781 116.572 43.6671C116.037 43.6965 115.5 43.7351 114.965 43.7829C114.941 43.7884 114.917 43.7903 114.891 43.7903C114.886 43.8822 114.882 43.9778 114.876 44.0753L114.869 44.2297C114.851 44.761 114.817 45.2886 114.775 45.8163L114.783 45.831C114.821 45.8696 114.841 45.9174 114.841 45.9762L114.819 46.2391C114.814 46.3807 114.79 46.5168 114.746 46.6491C114.648 46.8495 114.516 47.0242 114.352 47.1749C113.977 47.5408 113.653 47.7761 113.379 47.8846L113.306 47.9066H113.276C113.247 47.9066 113.227 47.9011 113.218 47.8919C113.212 47.8772 113.21 47.8607 113.21 47.8405V47.7246C113.21 47.6419 113.214 47.5555 113.225 47.4691C113.234 47.2981 113.245 47.197 113.258 47.1657C113.271 47.1345 113.291 47.0885 113.321 47.0315C113.341 46.9966 113.352 46.9635 113.357 46.9286L113.387 46.7245L113.438 46.2704C113.488 45.7446 113.53 45.2206 113.571 44.6985C113.589 44.4503 113.607 44.1984 113.622 43.9466C113.516 43.9613 113.407 43.976 113.3 43.9907H113.278C113.225 43.9907 113.197 43.9686 113.197 43.9245C113.197 43.8712 113.223 43.8105 113.278 43.7425V43.7351C113.376 43.5936 113.488 43.4594 113.615 43.3343L113.644 43.3049C113.648 43.0953 113.652 42.8839 113.652 42.6688C113.652 42.3085 113.642 41.9463 113.622 41.5841C113.602 41.2219 113.571 40.8561 113.527 40.4921C113.482 40.185 113.407 39.8155 113.3 39.3816V39.3448C113.3 39.2529 113.352 39.1555 113.455 39.0525L113.477 39.0231C113.817 38.6426 114.146 38.376 114.464 38.2197C114.509 38.1903 114.549 38.1756 114.588 38.1756C114.617 38.1756 114.646 38.1811 114.676 38.1903C114.759 38.5304 114.819 38.8779 114.86 39.2272C114.884 39.5397 114.9 39.8523 114.911 40.1703L114.919 40.2586C114.933 40.766 114.941 41.2734 114.941 41.7863V42.1669C114.941 42.2791 114.939 42.4041 114.933 42.5401C115.674 42.4666 116.62 42.393 117.769 42.3213V42.1246C117.784 41.8764 117.791 41.6282 117.791 41.3782C117.791 40.9884 117.773 40.5141 117.732 39.9534C117.708 39.56 117.692 39.1647 117.681 38.7694C117.725 38.6573 117.787 38.558 117.87 38.4697C118.056 38.2601 118.262 38.0671 118.492 37.8924C118.663 37.7564 118.821 37.6626 118.966 37.6148L119.04 37.5928C119.087 37.5928 119.113 37.6148 119.113 37.659L119.106 37.6957C119.111 38.0708 119.115 38.4495 119.121 38.8319C119.126 39.2143 119.128 39.7034 119.128 40.2972C119.128 40.834 119.122 41.2219 119.113 41.4665C119.113 41.9739 119.119 42.4795 119.128 42.9869L119.135 43.1781L119.143 43.4777L119.15 43.8951C119.15 44.2205 119.139 44.5459 119.113 44.8676C119.113 44.8823 119.121 44.8971 119.135 44.9118C119.139 44.9301 119.146 44.9504 119.157 44.9706C119.168 44.9908 119.172 45.0147 119.172 45.0441L119.128 45.5479L119.091 46.2575C119.086 46.4524 119.067 46.6436 119.032 46.8348C119.003 46.9617 118.973 47.1051 118.944 47.2669C118.915 47.3588 118.821 47.4838 118.659 47.6382C118.425 47.8717 118.207 48.0372 118.002 48.1346L117.9 48.1714L117.898 48.1622Z" fill="white"/>
<path d="M124.564 47.3717C124.531 47.3717 124.496 47.3643 124.463 47.3496C124.371 47.2871 124.304 47.2025 124.264 47.1014C124.163 46.8422 124.111 46.4579 124.111 45.9468V45.6913C123.911 45.9156 123.692 46.127 123.453 46.3274C122.942 46.7558 122.442 47.026 121.954 47.1382C121.862 47.1621 121.769 47.1749 121.677 47.1749C121.546 47.1749 121.417 47.151 121.296 47.1014C121.198 47.0628 121.121 47.004 121.062 46.9249C121.024 46.8716 120.989 46.8164 120.961 46.7558C120.849 46.5425 120.77 46.3127 120.728 46.0682C120.65 45.6582 120.612 45.2482 120.612 44.8327C120.612 44.3455 120.628 43.908 120.663 43.5182C120.673 43.338 120.693 43.1579 120.722 42.9777L120.737 42.8986C120.785 42.6118 120.873 42.3618 121 42.1522C121.062 42.0162 121.149 41.8967 121.255 41.7937L121.482 41.5676C121.739 41.3286 122.022 41.1208 122.329 40.9462L122.359 40.9315C122.539 40.8303 122.668 40.777 122.747 40.777C122.78 40.777 122.808 40.7862 122.828 40.8064L122.835 40.8653C122.835 40.9388 122.804 41.005 122.74 41.062L122.732 41.0841C122.585 41.3911 122.473 41.7091 122.396 42.0419L122.381 42.0787C122.322 42.303 122.274 42.5328 122.234 42.7663C122.136 43.3068 122.087 43.7609 122.087 44.1249C122.087 44.4319 122.14 44.7555 122.249 45.0975C122.296 45.2684 122.379 45.4413 122.497 45.6159C122.535 45.6894 122.589 45.7501 122.655 45.7998C122.721 45.8494 122.793 45.8898 122.87 45.9229C122.938 45.9321 123.006 45.9376 123.074 45.9376C123.142 45.9376 123.208 45.9321 123.271 45.9229C123.427 45.7428 123.569 45.5552 123.696 45.3604C123.926 45.0092 124.093 44.7206 124.2 44.4908L124.214 44.3749C124.303 43.4355 124.424 42.6578 124.58 42.0437C124.639 41.7367 124.806 41.4609 125.084 41.2183C125.288 41.0326 125.509 40.8726 125.742 40.7366C125.84 40.6777 125.943 40.6373 126.05 40.6134C126.103 40.6134 126.129 40.63 126.129 40.6649C126.129 40.6741 126.127 40.6906 126.121 40.7127C126.116 40.7348 126.114 40.7586 126.114 40.7825C126.105 40.8267 126.097 40.8726 126.092 40.9223C126.086 40.9719 126.084 41.0252 126.084 41.0841C126.079 41.119 126.068 41.1521 126.048 41.187L126.011 41.472L125.996 41.6117C125.958 41.8746 125.93 42.1375 125.915 42.4004C125.871 43.0292 125.849 43.6542 125.849 44.2775C125.864 45.1397 125.993 45.6986 126.237 45.9505C126.246 45.9652 126.252 45.9818 126.252 46.002C126.252 46.0259 126.239 46.0627 126.215 46.1086C126.191 46.1546 126.154 46.2061 126.107 46.263C126.057 46.3182 126.022 46.3587 125.996 46.3844C125.996 46.3899 125.994 46.3917 125.989 46.3917C125.838 46.5572 125.673 46.708 125.492 46.844C125.259 47.0444 125 47.2062 124.718 47.3349C124.67 47.3643 124.619 47.379 124.564 47.379V47.3717Z" fill="white"/>
<path d="M130.564 47.1235C130.535 47.1235 130.503 47.1161 130.469 47.1014C130.448 46.8624 130.439 46.6234 130.439 46.3844C130.439 46.2282 130.443 46.07 130.454 45.9083C130.469 45.7079 130.481 45.1582 130.491 44.2573C130.491 43.9797 130.478 43.7039 130.454 43.4318C130.439 43.0862 130.373 42.7773 130.257 42.5034C130.218 42.4207 130.161 42.3545 130.088 42.303C130.014 42.2515 129.939 42.2148 129.862 42.1909C129.784 42.1817 129.705 42.1761 129.628 42.1761C129.374 42.1761 129.087 42.2423 128.766 42.3729C128.556 42.8545 128.422 43.3564 128.365 43.8786C128.306 44.2628 128.265 44.6489 128.24 45.0331L128.306 45.0552L128.313 45.4284C128.313 45.5902 128.275 45.7226 128.197 45.831L128.19 45.8457C128.078 45.9928 127.953 46.127 127.817 46.2484C127.442 46.5848 127.098 46.8183 126.787 46.9507C126.737 46.9801 126.69 46.9948 126.64 46.9948C126.605 46.9948 126.572 46.9874 126.537 46.9727L126.53 46.833C126.53 46.7595 126.535 46.6896 126.544 46.6216V46.5058C126.544 46.3789 126.559 46.2907 126.588 46.2429L126.625 46.0094C126.664 45.7906 126.706 45.5736 126.748 45.3585C126.758 45.0423 126.763 44.7279 126.763 44.4154L126.756 43.7866C126.756 43.544 126.743 43.248 126.719 42.9023C126.695 42.6008 126.68 42.2975 126.675 41.996C126.723 41.8893 126.793 41.7919 126.879 41.7036L127.07 41.5216C127.475 41.1558 127.813 40.9444 128.087 40.8855L128.102 40.8782C128.15 40.8782 128.175 40.8984 128.175 40.937L128.168 40.9811C128.168 41.0878 128.166 41.1926 128.161 41.2955V42.3618C128.17 42.3563 128.177 42.349 128.183 42.3398C128.31 42.2331 128.438 42.1283 128.571 42.0254C128.804 41.8397 129.051 41.6797 129.308 41.5437L129.352 41.5216C129.527 41.4242 129.707 41.3415 129.893 41.2735C130.362 41.1135 130.711 41.0326 130.945 41.0326C131.077 41.0326 131.151 41.04 131.164 41.0547C131.359 41.0786 131.502 41.1374 131.596 41.2293L131.61 41.2367C131.679 41.2992 131.734 41.3764 131.78 41.4628L131.868 41.6669C131.951 41.9151 131.998 42.1706 132.015 42.4335C132.068 43.1836 132.094 44.0918 132.094 45.16C132.109 45.3788 132.116 45.6251 132.116 45.8991C132.057 46.0204 131.982 46.1289 131.89 46.2208L131.686 46.4175C131.349 46.7245 131.026 46.947 130.713 47.083C130.663 47.1125 130.616 47.1272 130.566 47.1272L130.564 47.1235Z" fill="white"/>
<path d="M139.781 48.1108H139.751C139.716 48.1108 139.7 48.0961 139.7 48.0666L139.707 48.0299L139.7 47.7743C139.7 47.5169 139.715 47.2651 139.744 47.0224C139.803 46.6124 139.838 46.1822 139.852 45.7281C139.852 45.388 139.843 45.0442 139.823 44.6967L139.749 43.1469C139.7 42.2074 139.584 41.54 139.398 41.1448C139.262 40.8616 139.159 40.6594 139.091 40.5381L139.084 40.4792C139.084 40.4075 139.143 40.3046 139.258 40.1722L139.281 40.1428C139.626 39.7438 139.979 39.4552 140.34 39.2805C140.384 39.2511 140.428 39.2364 140.47 39.2364C140.5 39.2364 140.529 39.2419 140.559 39.2511L140.573 39.2805C140.73 39.5637 140.838 39.8725 140.902 40.209C140.976 40.584 141.013 40.9297 141.013 41.2477C141.037 41.7294 141.064 42.4335 141.094 43.3601L141.101 43.6966C141.116 43.965 141.123 44.2352 141.123 44.5073C141.123 44.7794 141.116 45.046 141.101 45.3181C141.077 45.6049 141.044 45.8899 141.005 46.173C140.985 46.3146 140.971 46.458 140.961 46.605C140.952 46.776 140.934 46.9452 140.91 47.1161C140.871 47.2081 140.818 47.2945 140.75 47.3717C140.715 47.4011 140.682 47.4342 140.647 47.4728C140.676 47.4581 140.706 47.4434 140.735 47.4287C140.783 47.3956 140.833 47.3772 140.882 47.3772C140.912 47.3772 140.943 47.3846 140.976 47.3993C141.015 47.4379 141.101 47.4985 141.232 47.5831L141.684 47.2026C141.967 46.9488 142.261 46.7062 142.569 46.4708C142.9 46.2282 143.229 45.9744 143.556 45.7115V45.6159C143.556 45.5571 143.554 45.502 143.549 45.4486C143.543 45.3953 143.541 45.3457 143.541 45.3016C143.523 44.8475 143.512 44.3915 143.512 43.9282C143.512 43.6708 143.519 43.27 143.534 42.7295C143.534 42.2626 143.549 41.8746 143.578 41.5676L143.6 41.2459L143.608 41.0767C143.617 40.9462 143.622 40.8138 143.622 40.6833C143.602 40.5068 143.532 40.3597 143.411 40.2366C143.207 40.0417 142.87 39.8358 142.401 39.6151C141.754 39.2787 141.191 38.9202 140.713 38.5415C140.571 38.4293 140.421 38.3245 140.259 38.2271C140.044 38.5286 139.821 38.8209 139.588 39.1041C139.393 39.3283 139.176 39.5287 138.937 39.7034C138.81 39.8063 138.674 39.8946 138.527 39.9663C138.459 39.9957 138.407 40.0104 138.372 40.0104C138.322 40.0104 138.299 39.9865 138.299 39.9369V39.9148C138.346 39.799 138.413 39.696 138.495 39.6078C138.92 39.1004 139.178 38.7768 139.27 38.6352V38.6205C139.27 38.5672 139.292 38.5157 139.336 38.4661C139.404 38.3484 139.466 38.2326 139.527 38.115C139.586 37.9973 139.65 37.898 139.724 37.8153L139.768 37.7638C139.83 37.6866 139.898 37.613 139.972 37.545C140.119 37.3943 140.277 37.2545 140.448 37.1277L140.5 37.0909C140.606 37.0137 140.722 36.9365 140.847 36.8648C140.971 36.7912 141.099 36.7508 141.232 36.7416L141.276 36.7343C141.476 36.7398 141.667 36.7894 141.85 36.8887C142.032 36.9861 142.204 37.0909 142.364 37.2031L142.445 37.2619C142.986 37.6369 143.63 37.9973 144.374 38.3429C144.711 38.49 144.967 38.6591 145.141 38.854C145.233 38.9662 145.288 39.0985 145.303 39.2493L145.318 39.4975L145.303 39.7457L145.296 39.7751L145.288 39.9737C145.239 40.8598 145.213 41.5878 145.207 42.1578V42.531C145.207 43.0531 145.217 43.5752 145.237 44.1029C145.237 44.1709 145.239 44.2224 145.244 44.2573C145.248 44.2904 145.252 44.3272 145.252 44.3658C145.252 44.4246 145.244 44.4816 145.229 44.5423C145.141 44.7574 145.018 44.9522 144.856 45.1269C144.505 45.5111 144.124 45.866 143.716 46.1859C143.725 46.1822 143.733 46.1767 143.738 46.1712C143.723 46.1804 143.711 46.1895 143.701 46.2006C143.668 46.23 143.633 46.2576 143.6 46.2815C143.619 46.2668 143.639 46.2521 143.659 46.2374C143.175 46.6363 142.789 46.936 142.497 47.1364L142.146 47.3993C141.868 47.653 141.506 47.9582 141.057 48.313L140.875 48.4674C140.875 48.4674 140.866 48.4674 140.864 48.4711L140.853 48.4821C140.673 48.6531 140.476 48.8039 140.261 48.9362L140.224 48.9583C140.047 49.0741 139.909 49.133 139.806 49.133C139.715 49.1182 139.637 49.0796 139.577 49.0171C139.516 48.9546 139.464 48.8866 139.42 48.8131C139.396 48.7836 139.384 48.7524 139.384 48.7175C139.384 48.6586 139.417 48.5869 139.485 48.4987C139.606 48.3479 139.733 48.2082 139.865 48.0813C139.836 48.0905 139.806 48.1016 139.777 48.1108H139.781ZM143.661 46.2392C143.679 46.2245 143.699 46.2079 143.72 46.1877C143.714 46.1932 143.711 46.1987 143.705 46.2024C143.69 46.2171 143.676 46.23 143.661 46.2392Z" fill="white"/>
<path d="M150.509 47.5335C150.48 47.5335 150.448 47.5261 150.413 47.5114C150.298 47.4526 150.215 47.3625 150.169 47.2412C150.123 47.1198 150.088 46.9727 150.062 46.8018L150.047 46.7282C150.014 46.5131 149.987 46.287 149.967 46.048C149.588 46.4138 149.172 46.7448 148.723 47.0426C148.7 47.0518 148.677 47.0647 148.657 47.0794C148.53 47.1621 148.398 47.2375 148.262 47.3055L148.168 47.357C148.085 47.4011 147.999 47.4379 147.912 47.4673H147.905C147.769 47.5206 147.655 47.5463 147.561 47.5463C147.502 47.5463 147.445 47.5353 147.387 47.5096C147.195 47.4029 147.072 47.2467 147.013 47.0426C146.862 46.5499 146.767 46.0461 146.728 45.5295L146.714 45.3751C146.645 44.7666 146.552 44.1617 146.436 43.5624C146.401 43.3969 146.381 43.2075 146.37 42.9924C146.37 42.7773 146.489 42.5512 146.728 42.314C146.89 42.1486 147.059 41.9923 147.239 41.8452C147.352 41.7588 147.451 41.6706 147.539 41.5823C148.159 40.9646 148.731 40.5509 149.257 40.3469C149.319 40.323 149.391 40.3101 149.468 40.3101C149.518 40.3101 149.564 40.3285 149.608 40.3652C149.652 40.402 149.689 40.4461 149.718 40.4995C149.825 40.6557 149.968 40.8138 150.15 40.9756C150.169 40.994 150.22 41.0345 150.305 41.0914L150.334 41.1135C150.344 41.119 150.351 41.1227 150.356 41.1282L150.423 41.0694C150.579 40.9131 150.789 40.7532 151.052 40.5877C151.256 40.4461 151.458 40.3505 151.658 40.3027C151.721 40.3027 151.752 40.323 151.752 40.3616L151.745 40.413C151.677 40.7495 151.618 41.0896 151.568 41.4371C151.491 42.1247 151.447 43.0384 151.438 44.1783C151.447 44.5386 151.482 44.8971 151.539 45.2519C151.563 45.4413 151.6 45.6307 151.649 45.8219C151.688 46.037 151.783 46.2263 151.934 46.3918C151.943 46.401 151.949 46.4138 151.949 46.4285C151.949 46.4488 151.94 46.4764 151.919 46.5131C151.899 46.5499 151.87 46.5903 151.828 46.6345C151.785 46.6786 151.756 46.7117 151.736 46.7374L151.721 46.7448C151.59 46.8753 151.449 46.9948 151.296 47.1033C151.096 47.2632 150.875 47.3956 150.63 47.4967C150.592 47.5206 150.549 47.5335 150.507 47.5335H150.509ZM149.939 45.4652V45.1949C149.939 45.0148 149.941 44.8364 149.946 44.6618V44.5809C149.952 44.2647 149.954 43.6782 149.954 42.8196C149.954 42.6541 149.957 42.4924 149.968 42.3361C149.768 42.4721 149.568 42.5825 149.362 42.6652C149.314 42.6946 149.264 42.7093 149.214 42.7093C149.185 42.7093 149.152 42.6983 149.115 42.6762C149.078 42.6542 148.979 42.5953 148.819 42.4979C148.755 42.4979 148.694 42.4813 148.635 42.4464L148.613 42.4317C148.501 42.3784 148.35 42.2423 148.161 42.0217C148.117 41.9629 148.078 41.9059 148.043 41.8452L148.036 41.9997C148.045 42.1118 148.067 42.2754 148.102 42.4887C148.185 42.9612 148.251 43.4337 148.299 43.9062L148.357 44.4687C148.42 45.0828 148.497 45.5277 148.584 45.8053C148.657 46.0921 148.78 46.2796 148.957 46.3679L148.979 46.3752L149.104 46.2576C149.246 46.1307 149.385 46.0039 149.523 45.8733C149.663 45.7446 149.792 45.6141 149.915 45.4817C149.924 45.4725 149.932 45.4652 149.937 45.4597L149.939 45.4652Z" fill="white"/>
<path d="M160.947 48.0961C160.391 48.0961 159.899 48.0134 159.47 47.8479C159.349 47.8038 159.246 47.7339 159.163 47.6365C159.148 47.6218 159.135 47.6052 159.126 47.585C159.01 47.449 158.911 47.3607 158.834 47.3221C158.828 47.3221 158.823 47.3184 158.812 47.3111C158.801 47.3037 158.788 47.2982 158.768 47.2927C158.714 47.2541 158.659 47.2265 158.6 47.2118C158.595 47.2063 158.586 47.2026 158.571 47.2008C158.556 47.1989 158.534 47.1916 158.505 47.1787C158.475 47.1658 158.461 47.1235 158.461 47.05C158.461 47.0169 158.47 46.971 158.49 46.9103C158.567 46.7448 158.685 46.5646 158.841 46.3698C159.012 46.1216 159.192 45.8771 159.382 45.6381C159.523 45.4634 159.735 45.2189 160.018 44.9063L160.185 44.7096C160.307 44.5092 160.461 44.3438 160.647 44.2132V44.2059L160.829 44.0754C160.897 44.0367 160.949 44.0165 160.984 44.0165C161.013 44.0165 161.028 44.0404 161.028 44.0901C161.028 44.1048 161.011 44.1507 160.976 44.2298C160.971 44.2298 160.969 44.2316 160.969 44.2371C160.925 44.3144 160.871 44.3934 160.807 44.4706L160.237 45.2005C160.228 45.2207 160.215 45.2373 160.2 45.252C160.044 45.491 159.884 45.7263 159.718 45.9616C159.718 45.9763 159.713 45.9874 159.704 45.9984C159.728 46.0333 159.764 46.0536 159.814 46.0646L159.865 46.0793L160.013 46.1455C160.022 46.1547 160.035 46.162 160.049 46.1675C160.112 46.197 160.169 46.2356 160.219 46.2834C160.301 46.3606 160.347 46.4102 160.358 46.4304C160.538 46.6106 160.772 46.7209 161.061 46.7595C161.324 46.7981 161.59 46.8184 161.857 46.8184C162.262 46.8184 162.629 46.7724 162.96 46.6786L162.997 46.6639C163.109 46.4396 163.185 46.2337 163.223 46.0462C163.262 45.8587 163.282 45.6767 163.282 45.502L163.275 45.3274L163.267 45.2906C163.238 44.9541 163.133 44.6618 162.953 44.4136C162.734 44.1029 162.464 43.8455 162.142 43.647C161.829 43.476 161.509 43.3253 161.177 43.1929L160.248 42.8362C160.082 42.7737 159.919 42.7002 159.759 42.6174C159.744 42.6119 159.731 42.6046 159.722 42.5954C159.625 42.5476 159.533 42.4887 159.444 42.4189L159.437 42.4115C159.189 42.2406 159.064 41.9537 159.064 41.5493C159.064 41.2662 159.141 40.9407 159.297 40.5694C159.454 40.1998 159.652 39.8524 159.897 39.5325C160.307 39.0011 160.789 38.5452 161.344 38.1665C161.622 37.9716 161.921 37.8429 162.243 37.7786C162.394 37.7547 162.547 37.7381 162.703 37.7271C162.83 37.7216 162.982 37.7197 163.164 37.7197C163.347 37.7197 163.525 37.7289 163.705 37.7455C163.885 37.762 164.06 37.7988 164.231 37.8521C164.45 37.9256 164.628 38.0525 164.764 38.2327C164.853 38.3393 164.897 38.4643 164.897 38.6059V38.6279C164.897 38.7732 164.832 38.9386 164.705 39.1243L164.538 39.3799H164.545L164.487 39.4534L164.29 39.731C164.187 39.8524 164.082 39.9682 163.975 40.0748L164.005 40.0454C163.674 40.4113 163.321 40.744 162.946 41.0474L162.784 41.1945C162.609 41.3691 162.411 41.5162 162.192 41.632C162.148 41.6614 162.107 41.6761 162.068 41.6761C162.039 41.6761 162.015 41.6706 161.999 41.6577C161.982 41.6449 161.973 41.632 161.973 41.6173C161.973 41.564 162 41.4996 162.054 41.4261C162.107 41.3526 162.142 41.3103 162.157 41.2956C162.293 41.1246 162.512 40.9113 162.815 40.6521C163.01 40.3212 163.118 40.0417 163.144 39.8119C163.159 39.6851 163.166 39.5803 163.166 39.4975C163.166 39.435 163.161 39.3854 163.152 39.3505V39.3137C163.104 39.1629 163.017 39.0361 162.896 38.9331L162.734 38.9478C162.504 38.9184 162.273 38.9037 162.039 38.9037C161.6 38.9037 161.217 38.9478 160.892 39.0342L160.884 39.0416C160.855 39.071 160.787 39.1887 160.68 39.3927C160.504 39.7586 160.417 40.1373 160.417 40.5326V40.5988C160.461 40.8709 160.625 41.0878 160.906 41.2496C161.092 41.3562 161.364 41.4739 161.725 41.6008L162.749 41.9593C162.924 42.0273 163.096 42.1027 163.267 42.1854C163.545 42.3012 163.793 42.463 164.014 42.6671C164.15 42.7976 164.279 42.9392 164.4 43.0918C164.625 43.3749 164.742 43.783 164.751 44.3199V44.4283C164.751 44.6618 164.707 44.9008 164.619 45.1453C164.56 45.331 164.485 45.5075 164.393 45.6785C163.983 46.4139 163.431 47.0206 162.734 47.4986C162.35 47.7854 161.927 47.9766 161.469 48.0685C161.292 48.0887 161.12 48.0979 160.95 48.0979L160.947 48.0961Z" fill="white"/>
<path d="M169.79 47.3717C169.757 47.3717 169.722 47.3643 169.689 47.3496C169.597 47.2871 169.531 47.2025 169.49 47.1014C169.389 46.8422 169.338 46.4579 169.338 45.9468V45.6913C169.137 45.9156 168.918 46.127 168.679 46.3274C168.168 46.7558 167.668 47.026 167.181 47.1382C167.089 47.1621 166.995 47.1749 166.903 47.1749C166.772 47.1749 166.644 47.151 166.522 47.1014C166.425 47.0628 166.348 47.004 166.289 46.9249C166.25 46.8716 166.215 46.8164 166.188 46.7558C166.075 46.5425 165.996 46.3127 165.954 46.0682C165.877 45.6582 165.838 45.2482 165.838 44.8327C165.838 44.3455 165.855 43.908 165.89 43.5182C165.899 43.338 165.919 43.1579 165.949 42.9777L165.963 42.8986C166.011 42.6118 166.099 42.3618 166.226 42.1522C166.289 42.0162 166.375 41.8967 166.482 41.7937L166.708 41.5676C166.965 41.3286 167.249 41.1208 167.556 40.9462L167.585 40.9315C167.765 40.8303 167.894 40.777 167.973 40.777C168.006 40.777 168.034 40.7862 168.054 40.8064L168.061 40.8653C168.061 40.9388 168.03 41.005 167.966 41.062L167.958 41.0841C167.811 41.3911 167.699 41.7091 167.622 42.0419L167.607 42.0787C167.548 42.303 167.501 42.5328 167.46 42.7663C167.363 43.3068 167.313 43.7609 167.313 44.1249C167.313 44.4319 167.366 44.7555 167.475 45.0975C167.523 45.2684 167.605 45.4413 167.723 45.6159C167.762 45.6894 167.815 45.7501 167.881 45.7998C167.947 45.8494 168.019 45.8898 168.096 45.9229C168.164 45.9321 168.232 45.9376 168.301 45.9376C168.369 45.9376 168.435 45.9321 168.497 45.9229C168.654 45.7428 168.795 45.5552 168.922 45.3604C169.152 45.0092 169.319 44.7206 169.426 44.4908L169.441 44.3749C169.529 43.4355 169.65 42.6578 169.807 42.0437C169.865 41.7367 170.033 41.4609 170.31 41.2183C170.515 41.0326 170.735 40.8726 170.969 40.7366C171.066 40.6777 171.169 40.6373 171.276 40.6134C171.329 40.6134 171.355 40.63 171.355 40.6649C171.355 40.6741 171.353 40.6906 171.348 40.7127C171.342 40.7348 171.34 40.7586 171.34 40.7825C171.331 40.8267 171.324 40.8726 171.318 40.9223C171.313 40.9719 171.311 41.0252 171.311 41.0841C171.305 41.119 171.294 41.1521 171.274 41.187L171.237 41.472L171.223 41.6117C171.184 41.8746 171.156 42.1375 171.142 42.4004C171.098 43.0292 171.075 43.6542 171.075 44.2775C171.09 45.1397 171.219 45.6986 171.463 45.9505C171.473 45.9652 171.478 45.9818 171.478 46.002C171.478 46.0259 171.465 46.0627 171.441 46.1086C171.417 46.1546 171.381 46.2061 171.333 46.263C171.283 46.3182 171.248 46.3587 171.223 46.3844C171.223 46.3899 171.221 46.3917 171.215 46.3917C171.064 46.5572 170.899 46.708 170.719 46.844C170.485 47.0444 170.226 47.2062 169.945 47.3349C169.897 47.3643 169.845 47.379 169.79 47.379V47.3717Z" fill="white"/>
<path d="M88.008 11.8375C89.3909 12.3688 90.2625 12.8634 90.6211 13.3212L90.2974 14.3029H90.4059C91.9194 13.983 93.6553 13.5896 95.6137 13.1245C96.2169 13.426 96.6527 13.9242 96.9212 14.6173V15.0494C96.9212 15.8491 96.5976 16.2536 95.9484 16.2683H95.8399C94.7789 16.1432 94.1996 16.0807 94.1003 16.0807L93.442 16.0899C92.3736 16.1101 90.6744 16.6838 88.3408 17.8089L87.8995 17.603C87.8995 17.7078 87.5758 18.002 86.9267 18.4873C86.9267 18.3439 86.8918 18.2704 86.8182 18.2704C86.6748 18.3421 86.5663 18.3825 86.4946 18.388V18.2704L86.6031 18.0534H86.4946C86.1727 18.2759 85.919 18.3917 85.7277 18.3972C85.7277 18.3586 85.8712 18.1748 86.1599 17.8475C85.439 18.1417 85.0786 19.0885 85.0786 20.6861C84.9149 22.5007 84.6593 23.4108 84.3118 23.4181C83.9642 23.4255 82.7689 23.6645 80.7259 24.1351C80.0914 24.1406 79.6225 23.5689 79.3209 22.4161C79.4772 22.4161 79.6225 22.3775 79.7531 22.2985C78.8814 20.3019 78.4456 19.0444 78.4456 18.5259C78.4456 17.7464 79.1702 17.261 80.6174 17.0717C80.6174 17.1765 80.7259 17.2849 80.941 17.3953C81.9304 17.375 82.7285 17 83.339 16.2664C83.5817 16.2609 84.3412 16.5716 85.6192 17.2004C86.2481 16.2958 86.6122 15.4226 86.7097 14.5769C86.6251 14.5769 86.4412 14.2919 86.1599 13.722C86.3622 13.7164 86.9065 13.1263 87.791 11.9533L88.0061 11.8357L88.008 11.8375ZM81.2776 19.4525C81.421 20.278 81.4945 20.8571 81.4945 21.1917V21.6238L82.6825 21.6035C82.6825 21.5576 82.6475 21.0869 82.574 20.1897L82.6825 19.4341L82.4673 19.3257L81.8182 19.3348L81.2776 19.4525ZM95.6137 24.1958H95.7314V24.4127H95.8399C96.1286 25.218 96.2721 25.6868 96.2721 25.8173H96.3806V25.4938C96.3089 25.3503 96.2721 25.2419 96.2721 25.1702C96.9856 26.3634 97.7451 27.2532 98.5523 27.8415C98.5523 29.1064 97.6844 29.8822 95.9484 30.169C95.0106 30.1819 93.2728 30.2481 90.7296 30.3657C87.6108 30.2995 86.0514 29.8951 86.0514 29.1468C85.9079 28.8196 85.8362 28.3507 85.8362 27.7422C85.8362 26.72 86.3438 25.9148 87.3588 25.3265C87.3588 25.2345 88.8061 23.9402 91.7024 21.4454L92.2522 20.7872H92.1437C91.8495 20.7928 90.1448 21.4031 87.0334 22.6147H86.9249C86.5773 22.6221 86.0348 22.1238 85.2937 21.1218V20.6898C85.2937 20.1401 86.0183 19.5463 87.4655 18.912C87.4655 19.0554 87.574 19.1289 87.7892 19.1289L87.5722 19.4525H87.7892C90.1283 18.9028 92.1198 18.3586 93.7638 17.8218C95.7222 18.5039 96.7024 19.1749 96.7024 19.8349C96.7024 20.2283 95.6505 21.2597 93.5486 22.9291C91.204 24.626 89.6115 25.9589 88.773 26.9278C89.4221 27.7146 90.1099 28.1007 90.8362 28.0878L91.9175 28.0676C94.4589 27.8838 95.7296 27.4646 95.7296 26.8101C95.7296 26.345 95.474 25.4441 94.9628 24.1094C95.2055 24.1039 95.4611 24.6039 95.7296 25.6114H95.8381V25.1794C95.8381 25.1205 95.8032 24.9018 95.7296 24.5212V24.4127L95.6119 24.4219V24.1958H95.6137ZM87.3588 25.65V25.9736H87.5758V25.8559C87.5758 25.7125 87.5041 25.6427 87.3588 25.65ZM87.4673 26.0821V26.4056H87.5758V26.0821H87.4673ZM87.4673 26.5159V27.2734H87.6825V26.5159H87.4673ZM87.7928 27.0565C87.8646 27.3322 87.9013 27.619 87.9013 27.9205L88.1183 27.8121C88.2562 28.211 88.6553 28.5659 89.3173 28.8729H89.4258V28.7644C88.4107 28.2018 87.9032 27.6319 87.9032 27.0546H87.7947L87.7928 27.0565ZM91.9194 29.2663V29.3748L94.641 29.3251L94.7495 29.099C94.1849 29.1836 93.2415 29.2406 91.9194 29.2663ZM93.659 29.452V29.5605L94.9665 29.5311V29.4226L93.659 29.452Z" fill="white"/>
<path d="M119.86 9.06689C121.143 9.30957 121.785 9.86846 121.785 10.7473C121.785 10.9495 121.568 11.3117 121.136 11.8283V11.9276H121.245C122.267 11.6978 122.872 11.5801 123.061 11.5746C124.345 11.9276 124.987 12.56 124.987 13.47C124.987 14.2312 124.738 14.6632 124.24 14.7662C123.729 14.7018 123.444 14.6687 123.385 14.6687L121.783 15.0217C121.783 14.8507 122.032 14.6687 122.53 14.472V14.3636C122.53 14.2202 122.458 14.1503 122.313 14.1576C122.267 14.1576 121.873 14.4132 121.134 14.9243H121.026L121.881 14.0602C120.958 14.1907 120.496 14.4463 120.496 14.8268C120.011 15.5089 119.617 15.9796 119.317 16.2406C120.478 16.077 121.653 15.8766 122.844 15.6413C123.985 15.6211 124.77 16.5348 125.202 18.3825V18.4909C124.75 19.605 124.073 20.3643 123.168 20.7706C123.043 20.7706 122.83 20.846 122.53 20.9968C122.157 20.9324 121.8 20.903 121.46 20.9085L121.883 20.4765V20.368H121.785C121.11 20.5905 120.754 20.7063 120.713 20.7118L121.351 19.9452H121.243C121.243 20.2596 120.139 20.6364 117.931 21.0758V21.1843L118.245 21.1751C118.383 21.1034 118.492 21.0666 118.569 21.0666C118.569 21.4196 118.926 21.8075 119.639 22.2249C119.639 22.3499 119.531 22.6698 119.316 23.1883H119.424L121.458 22.6183H121.566C122.293 22.6054 122.9 23.2011 123.383 24.4072C123.383 24.7087 123.17 25.0322 122.745 25.3797C122.032 25.3209 121.493 25.2951 121.134 25.3007L119.856 25.3209L119.099 25.4385V26.0875L119.207 26.2934C121.631 25.946 122.843 25.7106 122.843 25.5856C123.95 25.7823 124.737 26.0912 125.2 26.5085V26.7255C124.998 28.0804 124.319 28.768 123.166 28.7883L123.058 28.7974C121.485 28.5364 120.239 28.415 119.314 28.4334H119.205V29.3968C119.205 29.8086 119.24 30.3785 119.314 31.1066C119.314 31.5331 118.744 32.1472 117.603 32.9543C116.89 32.195 116.533 31.5956 116.533 31.1562L116.642 30.4006C116.57 30.4006 116.533 30.3675 116.533 30.3032C116.671 30.2241 116.778 30.1855 116.857 30.1855V28.6927H116.748C115.557 28.9078 114.023 29.4005 112.149 30.1653H111.717C110.932 30.1781 110.077 29.6248 109.152 28.5051C109.152 27.9426 109.97 27.391 111.609 26.8542C111.256 26.3045 111.077 25.6298 111.077 24.83V24.7215C111.077 24.6829 111.397 24.3943 112.041 23.8575V23.9659L111.824 24.2895L111.932 24.2803C111.932 24.1755 112.076 24.067 112.364 23.9567V24.1737L113.003 23.7324V23.9475L112.786 24.3796H112.894C112.894 24.3263 113.288 23.6791 114.073 22.4345V22.326C113.812 22.4694 113.527 22.5466 113.218 22.5521L112.786 22.5613C112.215 22.4823 111.93 22.2727 111.93 21.9326H111.822C111.278 22.3003 110.886 22.4859 110.643 22.4933C110.342 22.4933 109.985 21.677 109.571 20.0463C109.218 19.3918 109.041 18.8605 109.041 18.456C109.08 18.0699 109.51 17.5974 110.329 17.0404C109.255 16.3601 108.718 15.656 108.718 14.928V14.8305C108.777 14.6081 109.35 14.2404 110.437 13.7293L110.535 13.7201L110.437 13.937C110.502 14.154 110.571 14.2606 110.643 14.2606C111.338 14.0308 111.767 13.9168 111.93 13.9168V13.3763C111.93 12.6501 111.645 12.014 111.075 11.4698C111.428 11.4643 111.607 11.3889 111.607 11.2436L111.401 11.2528V11.1444L111.824 11.1352L111.715 10.9201V10.8208C112.076 10.8153 112.256 10.7399 112.256 10.5947C112.184 10.5947 112.147 10.5579 112.147 10.4862C112.306 10.4862 112.445 10.4476 112.57 10.3685C113.736 10.3483 114.487 11.1223 114.819 12.6869V13.0104L115.674 12.7751C116.028 12.913 116.206 13.0178 116.206 13.0895C116.349 13.0178 116.458 12.981 116.53 12.981L116.962 13.0784L117.07 13.0693V12.9718L116.421 12.6574V12.549H116.638C116.776 12.6133 116.884 12.6464 116.962 12.6464L116.745 12.332L118.563 12.3026C118.707 12.2971 118.779 12.2199 118.779 12.0765V11.547C118.779 10.9899 118.459 10.4623 117.817 9.9659C118.944 9.37024 119.621 9.0724 119.851 9.0724L119.86 9.06689ZM111.507 16.7995V17.0146C111.533 17.158 111.607 17.2316 111.724 17.2316L112.795 17.2114C112.296 16.9025 112.048 16.6947 112.048 16.5826C111.813 16.726 111.633 16.7995 111.507 16.7995ZM111.723 18.7244V18.8329C111.94 19.7558 112.155 20.2154 112.372 20.2081C114.507 19.8349 115.575 19.5664 115.575 19.4028C115.45 19.4083 115.093 19.2024 114.503 18.7833C113.488 18.9395 112.776 19.0223 112.372 19.0278L112.155 19.037L111.723 18.7226V18.7244ZM112.903 27.0454L113.012 27.0362C113.464 27.0307 114.748 26.8652 116.864 26.5453V25.5819C114.669 25.9754 113.348 26.4626 112.903 27.0454ZM116.539 14.1466C116.539 14.4077 116.217 14.8085 115.575 15.3453H115.467C115.467 15.1302 115.432 15.0217 115.358 15.0217C114.691 15.0346 114.301 15.6468 114.189 16.8584C114.045 16.8841 113.973 16.9595 113.973 17.0845C115.014 17.0643 116.119 16.4043 117.285 15.1008V14.8857C116.976 14.8912 116.765 14.6467 116.647 14.1484H116.539V14.1466ZM115.252 23.9016H115.36C116.362 23.738 116.864 23.5835 116.864 23.4401C116.647 23.0927 116.541 22.8463 116.541 22.7029H116.432C116.335 22.7029 115.941 23.1018 115.253 23.9016H115.252ZM116.645 16.4943V16.6028H116.862V16.4943H116.645ZM117.717 18.1931V18.3016C118.144 18.2887 118.356 18.4983 118.356 18.9303L118.896 18.9211C119.512 18.9083 120.222 19.0719 121.028 19.412C121.245 18.9542 121.351 18.5957 121.351 18.3402C121.279 18.2023 121.243 18.0975 121.243 18.0258L120.388 18.035C119.784 18.0479 118.894 18.1012 117.716 18.1931H117.717ZM117.934 28.9905C117.934 29.724 117.898 30.294 117.826 30.7003L118.14 30.6911V29.7277L118.043 28.9813L117.934 28.9905ZM118.356 29.9447C118.356 30.2388 118.321 30.5238 118.247 30.7995V30.908H118.356C118.427 30.6525 118.464 30.5091 118.464 30.476V29.9465H118.356V29.9447ZM120.066 14.5106L119.957 14.7257H120.066L120.174 14.5106H120.066Z" fill="white"/>
<path d="M150.228 11.297C151.373 11.5654 151.947 12.0269 151.947 12.6814V12.8873C151.947 13.1428 151.78 13.4462 151.445 13.801V13.9003C151.785 13.7624 152.054 13.6907 152.25 13.6833C153.528 14.051 154.167 14.711 154.167 15.6671C154.167 16.2756 153.898 16.6194 153.361 16.6984H153.164L152.556 16.6102C152.006 16.8198 151.533 16.9283 151.14 16.9338L151.848 16.3142V16.2168H151.75C151.272 16.2223 150.597 16.8418 149.726 18.0736C149.549 18.0736 149.179 18.3494 148.615 18.8991C151.805 21.677 154.464 23.4144 156.594 24.1167V24.2141L155.583 24.2344V24.3336C156.094 24.4568 156.397 24.5193 156.496 24.5193V24.6168L154.58 24.6572V24.7547L155.288 24.8429V24.9403L153.972 24.9698V25.0672C154.45 25.126 154.718 25.1554 154.777 25.1554V25.2529C154.181 25.2658 153.779 25.308 153.569 25.3816V25.479L154.374 25.4588V25.5673C154.152 25.5673 153.578 25.8136 152.655 26.3045H152.558C152.44 26.3045 152.269 26.2383 152.046 26.1078C151.535 28.8122 151.132 30.169 150.838 30.1745L150.13 30.1837C149.481 29.9943 148.977 29.9024 148.617 29.9098C148.277 29.9153 147.87 29.9906 147.398 30.1359L147.506 29.93H147.398C145.708 30.4282 144.698 30.6801 144.371 30.6856C144.207 30.6856 143.939 30.3216 143.565 29.5954C143.435 29.5292 143.333 29.4961 143.26 29.4961V29.3987L143.859 29.3895C143.859 29.2516 143.624 29.121 143.151 28.996V28.8876L143.76 28.8784C143.76 28.7276 143.593 28.6302 143.258 28.5842V28.4849L143.858 28.4757C143.321 26.9498 143.052 26.0784 143.052 25.8633V25.6665H142.953L142.039 26.2861C142.039 26.0839 141.973 25.9846 141.842 25.992V26.0894C141.906 27.0325 141.94 27.8378 141.94 28.5052C141.94 29.4097 141.232 30.1616 139.817 30.7646L139.612 30.7738C139.218 30.7794 138.815 30.3161 138.403 29.3784C138.332 29.3784 138.063 29.0806 137.598 28.4849C137.662 28.4849 137.695 28.45 137.695 28.3765C137.197 28.1411 136.929 27.9444 136.89 27.7863L137.39 27.7771V27.6797C137.18 27.6852 136.945 27.4903 136.682 27.0895L136.781 27.0803C137.679 27.5381 138.321 27.7643 138.707 27.7587L139.11 27.7495L139.315 26.0306H139.207C139.279 25.9 139.315 25.7989 139.315 25.7254C139.244 24.8797 139.207 24.3759 139.207 24.2123C137.765 25.9221 136.89 26.7807 136.583 26.7862H136.278C135.851 26.7991 135.279 26.3744 134.558 25.5084V25.411L135.266 25.2933V25.1959L134.255 25.1077V25.0102L134.863 24.9017V24.7933L134.461 24.8025C135.292 24.2785 136.301 23.4861 137.488 22.4253C138.254 21.6072 138.795 21.1935 139.11 21.188V20.7854H139.01C137.87 21.6826 137.127 22.1348 136.78 22.1403C135.993 22.1532 135.456 21.3535 135.169 19.743C135.169 19.4414 135.877 19.026 137.291 18.4946C137.291 18.5866 137.19 18.6877 136.986 18.7998L137.085 18.9965L136.986 19.2025C138.047 18.627 138.685 18.2097 138.902 17.9541C138.771 16.0678 138.705 14.9243 138.705 14.5254C138.567 14.5254 138.499 14.4592 138.499 14.3286L138.302 14.4261L138.194 14.4353V14.2294L137.899 14.4353V14.2386C138.666 13.0785 139.236 12.4957 139.61 12.4902L139.915 12.481C141.061 12.4607 141.634 12.72 141.634 13.2568C141.772 13.2568 141.84 13.3579 141.84 13.562L142.146 13.5528C142.276 13.5528 142.342 13.4848 142.342 13.3469C142.276 13.3542 142.243 13.3212 142.243 13.2495H142.548V13.1502L142.44 12.9443L142.951 12.9351V12.8376L142.854 12.6409C142.9 12.6354 143.1 12.595 143.453 12.5233C144.376 12.5104 145.051 13.2072 145.478 14.6154C145.943 14.5364 146.248 14.461 146.392 14.3893C146.438 14.3893 146.638 14.4224 146.991 14.4886C148.405 14.4224 149.113 14.2753 149.113 14.0455C149.113 13.8948 149.146 13.7569 149.211 13.6337C148.962 12.7623 148.661 12.3302 148.308 12.3376V12.1409C149.264 11.5838 149.902 11.3025 150.224 11.297H150.228ZM140.93 26.1023C140.93 26.1556 140.897 26.3578 140.833 26.7108C140.963 26.7108 141.029 26.6428 141.029 26.5049V26.1023H140.93ZM141.029 23.7839C141.029 24.4384 140.996 24.7767 140.93 24.7951H141.029L141.138 24.5892V23.7839H141.029ZM140.93 25.6022V25.8081L141.029 25.7989V25.6022H140.93ZM141.235 26.0048V27.0068H141.333V25.9956L141.235 26.0048ZM142.041 13.8617L142.149 14.0676C141.743 14.2974 141.541 14.7717 141.541 15.4924V16.3951H141.638C142.379 16.316 142.749 16.1763 142.749 15.9722C142.749 14.8324 142.548 14.1282 142.149 13.8598H142.041V13.8617ZM141.541 19.0296C141.605 19.5279 141.671 21.1751 141.737 23.9715C143.289 22.5044 144.334 20.7027 144.873 18.5682H144.775C144.775 18.7704 144.47 18.9451 143.861 19.0885C143.12 18.7612 142.751 18.4634 142.751 18.195V17.9982C142.416 18.0056 142.18 18.2446 142.043 18.7153L141.541 19.0296ZM149.018 23.2434C147.379 23.2692 145.998 23.4273 144.871 23.7159H144.674C144.674 23.8538 144.54 24.0597 144.271 24.3355L144.979 24.3263C145.025 24.6609 145.123 24.8245 145.274 24.8172C148.308 24.5561 149.823 24.1921 149.823 23.727C149.555 23.3923 149.42 23.1956 149.42 23.1368C149.185 23.203 149.051 23.2379 149.018 23.2453V23.2434ZM145.176 16.9466V17.0441L145.687 16.7297C145.902 16.7297 146.473 16.9558 147.398 17.4081L147.703 16.9963C146.831 17.0165 146.395 16.8235 146.395 16.4172C145.582 16.6139 145.176 16.7904 145.176 16.9485V16.9466ZM145.687 26.9369L145.884 28.1448C148.242 27.8966 149.422 27.7385 149.422 27.6742C149.487 27.4719 149.52 27.1006 149.52 26.5637L148.92 26.4755C147.368 26.5674 146.289 26.7218 145.687 26.9369ZM146.187 20.6604H146.287C146.555 20.2743 146.69 20.0022 146.69 19.8459H146.59C146.485 19.8514 146.351 20.1254 146.187 20.6604ZM146.895 20.2467C146.693 20.7045 146.59 20.9766 146.59 21.063L146.993 21.0538L147.504 20.9453C147.392 20.6383 147.19 20.4048 146.895 20.2485V20.2467ZM148.311 18.6068V18.8035H148.409V18.6068H148.311ZM150.334 16.5532V16.6506H150.432L150.529 16.2388C150.399 16.2443 150.332 16.351 150.332 16.5532H150.334ZM151.142 16.9356V17.0441H150.936V16.9466L151.142 16.9374V16.9356Z" fill="white"/>
<path d="M173.952 9.21392C174.044 9.20841 174.459 9.61287 175.2 10.4328L175.653 10.5413V10.9936L175.094 11.7896C175.651 11.6334 176.026 11.5506 176.223 11.5451C176.944 11.8264 177.471 12.1959 177.804 12.6556C177.804 13.2641 176.824 13.7329 174.866 14.0602C174.787 14.198 174.748 14.3488 174.748 14.5124H174.866C175.645 14.4279 176.098 14.3819 176.221 14.3745C177.08 14.676 177.756 15.0787 178.255 15.5824C178.255 15.9611 178.104 16.156 177.802 16.1615V16.27C177.973 16.27 178.122 16.3068 178.255 16.3785V16.27C178.183 16.27 178.146 16.2314 178.146 16.1523H178.481C179.746 16.1266 181.215 16.5881 182.893 17.5367V17.9982C182.893 18.8236 182.179 19.2502 180.75 19.2759L180.289 19.2851V19.1675H180.75V19.0498H180.524C178.788 19.2336 177.804 19.3292 177.576 19.3347V19.4432L178.029 19.434C178.139 19.434 178.667 19.3881 179.61 19.2961L180.289 19.2869V19.3954C177.937 19.5921 176.657 19.6896 176.447 19.6896V19.8072L177.576 19.8955H177.92C178.143 20.4323 178.255 20.7706 178.255 20.9066V21.4674C178.222 21.6108 177.58 22.0373 176.329 22.7451L174.178 24.8171L174.748 24.6994L175.427 24.6902L176.223 24.7877L175.544 24.0027H175.653L176.223 24.1111C176.223 23.9604 176.109 23.885 175.879 23.885V23.7765L176.331 23.7673V23.6589C176.109 23.6589 175.997 23.5835 175.997 23.4327H176.105L176.784 23.5302V23.304C176.561 23.3114 176.449 23.2397 176.449 23.0889L176.675 23.0797C177.782 23.0595 178.726 23.725 179.505 25.0745C179.879 25.3686 180.066 25.7032 180.066 26.0765V26.1941C179.967 26.9479 179.555 27.3303 178.829 27.3432C178.087 27.1667 177.446 26.6482 176.903 25.7915V25.9092C176.975 25.9092 177.012 25.9459 177.012 26.0176C176.618 26.0231 176.131 26.1095 175.548 26.2732V26.3816C175.77 26.5912 175.883 26.8523 175.883 27.1667C175.581 27.2512 175.43 27.4811 175.43 27.8543V30.8013C175.43 30.873 175.469 30.9098 175.548 30.9098C175.083 32.2004 174.29 32.8549 173.17 32.8752H173.052C172.122 31.8658 171.368 31.3124 170.792 31.215V31.1065L171.245 31.0973V30.9889C171.107 30.9889 170.691 30.9209 169.996 30.783C169.996 31.4577 169.581 31.8052 168.748 31.8235C168.257 31.8309 167.804 31.1598 167.392 29.8104C167.392 29.6596 167.769 29.2772 168.523 28.6614C168.523 28.6154 168.753 28.347 169.211 27.8561C168.838 27.6851 168.457 27.3524 168.071 26.8541V26.7457C168.084 26.6335 169.068 26.2382 171.019 25.5562C171.903 24.8097 172.356 24.3869 172.374 24.2895H172.265C171.166 24.7619 170.483 25.0009 170.222 25.0065C169.836 25.012 169.308 24.6829 168.641 24.0137H168.523C168.523 23.942 168.562 23.9052 168.641 23.9052L168.523 23.6791C168.523 23.1091 169.165 22.5686 170.449 22.0575C170.599 22.1292 170.713 22.166 170.792 22.166C171.396 21.4986 171.697 21.0041 171.697 20.6824V20.5647C171.467 20.572 171.203 20.5389 170.901 20.4672C169.139 20.9526 167.97 21.3111 167.392 21.5483V21.7744C168.257 21.381 169.2 21.0629 170.222 20.8221H170.34V20.7044H170.675V20.8129L170.34 20.8221V20.9305C170.202 20.9379 169.108 21.2982 167.058 22.0116C165.695 21.7689 165.015 21.3277 165.015 20.686C165.015 20.515 164.978 20.3661 164.906 20.2338C166.811 18.8255 168.323 17.8566 169.435 17.3253C169.285 17.1028 169.13 16.6542 168.974 15.9795L169.544 16.077H169.77V15.9685L169.091 15.7516V15.6339H169.435L169.662 15.7424V15.6247C169.511 15.6302 169.435 15.5604 169.435 15.4078L170.222 15.3875C170.831 15.382 171.513 15.2956 172.265 15.132V14.7882L172.148 14.5621C171.092 14.8819 170.566 15.0823 170.566 15.1614C169.937 15.1669 169.296 14.6871 168.641 13.7164V13.4902C168.641 12.9663 169.319 12.4644 170.675 11.9864V11.8687C170.826 11.9404 170.94 11.9772 171.019 11.9772L170.901 12.2033C170.98 12.2033 171.019 12.2419 171.019 12.3209C170.94 12.3209 170.901 12.3596 170.901 12.4386L171.127 12.4294L171.923 12.3026C171.923 11.8374 171.583 11.5028 170.901 11.3006V11.0745C171.648 9.93461 172.063 9.36099 172.15 9.35548L173.849 9.32607C173.92 9.32607 173.957 9.29113 173.957 9.21759L173.952 9.21392ZM167.839 18.5975H167.957C168.939 18.0478 169.542 17.772 169.764 17.772C169.764 17.6213 169.652 17.5459 169.43 17.5459C168.586 17.9982 168.054 18.3475 167.837 18.5975H167.839ZM167.839 19.1564C170.198 18.5148 171.633 18.1894 172.144 18.1839C172.144 18.0662 171.993 17.9154 171.692 17.7316L171.574 17.7408C171.265 17.7408 170.965 17.7831 170.669 17.8695L169.991 17.761C168.577 18.4284 167.859 18.8935 167.839 19.1564ZM170.11 28.0583V28.4021C170.412 28.7753 170.563 28.9978 170.563 29.0695C170.412 29.5604 170.336 29.9005 170.336 30.0917L172.488 30.2792C172.953 30.1211 173.214 29.9281 173.273 29.7001V28.6889C173.227 27.4847 173.001 26.8835 172.595 26.8909H172.486C171.241 27.6631 170.449 28.0547 170.108 28.0602L170.11 28.0583ZM170.11 30.4355V30.6616L170.563 30.6524L171.122 30.7609C171.122 30.5771 170.785 30.4704 170.11 30.4373V30.4355ZM170.669 20.5812L171.122 20.572V20.6897L170.669 20.6989V20.5812ZM171.239 20.3459V20.4636L171.465 20.4544V20.3459H171.239ZM171.692 26.6721V26.7898L172.036 26.7806C172.166 26.7015 172.317 26.6629 172.488 26.6629V26.5453H172.37L171.692 26.674V26.6721ZM173.499 17.1433V17.9283C173.65 17.8493 173.764 17.8107 173.843 17.8107V17.7022L173.726 17.1323L173.499 17.1414V17.1433ZM174.069 20.0701C174.443 20.3717 174.63 20.5573 174.63 20.629V20.9636C173.876 21.1806 173.501 21.5281 173.501 22.0042H173.619L174.297 21.8774C174.297 21.9491 174.332 21.9858 174.406 21.9858C175.316 20.9177 175.772 20.1952 175.772 19.8146L174.071 20.0701H174.069ZM174.178 17.1231V17.8015H174.296V17.1231H174.178ZM174.178 27.8708V29.5714H174.296L174.404 29.0015V28.4407L174.296 27.8708H174.178ZM174.522 29.0015V29.7975L174.63 29.7883V29.0033H174.522V29.0015ZM174.748 16.7793V17.682C176.136 17.5055 177.381 17.4062 178.483 17.3878H178.6C178.13 16.8712 177.561 16.6156 176.901 16.6212V16.5127L177.354 16.5035L177.806 16.612H177.924V16.4943C177.655 16.4226 177.501 16.3858 177.462 16.3858L174.75 16.7793H174.748ZM178.374 27.5767L179.503 27.5564C180.401 27.5436 180.967 27.8359 181.203 28.4315C181.203 28.5621 181.278 28.7496 181.429 28.9923C181.089 30.2829 180.52 30.9337 179.73 30.9466C179.055 30.4686 178.299 30.2167 177.46 30.1891V30.0807L178.6 29.9428V29.6082L177.008 29.6376V29.5199L178.374 29.382V29.2736L177.922 29.1651V29.0474L178.483 29.0382V28.9298C178.26 28.9353 178.148 28.8636 178.148 28.7128L178.374 28.7036V28.5952C177.994 28.5419 177.804 28.4315 177.804 28.2606L178.483 28.1319V27.7973L178.374 27.5711V27.5767ZM178.483 18.5185V18.6361L179.161 18.6269L179.731 18.5001V18.3916H179.505C179.099 18.4762 178.759 18.5203 178.483 18.5203V18.5185ZM178.933 18.7446V18.8531L179.956 18.8328C180.099 18.7538 180.211 18.7152 180.29 18.7152V18.6067H180.182C179.77 18.6913 179.353 18.7372 178.933 18.7446Z" fill="white"/>
<path d="M62.9148 33.148C61.9176 32.9287 60.9245 33.5625 60.7094 34.5624C59.9372 38.0934 58.068 41.2997 55.4266 43.7268V28.761H62.5758C63.1357 28.761 63.66 28.5103 64.0119 28.0815C64.3638 27.6485 64.5034 27.0845 64.3923 26.5404C63.0972 20.1649 58.8829 14.6911 53.0687 11.7811C49.3174 4.9883 42.2395 0.796387 34.4478 0.796387C26.6561 0.796387 19.1935 5.21619 15.5291 12.3366C15.3938 12.5987 15.3226 12.8893 15.3226 13.1855V45.2124C10.6666 41.9663 7.78301 36.5822 7.78301 30.7964C7.78301 26.7412 9.12366 22.9353 11.6639 19.7875C12.3065 18.9898 12.1825 17.8233 11.3861 17.1809C10.5897 16.5385 9.42142 16.6624 8.77888 17.4586C5.74426 21.2204 4.07593 25.9564 4.07593 30.7964C4.07593 39.0435 8.91138 46.6182 16.3939 50.0866C16.6447 50.2034 16.9097 50.2589 17.1761 50.2589C17.5251 50.2589 17.8713 50.1606 18.1734 49.9684C18.7077 49.6279 19.0296 49.0382 19.0296 48.4058V33.3588H27.2602V55.5533C25.6075 54.8126 24.0688 53.8141 22.6997 52.5821C21.9403 51.8998 20.7649 51.9582 20.0825 52.7217C19.3972 53.4808 19.4585 54.6517 20.2178 55.3382C24.1258 58.8592 29.1807 60.7964 34.4464 60.7964C39.2847 60.7964 44.0175 59.1313 47.7788 56.1017C47.9982 55.9251 48.1677 55.71 48.2788 55.475C48.4954 55.1716 48.625 54.7984 48.625 54.3939V18.9784C48.625 18.4656 48.4185 18.0027 48.0808 17.6652C47.7446 17.3319 47.2801 17.1239 46.7701 17.1239C45.7471 17.1239 44.9165 17.9515 44.9165 18.977V53.6347C43.0658 55.012 41.0057 55.992 38.8117 56.5475V5.05097C43.6129 6.27165 47.7289 9.48644 50.0711 14.033C50.2592 14.4005 50.5655 14.6939 50.9388 14.8677C55.2798 16.8818 58.6037 20.5979 60.1495 25.0548H53.5716C52.5458 25.0548 51.7181 25.8852 51.7181 26.9079V47.4273C51.7181 48.0939 52.08 48.7092 52.6641 49.0368C53.2454 49.3644 53.9591 49.3545 54.5304 49.0098C59.5198 46.0015 63.0915 41.0219 64.331 35.3529C64.5504 34.3516 63.9164 33.3674 62.9163 33.148H62.9148ZM27.2602 29.6555H19.0296V13.6484C20.9088 10.21 23.8152 7.56925 27.2602 6.03378V29.6555ZM35.1046 57.0788C34.8852 57.0873 34.6658 57.0916 34.4464 57.0916C33.2696 57.0916 32.1042 56.9748 30.9672 56.7455V4.84728C32.0985 4.62223 33.2624 4.50401 34.4464 4.50401C34.6658 4.50401 34.8852 4.50686 35.1046 4.51683V57.0788Z" fill="white"/>
<path d="M9.8987 3.9314C9.8987 3.9314 9.86451 11.9548 12.4874 13.1798C12.8393 14.1455 14.2939 10.6929 9.8987 3.9314Z" fill="white"/>
<path d="M12.2979 14.3734C12.2979 14.3734 8.36143 15.9559 0.801941 9.60034C9.16639 10.774 11.8491 12.7026 12.2979 14.3734Z" fill="white"/>
</svg>
